<?xml version="1.0" standalone="no"?>
<!DOCTYPE svg PUBLIC "-//W3C//DTD SVG 1.1//EN" "http://www.w3.org/Graphics/SVG/1.1/DTD/svg11.dtd" >
<svg xmlns="http://www.w3.org/2000/svg" xmlns:xlink="http://www.w3.org/1999/xlink" version="1.1">
<metadata>
Created by FontForge 20170731 at Fri Jul 22 01:47:15 2022
 By Aleksey,,,
Copyright (c) 2012 by Fontfabric LLC. All rights reserved.
</metadata>
<defs>
<font id="NexaRegular" horiz-adv-x="1419" >
  <font-face 
    font-family="NexaRegular"
    font-weight="400"
    font-stretch="normal"
    units-per-em="2048"
    panose-1="2 0 5 0 0 0 0 0 0 0"
    ascent="1446"
    descent="-602"
    x-height="1012"
    cap-height="1434"
    bbox="-311 -606 2218.5 1933"
    underline-thickness="102"
    underline-position="-204"
    unicode-range="U+000D-FB02"
  />
<missing-glyph horiz-adv-x="1308" 
d="M76 1434h1102v-1434h-1102v1434zM383 913l2 -2q0 94 70 140q69 45 166 45q254 0 256 -187q0 -41 -12 -69q-12 -29 -42 -50q-33 -23 -45 -28q-3 -1 -22.5 -9.5t-36.5 -15.5q-101 -39 -142 -101q-42 -63 -42 -204h122q0 98 21 136q22 39 92 65q1 1 45 20q28 12 53 26
q18 10 47 33q33 27 46 47q14 22 26 63q12 40 12 89q0 156 -109 228q-108 71 -269 71q-154 0 -257 -73q-104 -74 -104 -224h123zM514 264q0 -52 40 -74t80 -1t40 73t-40 74t-80 1t-40 -73z" />
    <glyph glyph-name=".notdef" horiz-adv-x="1308" 
d="M76 1434h1102v-1434h-1102v1434zM383 913l2 -2q0 94 70 140q69 45 166 45q254 0 256 -187q0 -41 -12 -69q-12 -29 -42 -50q-33 -23 -45 -28q-3 -1 -22.5 -9.5t-36.5 -15.5q-101 -39 -142 -101q-42 -63 -42 -204h122q0 98 21 136q22 39 92 65q1 1 45 20q28 12 53 26
q18 10 47 33q33 27 46 47q14 22 26 63q12 40 12 89q0 156 -109 228q-108 71 -269 71q-154 0 -257 -73q-104 -74 -104 -224h123zM514 264q0 -52 40 -74t80 -1t40 73t-40 74t-80 1t-40 -73z" />
    <glyph glyph-name=".null" horiz-adv-x="0" 
 />
    <glyph glyph-name="nonmarkingreturn" horiz-adv-x="681" 
 />
    <glyph glyph-name="CR" unicode="&#xd;" horiz-adv-x="548" 
 />
    <glyph glyph-name="space" unicode=" " horiz-adv-x="524" 
 />
    <glyph glyph-name="exclam" unicode="!" horiz-adv-x="540" 
d="M358 1434v-1106h-178v1106h178zM154 106q0 74 59 104t119 0q59 -30 59 -104t-59 -103q-60 -30 -119 0q-59 29 -59 103z" />
    <glyph glyph-name="quotedbl" unicode="&#x22;" horiz-adv-x="776" 
d="M303 1436v-535h-151v535h151zM625 1436v-535h-152v535h152z" />
    <glyph glyph-name="numbersign" unicode="#" horiz-adv-x="1357" 
d="M682 1434l-80 -328h342l82 328h168l-82 -328h168v-150h-205l-125 -485h180v-154h-215l-77 -317h-168l78 317h-345l-77 -317h-166l78 317h-162v154h198l125 485h-172v150h207l80 328h168zM567 965l-129 -502h344l127 502h-342z" />
    <glyph glyph-name="dollar" unicode="$" horiz-adv-x="1368" 
d="M782 1649v4v-195q337 -35 455 -262l-147 -74q-46 83 -163 133q-118 51 -235 52q-148 0 -269 -62q-119 -61 -118 -184q0 -46 23 -83q22 -36 55 -58q34 -23 89 -42q58 -20 106 -30q63 -13 122 -23q98 -14 125 -19q34 -6 116 -26q76 -18 113 -36q48 -23 91 -50
q55 -35 79 -71q26 -39 45 -96q19 -56 19 -126q-1 -190 -152 -295q-148 -104 -356 -116v-203h-166v199q-181 12 -325 88q-147 77 -215 221l155 74q51 -106 185 -165q135 -59 274 -59q101 0 191 24t159 84q70 61 70 150q0 64 -34 110q-35 47 -102 75q-73 30 -131 44
q-72 17 -161 32q-29 5 -75.5 12.5t-63.5 10.5q-52 9 -125 30q-76 22 -117 47q-48 30 -87 66q-45 41 -65 97q-20 54 -20 130q-1 183 142 282q143 98 345 115v195h168z" />
    <glyph glyph-name="percent" unicode="%" horiz-adv-x="1523" 
d="M412 1452q123 0 206 -64q85 -65 104 -156t0 -182t-104 -156t-206 -65q-88 0 -158 35q-69 35 -104 89q-35 55 -53 121t0 133q18 66 53 121q35 54 104 89q70 35 158 35zM1143 1438h188l-925 -1438h-191zM412 1319h-2q-113 0 -159 -88t1 -177t162 -89q68 0 113 36
q47 37 57 90q10 52 0 103q-10 49 -58 88q-46 37 -114 37zM1145 608h-2q124 0 207 -64t103 -156q19 -91 0 -182q-20 -92 -103 -156t-207 -64t-206 64q-83 64 -102 156q-19 91 0 182q20 92 103 156t207 64zM1143 477q-112 0 -159 -89t0 -179q46 -90 159 -90q68 0 114 37
q48 39 58 89q11 54 -1 105q-12 53 -58 90t-113 37z" />
    <glyph glyph-name="ampersand" unicode="&#x26;" horiz-adv-x="1431" 
d="M991 1071v4q0 223 -325 223q-172 0 -260 -72t-87 -177q2 -125 111 -184q107 -58 240 -58h637v-145h-127v-267q0 -107 35 -171q36 -66 120 -64v-162q-203 -15 -254 178q-121 -194 -415 -194q-260 0 -403 104q-144 105 -144 320q0 110 75 200q74 89 183 127
q-103 33 -167 120q-65 88 -65 191q0 187 148 296q147 108 377 108q102 0 179 -17q82 -18 153 -58q73 -41 115 -117q42 -77 42 -185h-168zM1018 664h-361q-170 0 -266 -78t-96 -176q0 -128 98 -198q100 -71 269 -71q125 0 241 64q115 64 115 194v265z" />
    <glyph glyph-name="quotesingle" unicode="'" horiz-adv-x="456" 
d="M305 1438v-537h-153v537h153z" />
    <glyph glyph-name="parenleft" unicode="(" horiz-adv-x="694" 
d="M643 1386q-181 -135 -276 -340q-98 -212 -99 -444q-1 -241 93 -448q94 -206 282 -347l-90 -126q-224 146 -342 391q-119 247 -119 522q0 272 120 517q120 244 345 394z" />
    <glyph glyph-name="parenright" unicode=")" horiz-adv-x="694" 
d="M137 1509q225 -147 345 -392t120 -517t-119 -521q-118 -247 -342 -394l-88 125q187 141 281 347t92 449q-1 234 -98 444q-95 206 -277 341z" />
    <glyph glyph-name="asterisk" unicode="*" horiz-adv-x="772" 
d="M498 934l-115 162l-113 -162l-108 78l125 151l-174 43l37 127l174 -61l-7 178h134l-11 -180l185 61l37 -125l-185 -43l127 -151z" />
    <glyph glyph-name="plus" unicode="+" horiz-adv-x="1024" 
d="M96 784h332v330h164v-330h336v-157h-336v-338h-164v338h-332v157z" />
    <glyph glyph-name="comma" unicode="," horiz-adv-x="485" 
d="M203 -6l2 4q-72 18 -72 90q0 67 54 94t110 -2q55 -28 55 -96q0 -8 -12 -46q-18 -56 -36 -108q-17 -48 -40 -120h-112z" />
    <glyph glyph-name="hyphen" unicode="-" horiz-adv-x="1015" 
d="M141 668h733v-160h-733v160z" />
    <glyph glyph-name="period" unicode="." horiz-adv-x="487" 
d="M133 92q0 70 55 97q56 27 111 -1t55 -98t-55 -97q-56 -27 -111 1t-55 98z" />
    <glyph glyph-name="slash" unicode="/" horiz-adv-x="1005" 
d="M778 1561h176l-729 -1729h-174z" />
    <glyph glyph-name="zero" unicode="0" horiz-adv-x="1413" 
d="M127 860q0 142 50 260q50 117 131 188q80 70 186 109q105 39 213 39t213 -39t185 -110q81 -72 131 -188q50 -117 50 -259v-287q0 -187 -86 -327t-215 -203t-278 -63q-152 0 -279 62q-130 64 -215 202q-86 140 -86 329v287zM305 573q0 -115 44 -208t115 -141
q70 -48 157 -69t172 1t156 69t115 141t44 209v287q0 115 -44 208q-43 91 -115 138q-73 48 -156 70q-85 22 -172 1q-85 -21 -157 -70t-115 -140q-44 -93 -44 -209v-287z" />
    <glyph glyph-name="one" unicode="1" horiz-adv-x="864" 
d="M106 150h267v1060l-252 -67v164l430 127v-1284h260v-150h-705v150z" />
    <glyph glyph-name="two" unicode="2" horiz-adv-x="1380" 
d="M317 1036h-178q5 114 56 199q51 84 135 129t177 66q89 20 200 20q104 0 199 -23q94 -23 175 -70t130 -134t49 -201q0 -116 -49 -203t-130 -134q-85 -50 -177 -70q-94 -21 -206 -21q-389 -5 -389 -248v-176h944v-170h-1124v346q0 118 49 201q50 85 134 128t180 64
q95 21 204 21q63 0 126 12q58 11 124 40q61 27 100 81q37 52 37 127q0 144 -108 207q-107 62 -268 67q-157 0 -272 -61q-117 -62 -118 -197z" />
    <glyph glyph-name="three" unicode="3" horiz-adv-x="1374" 
d="M135 1061l-4 2q0 108 50 188q49 79 134 123q84 44 175 63q89 19 194 19q238 0 390 -109q153 -110 155 -296q0 -111 -72 -197q-73 -86 -184 -113q121 -30 203 -121q81 -90 81 -208q0 -207 -161 -317q-162 -111 -414 -111q-89 0 -159 11q-81 13 -153 41q-76 30 -133 75
q-59 46 -92 116q-34 71 -34 164h178q2 -244 397 -244q177 0 285 69t108 190q0 102 -96 179q-97 77 -289 77h-231v149h219q163 0 266 68q104 68 105 170q2 99 -91 171t-276 72q-68 0 -125 -10q-58 -10 -119 -33q-60 -22 -95 -71q-36 -50 -36 -117h-176z" />
    <glyph glyph-name="four" unicode="4" horiz-adv-x="1351" 
d="M905 301h-827l-25 197l746 936h286v-967h175v-166h-175v-301h-180v301zM905 467v831l-663 -831h663z" />
    <glyph glyph-name="five" unicode="5" horiz-adv-x="1347" 
d="M707 899q257 0 401 -120q143 -119 143 -328t-152 -336t-405 -127q-113 0 -209 21q-95 21 -179 68q-83 47 -131 132t-48 203h178q0 -99 65 -159q66 -61 144 -79q80 -18 176 -18q175 0 278 78q105 79 105 215q0 128 -95 205t-271 77h-553v703h1015v-164h-841v-371h379z" />
    <glyph glyph-name="six" unicode="6" horiz-adv-x="1417" 
d="M330 717q128 174 407 174q86 0 167 -15q76 -14 156 -51q73 -34 130 -86q55 -51 88 -130t33 -175q0 -116 -50 -207q-49 -89 -135 -143q-85 -53 -183 -80q-99 -27 -208 -27q-148 0 -277 47q-128 47 -216 154t-88 262v586q0 208 167 319t398 111q238 0 397 -99
q161 -100 168 -290h-178q-4 112 -116 175q-111 63 -269 63q-159 0 -275 -76t-116 -205v-307zM735 141q102 1 189 29q86 27 147 94q62 68 62 170q0 149 -115 223t-279 74q-161 0 -283 -78t-122 -219q0 -148 120 -220q122 -73 281 -73z" />
    <glyph glyph-name="seven" unicode="7" horiz-adv-x="1148" 
d="M905 1266h-842v168h1049l14 -115l-716 -1319h-203z" />
    <glyph glyph-name="eight" unicode="8" horiz-adv-x="1439" 
d="M117 406q0 116 78 208q80 93 198 127q-246 96 -246 312q0 105 50 187t133 128q86 48 182 71q95 23 207 23q148 0 272 -39q125 -39 215 -134q90 -94 90 -236q0 -105 -69 -188q-69 -82 -185 -122q119 -35 199 -131q81 -97 82 -211q0 -120 -52 -208q-53 -90 -143 -136
q-89 -46 -191 -67t-218 -21q-117 0 -216 21q-102 22 -191 67q-88 45 -143 137q-52 88 -52 212zM1116 1057q0 84 -63 144q-64 61 -152 86q-90 26 -184 26q-99 0 -186 -27q-86 -27 -146 -87q-59 -59 -59 -142q1 -121 124 -183q121 -61 269 -61q91 0 178 23q89 23 153 80
q66 58 66 141zM719 672q-99 2 -189 -22q-91 -24 -163 -87t-72 -155q0 -137 128 -206q127 -69 294 -69q103 0 196 26t162 89q70 64 70 158q0 89 -73 153t-165 88q-95 25 -188 25z" />
    <glyph glyph-name="nine" unicode="9" horiz-adv-x="1413" 
d="M1090 414v313q-123 -180 -408 -180q-86 0 -167 15q-79 15 -156 50q-73 34 -130 86q-55 51 -88 130q-32 77 -32 176q0 115 50 206q50 92 134 144q85 53 183 80q95 26 208 26q152 0 278 -46q128 -47 216 -154t88 -263v-585q0 -208 -167 -319t-399 -111q-240 0 -399 99
q-161 100 -168 290h178q5 -109 117 -170q113 -62 270 -62q155 0 274 74q118 73 118 201zM684 1298q-101 -2 -185 -28q-86 -27 -148 -95t-62 -171q0 -148 115 -223q114 -74 278 -74q163 0 283 77t120 220q0 148 -118 221t-283 73z" />
    <glyph glyph-name="colon" unicode=":" horiz-adv-x="501" 
d="M141 698q0 51 34 81q35 30 76 30t76 -30q33 -29 33 -81t-33 -81t-76 -29t-76 29q-34 30 -34 81zM141 94q0 51 34 81q35 30 76 30t76 -30q33 -29 33 -81t-33 -81t-76 -29t-76 29q-34 30 -34 81z" />
    <glyph glyph-name="semicolon" unicode=";" horiz-adv-x="505" 
d="M365 698q0 -67 -55 -96q-53 -28 -109 -1t-56 95t55 97q53 28 109 1t56 -96zM213 -4h2q-72 18 -72 92q0 66 55 94q53 27 109 -2q55 -28 55 -96q0 -8 -12 -45q-4 -13 -16.5 -49.5t-20.5 -59.5q-9 -26 -22.5 -65.5t-18.5 -54.5h-110z" />
    <glyph glyph-name="less" unicode="&#x3c;" horiz-adv-x="765" 
d="M541 1096l106 -115l-360 -334l366 -332l-112 -116l-449 419v58z" />
    <glyph glyph-name="equal" unicode="=" horiz-adv-x="1146" 
d="M150 938h847v-158h-847v158zM150 506h847v-158h-847v158z" />
    <glyph glyph-name="greater" unicode="&#x3e;" horiz-adv-x="770" 
d="M678 676v-58l-451 -419l-110 110l366 338l-362 338l106 111z" />
    <glyph glyph-name="question" unicode="?" horiz-adv-x="1243" 
d="M244 1024h-172q0 111 46 196q47 86 125 133q80 48 173 72q98 25 200 25q106 0 203 -23q95 -23 174 -69t126 -132q46 -85 46 -200q0 -69 -18 -126q-17 -54 -39 -90q-21 -34 -68 -69q-45 -34 -67 -46q-20 -12 -80 -37q-60 -26 -66 -27q-105 -40 -139 -94q-33 -53 -33 -191
h-178q0 196 64 284q63 88 213 140q63 25 86 37q28 15 69 45q42 31 60 75t18 103q0 77 -35 133t-94 81q-58 25 -120 37q-55 11 -130 11q-88 0 -167 -24q-77 -23 -138 -87q-59 -62 -59 -157zM457 111q0 73 58 103t118 0q59 -30 59 -103q0 -75 -59 -104q-60 -30 -118 0t-58 104
z" />
    <glyph glyph-name="at" unicode="@" horiz-adv-x="1849" 
d="M934 1241q-286 0 -480 -186t-194 -486q0 -304 190 -476q189 -171 478 -171q160 0 305 80l70 -121q-168 -102 -377 -102q-359 0 -590 213q-232 214 -232 577q0 359 236 584t594 225q372 0 599 -210q226 -210 226 -588q0 -310 -162 -441q-61 -49 -133 -55q-71 -6 -123 38
q-51 43 -49 128q-52 -94 -158 -145q-107 -52 -212 -52q-218 0 -368 147q-151 148 -151 361q0 235 148 374q147 138 371 138q105 0 206 -53q102 -53 148 -141l8 143l135 -12v-736q0 -33 20 -48t45 -8q26 8 42 30q90 92 90 334q0 332 -178 495q-179 164 -504 164zM924 924
q-160 0 -260 -97q-99 -96 -99 -264q0 -166 99 -262t258 -96q170 0 263 105t93 257q0 149 -92 253t-262 104z" />
    <glyph glyph-name="A" unicode="A" horiz-adv-x="1556" 
d="M678 1434h201l643 -1434h-193l-141 315h-819l-140 -315h-194zM1118 479l-340 774l-340 -774h680z" />
    <glyph glyph-name="B" unicode="B" horiz-adv-x="1447" 
d="M190 1434h627q207 0 344 -104t137 -298q0 -101 -55 -178q-55 -78 -158 -117q123 -35 191 -134q67 -98 67 -208q0 -111 -43 -190q-44 -80 -119 -123q-76 -43 -166 -63q-86 -19 -198 -19h-627v1434zM369 1272v-455h456q136 0 216 52q81 53 81 161q0 116 -84 179t-221 63
h-448zM369 655v-487h448q66 0 119 10q58 11 111 34q55 24 87 72q31 47 31 117q-2 125 -104 190q-101 64 -236 64h-456z" />
    <glyph glyph-name="C" unicode="C" horiz-adv-x="1454" 
d="M1384 190q-214 -213 -532 -213q-358 0 -552 212q-195 213 -196 520q-1 196 78 362t254 276q173 109 416 109q304 0 524 -215l-123 -115q-163 160 -401 160q-274 0 -423 -168q-148 -167 -146 -407q5 -239 149 -401q145 -163 420 -163q242 0 408 166z" />
    <glyph glyph-name="D" unicode="D" horiz-adv-x="1536" 
d="M190 1434v2h523q176 0 317 -60q144 -61 227 -159q88 -104 132 -225q45 -124 45 -259q0 -143 -43 -269q-45 -132 -128 -234q-85 -105 -228 -168q-140 -62 -322 -62h-523v1434zM713 178q266 0 404 165t138 392q0 217 -141 373t-401 156h-344v-1086h344z" />
    <glyph glyph-name="E" unicode="E" horiz-adv-x="1333" 
d="M190 0v1434h1008v-164h-831v-449h796v-166h-796v-485h864v-170h-1041z" />
    <glyph glyph-name="F" unicode="F" horiz-adv-x="1282" 
d="M190 1434h996v-170h-817v-500h782v-166h-782v-600h-179v1436z" />
    <glyph glyph-name="G" unicode="G" horiz-adv-x="1525" 
d="M1378 1247l-102 -119q-84 81 -197 124q-115 44 -227 44q-266 0 -418 -171q-151 -170 -151 -420q0 -237 148 -400q149 -164 425 -164q222 0 391 146v340h-446v157h608v-567q-229 -244 -555 -244q-184 0 -331 60q-146 60 -235 162t-135 232q-47 132 -47 278q-1 329 201 543
t545 214q308 0 526 -215z" />
    <glyph glyph-name="H" unicode="H" horiz-adv-x="1556" 
d="M1188 0v647h-819v-647h-179v1434h179v-621h819v621h178v-1434h-178z" />
    <glyph glyph-name="I" unicode="I" horiz-adv-x="559" 
d="M190 0v1434h179v-1434h-179z" />
    <glyph glyph-name="J" unicode="J" horiz-adv-x="1409" 
d="M1235 573q5 -270 -159 -435q-163 -165 -433 -165q-261 0 -428 161q-166 160 -166 431h176q0 -195 114 -309q115 -115 304 -115q191 0 303 118q113 119 113 314v697h-502v164h678v-861z" />
    <glyph glyph-name="K" unicode="K" horiz-adv-x="1286" 
d="M190 0v1434h177v-633l634 633h224v-11l-688 -680l749 -731v-12h-221l-698 674v-674h-177z" />
    <glyph glyph-name="L" unicode="L" horiz-adv-x="1185" 
d="M369 1434v-1268h780v-166h-959v1434h179z" />
    <glyph glyph-name="M" unicode="M" horiz-adv-x="1810" 
d="M1444 1176l-520 -725h-37l-520 729v-1180h-177v1434h213l504 -738l500 738h213v-1434h-176v1176z" />
    <glyph glyph-name="N" unicode="N" horiz-adv-x="1560" 
d="M190 1434h125l879 -1098v1098h176v-1434h-123l-880 1094v-1094h-177v1434z" />
    <glyph glyph-name="O" unicode="O" horiz-adv-x="1656" 
d="M831 1458q344 -2 536 -221q191 -217 189 -524q0 -146 -46 -275q-47 -132 -133 -236q-87 -105 -228 -168t-320 -63q-177 0 -320 63q-142 63 -229 168q-88 106 -134 235t-46 276q0 318 200 532q200 213 531 213zM1378 713q2 153 -55 279q-57 128 -185 214q-129 87 -307 88
q-261 0 -407 -167q-145 -166 -145 -414q0 -239 143 -406q144 -168 409 -168t406 170t141 404z" />
    <glyph glyph-name="P" unicode="P" horiz-adv-x="1400" 
d="M367 463v-463h-177v1434h652q131 0 241 -54q106 -52 162 -139q55 -85 81 -189t0 -207t-81 -189q-55 -85 -162 -139t-241 -54h-475zM842 629q99 0 175 47q73 45 107 119q33 72 33 153q0 82 -33 154q-34 74 -107 119q-76 47 -175 47h-475v-639h475z" />
    <glyph glyph-name="Q" unicode="Q" horiz-adv-x="1665" 
d="M1284 121v2q-178 -139 -450 -139q-353 0 -542 216q-190 217 -190 527q1 194 80 359q78 164 247 270t405 106q178 0 320 -60t229 -165q88 -106 134 -235t46 -275q0 -277 -154 -481l178 -172l-125 -125zM834 1294q-172 -1 -300 -83q-129 -82 -192 -209t-61 -281
q0 -236 144 -404q143 -167 406 -167t408 171t141 408q-5 238 -142 401q-138 164 -404 164z" />
    <glyph glyph-name="R" unicode="R" horiz-adv-x="1458" 
d="M1163 0l-446 516h-348v-516h-179v1434h652q229 0 357 -136t128 -323q2 -177 -100 -302q-102 -126 -312 -143l474 -530h-226zM834 676q153 0 234 83t81 212q2 121 -80 211q-83 92 -227 92h-473v-598h465z" />
    <glyph glyph-name="S" unicode="S" horiz-adv-x="1359" 
d="M1090 1120q-55 90 -166 136q-113 48 -238 49q-154 0 -265 -63q-112 -64 -112 -183q0 -55 29 -96q29 -42 88 -68q60 -27 120 -42q59 -15 152 -30q126 -19 172 -30q61 -14 151 -47q85 -32 132 -72q46 -40 81 -112q34 -69 34 -165q0 -114 -53 -200q-55 -89 -139 -134
q-88 -47 -185 -69q-101 -23 -207 -23q-205 0 -367 81q-160 80 -239 251l147 86q65 -119 194 -186q127 -66 267 -66q66 0 138 13q68 12 129 40q63 29 101 83q38 55 38 130q0 64 -32 111q-32 48 -95 76q-62 28 -128 45q-59 15 -159 31q-112 17 -165 29q-66 15 -144 45
q-80 31 -125 70q-49 43 -79 104q-32 66 -32 149q-1 106 48 187q49 80 133 126q85 47 176 67q93 21 192 21q185 0 319 -55q136 -56 224 -205z" />
    <glyph glyph-name="T" unicode="T" horiz-adv-x="1224" 
d="M524 1274h-489v160h1155v-160h-490v-1274h-176v1274z" />
    <glyph glyph-name="U" unicode="U" horiz-adv-x="1517" 
d="M1341 1434l2 -2v-861q0 -285 -166 -441q-168 -157 -415 -157q-246 0 -417 156t-171 442v861h176v-861q0 -205 119 -319q120 -115 293 -115q174 0 290 117q115 116 115 319v861h174z" />
    <glyph glyph-name="V" unicode="V" horiz-adv-x="1462" 
d="M41 1434h199l489 -1225l494 1225h196l-592 -1438h-192z" />
    <glyph glyph-name="W" unicode="W" horiz-adv-x="2211" 
d="M55 1434h201l395 -1186l398 1186h114l402 -1186l391 1186h203l-502 -1436h-178l-373 1073l-371 -1073h-180z" />
    <glyph glyph-name="X" unicode="X" horiz-adv-x="1302" 
d="M1049 1432h202v-7l-485 -694l514 -727v-4h-205l-424 602l-424 -602h-204v4l514 727l-486 694v7h207l393 -580z" />
    <glyph glyph-name="Y" unicode="Y" horiz-adv-x="1392" 
d="M602 582l-555 845v7h217l430 -680l441 680h217v-7l-566 -845v-582h-184v582z" />
    <glyph glyph-name="Z" unicode="Z" horiz-adv-x="1243" 
d="M104 1434h1059v-78l-850 -1184h850v-172h-1102v96l834 1172h-791v166z" />
    <glyph glyph-name="bracketleft" unicode="[" horiz-adv-x="675" 
d="M176 1458h426v-153h-254v-1502h254v-155h-426v1810z" />
    <glyph glyph-name="backslash" unicode="\" horiz-adv-x="1005" 
d="M778 -168l-727 1729h176l727 -1729h-176z" />
    <glyph glyph-name="bracketright" unicode="]" horiz-adv-x="677" 
d="M502 -350h-426v155h254v1502h-254v153h426v-1810z" />
    <glyph glyph-name="asciicircum" unicode="^" horiz-adv-x="1247" 
d="M102 735l-2 10l457 691h127l463 -691l-2 -10h-182l-342 525l-342 -525h-177z" />
    <glyph glyph-name="underscore" unicode="_" horiz-adv-x="1241" 
d="M139 -33h963v-149h-963v149z" />
    <glyph glyph-name="grave" unicode="`" horiz-adv-x="481" 
d="M231 1163l-204 264v7h204l154 -260v-11h-154z" />
    <glyph glyph-name="a" unicode="a" horiz-adv-x="1304" 
d="M989 0l-4 -4l-4 184q-56 -98 -160 -152q-103 -53 -213 -53q-222 0 -370 145t-148 386q0 239 149 382q147 142 371 140q118 0 219 -52q104 -53 156 -149l2 185h164v-1012h-162zM618 870l-2 -2q-154 0 -258 -101t-104 -267q0 -168 104 -269q105 -102 258 -102q100 0 180 41
q78 40 119 106q43 70 60 145q18 79 0 158q-17 73 -60 144q-40 66 -118 106q-79 41 -179 41z" />
    <glyph glyph-name="b" unicode="b" horiz-adv-x="1304" 
d="M322 1434v-607q51 99 157 151q105 52 221 52q225 0 369 -138q143 -137 143 -386q0 -243 -144 -384q-143 -140 -370 -140q-116 0 -218 51q-101 51 -158 151l-9 -184h-159v1434h168zM688 872q-152 0 -255 -102t-103 -262q0 -164 102 -266q103 -103 256 -103t255 99
q101 98 101 268q0 172 -101 269t-255 97z" />
    <glyph glyph-name="c" unicode="c" horiz-adv-x="1056" 
d="M997 135l-2 2q-155 -155 -377 -155q-226 0 -376 140q-152 141 -152 384q0 246 150 385q149 139 378 139q215 0 367 -151l-106 -111q-105 102 -256 102q-155 0 -259 -99t-104 -265q0 -169 104 -267t257 -98q159 0 264 107z" />
    <glyph glyph-name="d" unicode="d" horiz-adv-x="1302" 
d="M1147 1434l2 2v-1434h-158l-8 184q-60 -100 -161 -152t-218 -52q-224 0 -367 140q-145 142 -145 384q0 248 144 386t366 138q116 0 221 -52q108 -53 158 -151v607h166zM614 874h2q-154 0 -255 -97t-101 -269q0 -170 101 -268q102 -99 255 -99t256 103t103 266
q0 160 -104 262q-103 102 -257 102z" />
    <glyph glyph-name="e" unicode="e" horiz-adv-x="1200" 
d="M1061 162h-2q-72 -86 -193 -134q-117 -46 -243 -46q-238 0 -385 144q-148 145 -148 384q0 229 148 377q147 147 376 147q248 0 391 -152q144 -152 115 -442h-860q15 -138 117 -220q103 -83 250 -83q91 0 181 34q92 35 140 93zM961 582v-2q-6 143 -99 224q-91 79 -244 79
q-136 0 -237 -80q-100 -79 -121 -221h701z" />
    <glyph glyph-name="f" unicode="f" horiz-adv-x="782" 
d="M264 0l2 -2v854h-198v147h198v80q0 175 90 271t250 96q121 0 230 -74l-70 -125q-86 51 -156 51q-178 0 -178 -219v-80h318v-147h-318v-852h-168z" />
    <glyph glyph-name="g" unicode="g" horiz-adv-x="1251" 
d="M266 -170q0 -138 104 -207q106 -71 255 -72q146 0 252 59q104 58 104 181q0 118 -101 180q-104 64 -253 64q-242 0 -388 133q-147 134 -147 367q0 234 161 368q160 133 374 133q180 0 286 -75l109 131l119 -95l-115 -135q131 -148 131 -327q0 -137 -73 -253
q-72 -114 -212 -159q279 -83 279 -330q0 -186 -156 -291q-155 -104 -372 -104q-233 0 -378 116q-145 117 -141 316h162zM258 535q2 -169 107 -261q106 -92 264 -92q160 0 262 102t102 248q0 168 -107 259q-109 92 -259 92q-148 0 -258 -91q-111 -92 -111 -257z" />
    <glyph glyph-name="h" unicode="h" horiz-adv-x="1232" 
d="M319 1434v-2v-588q114 175 351 180q207 0 315 -126q109 -127 109 -341v-557h-166v555q0 149 -75 230t-212 81q-136 0 -228 -95q-91 -94 -91 -234v-537h-168v1434h165z" />
    <glyph glyph-name="i" unicode="i" horiz-adv-x="475" 
d="M129 1321q0 70 55 97q56 27 111 -1t55 -98t-55 -97q-56 -27 -111 1t-55 98zM154 1016v-1016h168v1016h-168z" />
    <glyph glyph-name="j" unicode="j" horiz-adv-x="475" 
d="M129 1327q0 70 55 97q56 27 111 -1t55 -98t-55 -97q-56 -27 -111 1t-55 98zM156 1014h-2v-1147q0 -107 -27 -159t-113 -54q-67 0 -137 35l-55 -135q98 -58 201 -58q162 0 231 94q69 95 68 277v1147h-166z" />
    <glyph glyph-name="k" unicode="k" horiz-adv-x="1015" 
d="M319 1434v-848l416 426h209v-11l-467 -466l524 -523v-12h-204l-478 477v-477h-165v1434h165z" />
    <glyph glyph-name="l" unicode="l" horiz-adv-x="499" 
d="M334 1434v-1434h-168v1434h168z" />
    <glyph glyph-name="m" unicode="m" horiz-adv-x="1884" 
d="M154 1012l2 -2h155l11 -148q44 86 123 125q82 41 176 41q114 0 206 -53q93 -54 134 -168q52 110 147 166q94 55 209 55q198 0 312 -121t114 -329v-578h-168v578q0 126 -71 209t-191 83q-124 0 -200 -85q-77 -86 -77 -212v-573h-168v573q0 128 -74 212q-75 85 -198 85
t-199 -85q-75 -84 -75 -212v-573h-168v1012z" />
    <glyph glyph-name="n" unicode="n" horiz-adv-x="1245" 
d="M154 1012v2h153l8 -162q129 176 347 176q196 0 320 -126q124 -125 124 -343v-559h-168v557q0 148 -82 231q-82 84 -225 84q-137 -2 -224 -96q-88 -96 -88 -233v-543h-165v1012z" />
    <glyph glyph-name="o" unicode="o" horiz-adv-x="1226" 
d="M88 504q0 233 149 382q148 148 375 148q232 0 379 -147q148 -148 148 -383q0 -229 -149 -376q-147 -146 -378 -146q-228 0 -375 146q-149 147 -149 376zM973 504q0 165 -103 271t-256 106q-155 0 -257 -105q-101 -104 -101 -272q0 -161 100 -262q101 -103 256 -103
q154 0 257 103q102 102 104 262z" />
    <glyph glyph-name="p" unicode="p" horiz-adv-x="1304" 
d="M154 -477v1485h159l9 -195q61 101 163 157q103 56 226 56q223 -5 362 -147q141 -144 141 -375q0 -239 -142 -382q-143 -145 -372 -145q-114 0 -221 52q-105 51 -162 153v-659h-163zM690 135q157 0 256 98q101 99 101 267q0 167 -100 265q-98 97 -257 97q-157 0 -256 -102
q-98 -101 -98 -260q0 -156 100 -259q101 -105 254 -106z" />
    <glyph glyph-name="q" unicode="q" horiz-adv-x="1302" 
d="M983 -477h4v659q-57 -100 -162 -151t-221 -51q-230 0 -372 144q-142 143 -142 384q0 231 141 375q139 142 363 147q122 0 225 -56q104 -56 164 -157l6 195h160v-1489h-166zM618 141l3 2q150 0 251 104t101 259q0 158 -99 260t-256 102q-159 0 -257 -97q-99 -97 -99 -265
q0 -167 100 -266t256 -99z" />
    <glyph glyph-name="r" unicode="r" horiz-adv-x="876" 
d="M309 1012l2 2l13 -152q90 168 311 168q132 4 235 -76l-75 -143q-79 55 -177 55q-123 -1 -210 -85q-86 -83 -86 -218v-563h-168v1012h155z" />
    <glyph glyph-name="s" unicode="s" horiz-adv-x="1021" 
d="M805 788l-2 -2q-108 99 -285 99q-111 2 -181 -37q-71 -39 -69 -111q1 -120 252 -149q36 -4 118 -17q42 -7 112 -29q61 -19 103 -53q38 -31 67 -85q28 -52 26 -125q-2 -145 -123 -225q-121 -79 -301 -79q-300 0 -452 191l96 117q128 -156 360 -156q102 0 177 37
q78 38 79 121q1 76 -68 110q-70 35 -204 51q-87 11 -148 27q-58 16 -124 47q-63 30 -98 85q-34 53 -34 132q0 102 64 172t153 99q86 28 193 26q235 0 385 -135z" />
    <glyph glyph-name="t" unicode="t" horiz-adv-x="813" 
d="M438 1307v-297h314v-144h-316v-534q0 -195 160 -195q68 0 141 37l49 -139q-104 -48 -196 -49q-160 -3 -240 83.5t-80 262.5v534h-202v144h202v278z" />
    <glyph glyph-name="u" unicode="u" horiz-adv-x="1247" 
d="M938 0h2l-8 162q-129 -174 -352 -178q-198 0 -319 126q-122 127 -122 343v559h168v-557q0 -149 82 -232q83 -84 225 -84q137 2 225 97q87 94 87 233v543h168v-1012h-156z" />
    <glyph glyph-name="v" unicode="v" horiz-adv-x="1148" 
d="M55 1012h185l163 -396l172 -438l170 436l164 398h185l-426 -1014h-185z" />
    <glyph glyph-name="w" unicode="w" horiz-adv-x="1718" 
d="M63 1012h187l272 -834l269 834h137l268 -834l272 834h185l-355 -1014h-192l-137 377l-109 368l-110 -368l-138 -377h-190z" />
    <glyph glyph-name="x" unicode="x" horiz-adv-x="1013" 
d="M33 4l364 514l-340 488v6h187l262 -383l258 383h192v-6l-344 -488l371 -514v-4h-192l-285 410l-287 -410h-186v4z" />
    <glyph glyph-name="y" unicode="y" horiz-adv-x="1128" 
d="M1077 1012l-639 -1489h-180l211 491l-408 998h191l199 -527l110 -288l109 286l223 529h184z" />
    <glyph glyph-name="z" unicode="z" horiz-adv-x="964" 
d="M98 1012h785v-76l-570 -774h570v-162h-820v66l574 792h-539v154z" />
    <glyph glyph-name="braceleft" unicode="{" horiz-adv-x="675" 
d="M600 -279l-2 -2q-203 -33 -287 42t-84 264v294q0 209 -153 209v129q153 0 153 209v283q0 189 87 265q88 77 284 40v-125q-117 22 -160 -18t-43 -168v-277q0 -49 -2 -89q-1 -28 -14 -74q-12 -43 -44 -69q-30 -24 -83 -40q56 -16 85 -41q32 -27 44 -71q13 -46 14 -72
q2 -38 2 -88v-289q0 -125 40 -162t163 -21v-129z" />
    <glyph glyph-name="bar" unicode="|" horiz-adv-x="518" 
d="M342 1487v-1698h-166v1698h166z" />
    <glyph glyph-name="braceright" unicode="}" horiz-adv-x="673" 
d="M76 -158v-4q124 -18 164 19q41 38 41 161v289q0 49 2 89q1 28 14 74q12 44 44 71q29 25 83 41q-44 12 -72 34q-27 21 -43 44q-13 18 -21 62q-6 33 -8 62q-1 15 -1 72v274q0 128 -43 168q-44 41 -160 19v127q196 37 283 -41t87 -266v-281q0 -209 154 -209v-127
q-154 0 -154 -209v-295q0 -188 -84 -263t-286 -42v131z" />
    <glyph glyph-name="asciitilde" unicode="~" horiz-adv-x="1302" 
d="M1036 739l127 -49q-51 -146 -151 -198q-102 -53 -248 6l-264 129q-39 13 -88 18q-40 5 -81 -30t-69 -107l-117 49q46 139 161 201q114 61 241 0l260 -127q153 -78 229 108z" />
    <glyph glyph-name="exclamdown" unicode="&#xa1;" horiz-adv-x="503" 
d="M367 885q0 -74 -60 -104q-59 -29 -119 1q-59 30 -59 105q0 73 59 103q58 29 119 -1q60 -30 60 -104zM342 -440v1104h-180v-1104h180z" />
    <glyph glyph-name="cent" unicode="&#xa2;" horiz-adv-x="1124" 
d="M557 -33h-2q-196 28 -321 167q-123 136 -123 349q0 205 123 344q125 142 323 172v134h158v-134q171 -24 299 -149l-105 -107q-114 109 -268 109t-258 -100t-104 -269q0 -170 103 -269q104 -99 259 -99q146 0 266 116l107 -120q-128 -124 -299 -146v-145h-158v147z" />
    <glyph glyph-name="sterling" unicode="&#xa3;" horiz-adv-x="1335" 
d="M119 166l4 -2q126 96 164 195q39 101 22 229h-188v151h155q-47 186 -47 271q0 211 140 325q141 115 364 115q210 0 341 -95q129 -94 134 -302h-159q-7 241 -316 241q-158 0 -245 -75q-89 -77 -89 -205q0 -72 41 -271h492v-151h-459q41 -283 -151 -434h897v-158h-1100v166
z" />
    <glyph glyph-name="currency" unicode="&#xa4;" horiz-adv-x="1239" 
d="M618 375q129 0 204 84t75 198q0 117 -75 202t-204 85q-128 0 -204 -85t-76 -202q0 -115 76 -198q76 -84 204 -84zM389 299l-121 -121l-123 123l121 119q-72 107 -70 237q2 132 72 236l-123 121l123 125l121 -123q100 61 232 61q127 0 227 -61l123 123l123 -125l-119 -119
q69 -107 68 -239t-70 -236l121 -119l-123 -123l-123 121q-94 -59 -230 -59q-129 0 -229 59z" />
    <glyph glyph-name="yen" unicode="&#xa5;" horiz-adv-x="1427" 
d="M301 430h320v117h-320v137h250l-490 743v7h205l443 -699l454 699h203v-7l-498 -743h252v-137h-325v-117h325v-135h-325v-295h-174v295h-320v135z" />
    <glyph glyph-name="brokenbar" unicode="&#xa6;" horiz-adv-x="532" 
d="M178 700v750h176v-750h-176zM354 565v-747h-176v747h176z" />
    <glyph glyph-name="section" unicode="&#xa7;" horiz-adv-x="1179" 
d="M913 1219h-4q-116 94 -307 94q-121 2 -203 -38q-84 -40 -82 -110q0 -120 281 -149q41 -3 129 -15q55 -7 125 -29q67 -21 112 -52q44 -30 71 -83q28 -55 24 -120q-4 -80 -58 -138q-51 -56 -137 -77q93 -28 145 -88q53 -62 48 -146q-1 -82 -49 -146q-45 -61 -121 -95
q-77 -35 -149 -49q-75 -15 -150 -15q-146 0 -275 50q-125 48 -198 149l112 112q131 -160 365 -155q110 0 199 39q88 39 92 116q2 73 -76 103q-81 31 -219 43q-93 6 -164 23q-75 18 -143 51q-70 34 -106 89q-38 58 -38 130q0 67 50 132q49 64 137 93q-90 24 -136 84t-45 141
q1 107 78 177q77 71 175 98q94 26 212 24q273 0 414 -147zM885 717v-2q0 57 -60 99q-59 41 -144 53q-83 12 -171 4q-87 -8 -145 -50q-60 -43 -60 -108q0 -58 60 -97q59 -39 144 -49q83 -10 171 -1q86 9 145 49q60 41 60 102z" />
    <glyph glyph-name="dieresis" unicode="&#xa8;" horiz-adv-x="983" 
d="M117 1366q0 68 54 96t110 1q55 -27 55 -95t-54 -95q-55 -28 -110 -1t-55 94zM588 1366q0 51 34 81t75 30t76 -30q34 -30 34 -81q0 -68 -55 -95q-56 -27 -110 0t-54 95z" />
    <glyph glyph-name="copyright" unicode="&#xa9;" horiz-adv-x="1703" 
d="M856 1466v-2q343 0 541 -214t198 -531q0 -319 -198 -533q-198 -215 -541 -215q-345 0 -546 215q-201 214 -201 533q0 317 201 532t546 215zM264 717q0 -261 160 -436t432 -175q270 0 427 174t157 437t-157 437q-156 173 -427 173q-273 0 -432 -174q-160 -175 -160 -436z
M1171 995l-6 9q-120 120 -286 120q-174 0 -291 -111t-117 -290q0 -176 117 -287q116 -110 293 -110q168 0 288 120l-98 99q-82 -82 -188 -82q-111 0 -188 72t-77 184q0 115 77 187q78 73 190 73q108 0 186 -78z" />
    <glyph glyph-name="ordfeminine" unicode="&#xaa;" horiz-adv-x="1030" 
d="M725 772l-2 -2l-2 115q-37 -61 -103 -94q-67 -34 -137 -35q-147 0 -243 93q-97 94 -97 255q0 160 98 252t246 92q72 0 138 -33q64 -32 102 -90v111h133v-664h-133zM494 1315l4 -2q-89 0 -150 -59q-59 -58 -59 -152q0 -95 59 -154t148 -59q77 0 132 44q54 44 66 106
q12 63 0 125q-12 64 -66 107q-55 44 -134 44zM170 645h702v-133h-702v133z" />
    <glyph glyph-name="guillemotleft" unicode="&#xab;" horiz-adv-x="915" 
d="M373 1059h180l-281 -451l281 -452h-180l-283 452zM358 608l283 451h180l-280 -451l280 -452h-180z" />
    <glyph glyph-name="logicalnot" unicode="&#xac;" horiz-adv-x="1062" 
d="M903 336h-153v270h-600v154h753v-424z" />
    <glyph glyph-name="uni00AD" unicode="&#xad;" horiz-adv-x="991" 
d="M98 668h733v-160h-733v160z" />
    <glyph glyph-name="registered" unicode="&#xae;" horiz-adv-x="1695" 
d="M848 1462q344 0 542 -214q197 -213 197 -533t-197 -533q-198 -215 -542 -215q-343 0 -541 215q-198 214 -198 533t198 533t541 214zM264 715v4q0 -263 157 -437q156 -173 427 -173q270 0 428 173t158 435q0 263 -157 437q-156 173 -429 173q-272 0 -428 -173
q-156 -172 -156 -439zM989 627v-2q106 18 158 97q53 80 44 165q-9 84 -82 154q-72 69 -191 69h-353v-768h142v266h133l213 -266h155v29zM707 977h211q47 0 82 -26q34 -25 41 -62q7 -35 -1 -73q-7 -35 -42 -61t-85 -26h-206v248z" />
    <glyph glyph-name="macron" unicode="&#xaf;" horiz-adv-x="862" 
d="M72 1438h684v-146h-684v146z" />
    <glyph glyph-name="degree" unicode="&#xb0;" horiz-adv-x="677" 
d="M352 1372q-76 0 -108 -59t-2 -120q30 -60 110 -60q77 0 107 60t-1 120q-31 59 -106 59zM354 1477q87 0 146 -46q58 -45 73 -112q15 -64 1 -131t-72 -112q-59 -46 -146 -46q-92 0 -153 46q-62 47 -75 112q-13 64 2 131q15 64 76 112q59 46 148 46z" />
    <glyph glyph-name="plusminus" unicode="&#xb1;" horiz-adv-x="1085" 
d="M145 840h316v321h164v-321h315v-156h-315v-324h-164v324h-316v156zM154 225h780v-155h-780v155z" />
    <glyph glyph-name="twosuperior" unicode="&#xb2;" horiz-adv-x="745" 
d="M90 1374l2 -2q0 117 83 171q82 54 200 54q127 0 209 -54t82 -175q0 -54 -20 -97t-46 -66q-25 -23 -70 -38q-42 -15 -72 -19q-31 -5 -73 -9q-162 -15 -162 -117v-43h432v-133h-569v178q0 110 75 162t189 63q178 15 178 121q0 111 -153 111q-150 0 -152 -107h-133z" />
    <glyph glyph-name="threesuperior" unicode="&#xb3;" horiz-adv-x="745" 
d="M211 1063h-4q11 -102 158 -102q161 0 161 108q0 41 -38 74t-117 33h-115v110h106q153 0 154 98q0 37 -38 69t-113 32q-149 0 -160 -107h-121q0 111 82 165q83 54 196 54q118 0 201 -55q84 -56 84 -160q0 -54 -29 -98q-27 -42 -79 -57q58 -16 93 -63q34 -46 34 -95
q0 -122 -89 -178q-88 -55 -215 -55q-121 0 -204 55q-85 56 -86 172h139z" />
    <glyph glyph-name="acute" unicode="&#xb4;" horiz-adv-x="473" 
d="M41 1163v11l152 260h206v-7l-204 -264h-154z" />
    <glyph glyph-name="_181" unicode="&#xb5;" horiz-adv-x="1255" 
d="M1075 0h-147l-15 125q-43 -82 -136 -127q-94 -45 -187 -41q-102 0 -191 39t-123 127v-578h-155v1467h166v-596q0 -142 94 -226q95 -85 217 -86q125 0 218 87t93 251v570h166v-1012z" />
    <glyph glyph-name="paragraph" unicode="&#xb6;" horiz-adv-x="1660" 
d="M731 1272v-1714h-168v821q-234 10 -365 165q-130 153 -128 359q2 217 142 372q142 157 386 157h993v-160h-205v-1712h-163v1712h-492z" />
    <glyph glyph-name="periodcentered" unicode="&#xb7;" horiz-adv-x="512" 
d="M141 580q0 70 58 101q57 30 114 0q58 -31 58 -101q0 -71 -58 -102q-57 -30 -114 0q-58 31 -58 102z" />
    <glyph glyph-name="cedilla" unicode="&#xb8;" horiz-adv-x="686" 
d="M182 -139l-6 -2l53 186h125l-28 -113q123 2 172 -65q48 -66 30 -154q-18 -81 -88 -125q-67 -43 -155 -41q-163 5 -232 121l80 72q53 -77 152 -72q93 0 114 70q18 59 -40 93q-57 33 -142 3z" />
    <glyph glyph-name="onesuperior" unicode="&#xb9;" horiz-adv-x="522" 
d="M76 963h129v471l-111 -29v119l246 59v-620h131v-117h-395v117z" />
    <glyph glyph-name="ordmasculine" unicode="&#xba;" horiz-adv-x="987" 
d="M494 754q-152 0 -251 93q-100 94 -100 255q0 162 99 253q98 91 250 91q151 0 249 -91q99 -91 99 -251q0 -161 -100 -256q-98 -94 -246 -94zM494 889q92 0 149 58q57 59 57 155t-60 156q-61 61 -148 61q-88 0 -147 -61q-58 -59 -58 -154q0 -97 56 -156t151 -59zM164 631
h665v-133h-665v133z" />
    <glyph glyph-name="guillemotright" unicode="&#xbb;" horiz-adv-x="915" 
d="M274 160h-178l279 450l-279 451h178l283 -451zM825 610l-282 -450h-178l278 450l-278 451h178z" />
    <glyph glyph-name="onequarter" unicode="&#xbc;" horiz-adv-x="1529" 
d="M285 -4l772 1448h160l-777 -1448h-155zM98 817h129v469l-110 -26v118l245 60v-621h132v-117h-396v117zM1370 739v-469h88v-120h-88v-148h-131v148h-393l-8 110l354 479h178zM1239 270v340l-254 -340h254z" />
    <glyph glyph-name="onehalf" unicode="&#xbd;" horiz-adv-x="1630" 
d="M281 -4l774 1448h159l-776 -1448h-157zM98 817h127v471l-110 -26v118l247 60v-623h132v-117h-396v117zM969 524h2q0 117 83 171q84 55 199 55q124 0 209 -54q82 -52 82 -174q0 -59 -20 -99q-22 -44 -46 -64q-26 -21 -72 -36q-50 -16 -72 -20q-15 -3 -72 -10
q-158 -15 -158 -117v-53h426v-125h-563v178q0 106 71 158q73 54 179 61q90 7 141 35q49 27 49 90q0 111 -156 111q-149 0 -149 -107h-133z" />
    <glyph glyph-name="threequarters" unicode="&#xbe;" horiz-adv-x="1599" 
d="M264 1047l-4 2v108h105q149 0 149 96q0 35 -38 67t-111 32q-147 0 -154 -105h-119q0 107 81 160q82 53 194 53q111 0 194 -54q82 -54 84 -155q0 -55 -29 -96q-28 -40 -77 -55q57 -15 90 -60t33 -94q0 -120 -87 -175q-85 -54 -208 -54q-115 0 -197 54t-84 167h133
q10 -100 154 -100q157 0 157 106q0 40 -37 71q-38 32 -116 32h-113zM381 -4l774 1450h160l-778 -1450h-156zM1442 741v-469h86v-120h-86v-148h-131v148h-393l-9 110l355 479h178zM1311 272v340l-254 -340h254z" />
    <glyph glyph-name="questiondown" unicode="&#xbf;" horiz-adv-x="1232" 
d="M784 922q0 -74 -58 -104t-117 0q-58 30 -58 104q0 73 58 103q59 30 117 0t58 -103zM1171 8l-2 -2q0 -146 -82 -246q-83 -101 -200 -141q-119 -41 -264 -39q-106 0 -205 22q-93 21 -174 68q-80 46 -126 132q-46 85 -46 200q0 41 7 75q7 32 15 62q7 26 28 55q26 36 32 45
q11 16 41 40q6 5 41 31q15 11 47 28q9 5 19.5 10t16 8t7.5 4q8 4 45 21t39 18q106 39 138 94t32 195h178q0 -201 -63 -291q-64 -91 -214 -143q-56 -24 -84 -38q-31 -16 -68 -45q-38 -30 -56 -71q-17 -38 -17 -98q0 -260 369 -260q88 0 166 24t137 86q60 62 61 156h182z" />
    <glyph glyph-name="Agrave" unicode="&#xc0;" horiz-adv-x="1556" 
d="M496 1845v6h206l152 -260v-10h-154zM678 1434h201l643 -1434h-193l-141 315h-819l-140 -315h-194zM1118 479l-340 774l-340 -774h680z" />
    <glyph glyph-name="Aacute" unicode="&#xc1;" horiz-adv-x="1556" 
d="M690 1589l154 262h205v-6l-205 -266h-154v10zM678 1434h201l643 -1434h-193l-141 315h-819l-140 -315h-194zM1118 479l-340 774l-340 -774h680z" />
    <glyph glyph-name="Acircumflex" unicode="&#xc2;" horiz-adv-x="1556" 
d="M723 1835h106l297 -276v-15h-174l-176 164l-176 -164h-174v15zM678 1434h201l643 -1434h-193l-141 315h-819l-140 -315h-194zM1118 479l-340 774l-340 -774h680z" />
    <glyph glyph-name="Atilde" unicode="&#xc3;" horiz-adv-x="1556" 
d="M469 1638l2 2q23 93 92 135t156 11q15 -6 57 -28q44 -23 55 -25q86 -30 119 55l113 -47q-24 -103 -96 -142q-71 -38 -150 -8q-14 5 -59 30q-48 26 -56 28q-84 34 -122 -62zM678 1434h201l643 -1434h-193l-141 315h-819l-140 -315h-194zM1118 479l-340 774l-340 -774h680z
" />
    <glyph glyph-name="Adieresis" unicode="&#xc4;" horiz-adv-x="1556" 
d="M651 1671q0 -67 -55 -94t-110 1q-54 27 -54 95t54 95t110 0q55 -27 55 -97zM1122 1671q0 -68 -55 -95q-56 -27 -110 0t-54 95q0 51 34 81q35 30 76 30t76 -30q33 -29 33 -81zM678 1434h201l643 -1434h-193l-141 315h-819l-140 -315h-194zM1118 479l-340 774l-340 -774
h680z" />
    <glyph glyph-name="Aring" unicode="&#xc5;" horiz-adv-x="1556" 
d="M674 1421q-135 51 -135 201q0 105 71 163t170 58q98 0 169 -58q73 -59 73 -163q0 -152 -139 -201l639 -1421h-189l-143 315h-823l-140 -315h-192zM776 1737h4q-75 0 -106 -58q-30 -57 0 -113q30 -57 104 -57q78 0 110 57q31 57 -1 113q-34 58 -111 58zM1120 485l-338 793
l-338 -793h676z" />
    <glyph glyph-name="AE" unicode="&#xc6;" horiz-adv-x="1886" 
d="M854 1434h903v-170h-680v-461h647v-168h-647v-461h699v-174h-869v410h-485l-248 -410h-209zM907 571v523l2 143l-387 -666h385z" />
    <glyph glyph-name="Ccedilla" unicode="&#xc7;" horiz-adv-x="1454" 
d="M850 -125l4 4q123 2 172 -65t31 -154q-18 -82 -87 -126q-70 -44 -155 -44q-70 0 -137 32q-66 31 -100 91l81 72q53 -79 152 -74q92 5 113 70q18 59 -41 93t-146 3l-32 26l51 181q-213 21 -362 127q-150 106 -219 260q-70 154 -71 338q-1 196 78 362t254 276
q173 109 416 109q304 0 524 -215l-123 -115q-163 160 -401 160q-274 0 -423 -168q-148 -167 -146 -407q5 -239 149 -401q145 -163 420 -163q242 0 408 166l124 -123q-205 -205 -507 -215z" />
    <glyph glyph-name="Egrave" unicode="&#xc8;" horiz-adv-x="1333" 
d="M463 1862v4h207l151 -260v-11h-153zM190 0v1434h1008v-164h-831v-449h796v-166h-796v-485h864v-170h-1041z" />
    <glyph glyph-name="Eacute" unicode="&#xc9;" horiz-adv-x="1333" 
d="M592 1585l153 260h207v-6l-207 -264h-153v10zM190 0v1434h1008v-164h-831v-449h796v-166h-796v-485h864v-170h-1041z" />
    <glyph glyph-name="Ecircumflex" unicode="&#xca;" horiz-adv-x="1333" 
d="M664 1866h106l297 -275v-14h-174l-176 162l-174 -162h-174v14zM190 0v1434h1008v-164h-831v-449h796v-166h-796v-485h864v-170h-1041z" />
    <glyph glyph-name="Edieresis" unicode="&#xcb;" horiz-adv-x="1333" 
d="M375 1694q0 68 54 96t110 1q55 -27 55 -95t-55 -95q-58 -28 -110 -2q-54 27 -54 95zM846 1694q0 51 34 81q33 29 75 29q43 0 76 -29q34 -30 34 -81q0 -69 -55 -96q-56 -27 -110 0t-54 96zM190 0v1434h1008v-164h-831v-449h796v-166h-796v-485h864v-170h-1041z" />
    <glyph glyph-name="Igrave" unicode="&#xcc;" horiz-adv-x="561" 
d="M371 1591v-10h-156l-205 264v6h207zM190 0v1434h181v-1434h-181z" />
    <glyph glyph-name="Iacute" unicode="&#xcd;" horiz-adv-x="561" 
d="M195 1589l153 260h207v-6l-207 -264h-153v10zM371 0v1434h-181v-1434h181z" />
    <glyph glyph-name="Icircumflex" unicode="&#xce;" horiz-adv-x="561" 
d="M227 1843h103l280 -274v-15h-168l-163 162l-162 -162h-170v15zM190 1434h181v-1434h-181v1434z" />
    <glyph glyph-name="Idieresis" unicode="&#xcf;" horiz-adv-x="561" 
d="M-20 1675q0 52 33 81q35 30 76 30t76 -30q34 -30 34 -81q0 -67 -55 -95q-54 -27 -109 0t-55 95zM358 1673q0 67 55 96q53 28 109 1t56 -95q0 -67 -55 -95q-55 -27 -109 -1q-56 27 -56 94zM371 -2v1434h-181v-1434h181z" />
    <glyph glyph-name="Eth" unicode="&#xd0;" horiz-adv-x="1544" 
d="M61 786h142v648h504q345 0 538 -202q192 -202 197 -493q2 -146 -43 -275q-45 -131 -132 -236t-233 -167q-144 -61 -327 -61h-504v627h-142v159zM707 170q269 0 413 163q143 163 142 402q-5 232 -148 381q-144 150 -407 150h-326v-480h307v-159h-307v-457h326z" />
    <glyph glyph-name="Ntilde" unicode="&#xd1;" horiz-adv-x="1560" 
d="M518 1640h-6q23 93 92 135t156 11q8 -1 56 -26q46 -24 56 -25q87 -31 117 55l113 -49q-22 -101 -93 -138q-71 -38 -147 -8q-7 2 -58 29q-51 26 -56 27q-86 35 -121 -60zM190 1434h125l875 -1086v1086h180v-1434h-123l-872 1079v-1079h-185v1434z" />
    <glyph glyph-name="Ograve" unicode="&#xd2;" horiz-adv-x="1656" 
d="M575 1866v6h207l152 -260v-10h-154zM831 1458q344 -2 536 -221q191 -217 189 -524q0 -146 -46 -275q-47 -132 -133 -236q-87 -105 -228 -168t-320 -63q-177 0 -320 63q-142 63 -229 168q-88 106 -134 235t-46 276q0 318 200 532q200 213 531 213zM1378 711l2 2
q2 153 -55 279q-57 128 -185 214q-129 87 -306 88q-263 0 -410 -168q-147 -169 -143 -413q5 -237 145 -404q141 -168 405 -168q265 0 406 168t141 402z" />
    <glyph glyph-name="Oacute" unicode="&#xd3;" horiz-adv-x="1658" 
d="M745 1606l152 262h207v-6l-205 -267h-154v11zM831 1458q-331 0 -531 -213q-200 -214 -200 -532q0 -148 46 -277q46 -130 134 -236q87 -105 229 -168q143 -63 320 -63q179 0 320 63t228 168q86 104 133 236q48 133 49 275q2 308 -190 526q-192 220 -538 221zM281 711
l-2 -2q-4 244 143 413q147 168 409 168q264 -1 407 -172q142 -168 140 -407q-1 -235 -143 -404q-141 -168 -406 -168q-264 0 -405 168q-142 169 -143 404z" />
    <glyph glyph-name="Ocircumflex" unicode="&#xd4;" horiz-adv-x="1656" 
d="M795 1882h106l297 -276v-13h-174l-176 162l-176 -162h-174v13zM100 713q0 318 200 532q200 213 531 213q344 -2 536 -221q191 -217 189 -524q0 -146 -46 -275q-47 -132 -133 -236q-87 -105 -228 -168t-320 -63q-177 0 -320 63q-142 63 -229 168q-88 106 -134 235t-46 276
zM1378 711l2 2q2 153 -55 279q-57 128 -185 214q-129 87 -306 88q-263 0 -410 -168q-147 -169 -143 -413q5 -237 145 -404q141 -168 405 -168q265 0 406 168t141 402z" />
    <glyph glyph-name="Otilde" unicode="&#xd5;" horiz-adv-x="1656" 
d="M549 1663h-4q23 92 91 134q68 41 155 11q10 -1 56 -25q48 -25 56 -26q87 -31 117 58l113 -50q-22 -100 -94 -138q-70 -37 -146 -7q-9 1 -58 28q-46 25 -59 27q-86 30 -119 -61zM100 713q0 318 200 532q200 213 531 213q344 -2 536 -221q191 -217 189 -524
q0 -146 -46 -275q-47 -132 -133 -236q-87 -105 -228 -168t-320 -63q-177 0 -320 63q-142 63 -229 168q-88 106 -134 235t-46 276zM1378 711l2 2q2 153 -55 279q-57 128 -185 214q-129 87 -306 88q-263 0 -410 -168q-147 -169 -143 -413q5 -237 145 -404q141 -168 405 -168
q265 0 406 168t141 402z" />
    <glyph glyph-name="Odieresis" unicode="&#xd6;" horiz-adv-x="1658" 
d="M506 1698q0 51 34 81q33 29 75 29q43 0 76 -29q34 -30 34 -81q0 -68 -55 -95q-56 -27 -110 0t-54 95zM973 1696q0 70 54 97t110 0q55 -27 55 -95t-55 -95q-57 -28 -110 -1q-54 27 -54 94zM831 1456q-331 0 -531 -213q-200 -214 -200 -532q0 -148 46 -277
q46 -130 134 -236q87 -105 229 -168q143 -63 320 -63q179 0 320 63t228 168q86 104 133 236q48 133 49 275q2 308 -190 526q-192 220 -538 221zM281 709l-2 -2q-4 244 143 413q147 168 409 168q264 -1 407 -172q142 -168 140 -407q-1 -235 -143 -404q-141 -168 -406 -168
q-264 0 -405 168q-142 169 -143 404z" />
    <glyph glyph-name="multiply" unicode="&#xd7;" horiz-adv-x="942" 
d="M244 991l225 -227l227 227l109 -106l-232 -234l236 -233l-107 -103l-231 234l-231 -234l-111 109l233 233l-229 228z" />
    <glyph glyph-name="Oslash" unicode="&#xd8;" horiz-adv-x="1658" 
d="M395 100v2q-143 99 -218 264q-75 164 -75 349q0 146 46 277q47 134 135 238q89 105 229 168q139 62 319 62q176 0 318 -65l96 168h180l-145 -244q135 -102 207 -263q72 -160 72 -343q0 -143 -47 -275t-133 -236q-87 -105 -228 -168t-320 -63q-165 0 -303 56l-106 -183
h-176zM1061 1249q-102 45 -227 45q-268 0 -412 -171q-143 -170 -139 -410q0 -136 52 -256q53 -123 150 -199zM616 178q100 -35 218 -35q264 0 405 168t141 402q0 291 -188 454z" />
    <glyph glyph-name="Ugrave" unicode="&#xd9;" horiz-adv-x="1517" 
d="M520 1855v7h207l152 -260v-11h-154zM1341 1434l2 -2v-861q0 -285 -166 -441q-168 -157 -415 -157q-246 0 -417 156t-171 442v861h180v-861q0 -205 117 -317q118 -113 291 -113q171 0 286 115q113 113 113 317v861h180z" />
    <glyph glyph-name="Uacute" unicode="&#xda;" horiz-adv-x="1519" 
d="M662 1602l151 260h207v-7l-205 -264h-153v11zM1165 1434l-4 -2v-861q0 -203 -113 -316q-114 -114 -286 -114q-173 0 -291 113q-117 113 -117 319v861h-180v-861q0 -192 85 -331q86 -140 216 -203q133 -64 289 -64q247 0 415 157q167 156 167 441v861h-181z" />
    <glyph glyph-name="Ucircumflex" unicode="&#xdb;" horiz-adv-x="1515" 
d="M707 1870h108l295 -275v-14h-174l-176 162l-174 -162h-174v14zM1341 573l2 -2q0 -285 -166 -441q-168 -157 -415 -157q-246 0 -417 156t-171 442v861h180v-861q0 -205 117 -317q118 -113 291 -113q171 0 286 115q113 113 113 317v861h180v-861z" />
    <glyph glyph-name="Udieresis" unicode="&#xdc;" horiz-adv-x="1519" 
d="M428 1692q0 51 34 81q33 29 76 29q42 0 75 -29q34 -30 34 -81q0 -69 -55 -96q-56 -27 -110 0t-54 96zM897 1690q0 68 55 96t110 1q54 -27 54 -95q0 -69 -54 -96q-55 -28 -110 -1t-55 95zM1165 1430l-4 -3v-858q0 -203 -113 -316q-114 -114 -286 -114q-173 0 -291 113
q-117 112 -117 319v859h-180v-859q0 -192 85 -331q86 -140 216 -203q133 -64 289 -64q247 0 415 157q167 156 167 441v859h-181z" />
    <glyph glyph-name="Yacute" unicode="&#xdd;" horiz-adv-x="1392" 
d="M592 1595l153 260h205v-4l-205 -266h-153v10zM786 0v582l566 845v7h-217l-441 -680l-430 680h-217v-7l555 -845v-582h184z" />
    <glyph glyph-name="Thorn" unicode="&#xde;" horiz-adv-x="1400" 
d="M190 0h3v1432h176v-242h473q106 0 194 -33q89 -33 146 -87q58 -55 98 -126q42 -74 49 -149q8 -80 -1 -157q-9 -80 -49 -151q-41 -73 -97 -126t-147 -87q-86 -32 -195 -32h-471v-242h-179zM842 406q88 0 153 33q69 36 103 88q34 54 51 120t0 132q-17 68 -51 121
q-34 52 -103 88q-67 34 -153 34h-471v-616h471z" />
    <glyph glyph-name="germandbls" unicode="&#xdf;" horiz-adv-x="1251" 
d="M154 1057v2q0 193 132 296q131 103 320 103q198 0 328 -97q131 -98 131 -286q0 -101 -60 -177q-60 -77 -163 -101q162 -37 242 -144q79 -106 79 -245q0 -116 -41 -204q-41 -87 -110 -137q-71 -51 -160 -73q-93 -23 -189 -16q-102 8 -200 40v154q221 -83 375 -13
q153 69 153 240q0 165 -111 238q-112 74 -274 74h-139v155h131q68 0 132 16q61 15 112 63t51 126q2 125 -82 177q-83 52 -201 52q-138 0 -208 -64q-69 -64 -74 -179l2 -1057h-176v1057z" />
    <glyph glyph-name="agrave" unicode="&#xe0;" horiz-adv-x="1304" 
d="M391 1446v4h207l154 -260v-10h-154zM989 0l-4 -4l-4 184q-56 -98 -160 -152q-103 -53 -213 -53q-222 0 -370 145t-148 386q0 239 149 382q147 142 371 140q118 0 219 -52q104 -53 156 -149l2 185h164v-1012h-162zM618 870l-2 -2q-154 0 -258 -101t-104 -267
q0 -168 104 -269q105 -102 258 -102q100 0 180 41q78 40 119 106q43 70 60 145q18 79 0 158q-17 73 -60 144q-40 66 -118 106q-79 41 -179 41z" />
    <glyph glyph-name="aacute" unicode="&#xe1;" horiz-adv-x="1302" 
d="M512 1190l154 260h204v-6l-204 -264h-154v10zM1149 0v4v1012h-164l-2 -185q-53 96 -155 149q-101 52 -218 52q-223 0 -371 -142q-149 -143 -149 -382q0 -241 148 -386q146 -144 370 -142q114 0 215 52q104 54 160 152l4 -184h162zM621 879l-3 2q100 0 180 -41
q79 -40 120 -107q42 -68 59 -144q18 -79 0 -158q-17 -76 -59 -144q-41 -66 -119 -107q-79 -41 -178 -41q-153 0 -259 103q-104 101 -104 268q0 166 104 267q105 102 259 102z" />
    <glyph glyph-name="acircumflex" unicode="&#xe2;" horiz-adv-x="1304" 
d="M301 1174l297 276h107l296 -276v-15h-174l-176 164l-176 -164h-174v15zM989 0l-4 -4l-4 184q-56 -98 -160 -152q-103 -53 -213 -53q-222 0 -370 145t-148 386q0 239 149 382q147 142 371 140q118 0 219 -52q104 -53 156 -149l2 185h164v-1012h-162zM618 870l-2 -2
q-154 0 -258 -101t-104 -267q0 -168 104 -269q105 -102 258 -102q100 0 180 41q78 40 119 106q43 70 60 145q18 79 0 158q-17 73 -60 144q-40 66 -118 106q-79 41 -179 41z" />
    <glyph glyph-name="atilde" unicode="&#xe3;" horiz-adv-x="1304" 
d="M360 1290v-4q23 92 92 134t154 12q9 -1 57 -26t56 -26q87 -31 117 58l110 -47q-23 -102 -93 -139t-148 -7q-17 6 -60 30q-49 27 -57 28q-86 30 -119 -62zM989 -4l-4 -4l-4 184q-56 -98 -160 -152q-103 -53 -213 -53q-222 0 -370 145t-148 386q0 239 149 382
q147 142 371 140q118 0 219 -52q104 -53 156 -149l2 185h164v-1012h-162zM618 866l-2 -2q-154 0 -258 -101t-104 -267q0 -168 104 -269q105 -102 258 -102q100 0 180 41q78 40 119 106q43 70 60 145q18 79 0 157q-17 75 -60 145q-40 66 -118 106q-79 41 -179 41z" />
    <glyph glyph-name="adieresis" unicode="&#xe4;" horiz-adv-x="1302" 
d="M319 1356q0 51 34 81q33 29 76 29t76 -29q34 -30 34 -81q0 -68 -55 -95q-54 -27 -109 0q-56 27 -56 95zM791 1354q0 68 55 96t109 1q55 -27 55 -95t-55 -95t-109 -1q-55 27 -55 94zM1149 -2v2v1010h-164l-2 -183q-53 96 -155 149q-101 52 -218 52q-223 0 -371 -142
q-149 -143 -149 -380q0 -241 148 -386q148 -144 370 -143q112 0 215 53q104 54 160 152l4 -184h162zM621 874h-3q101 0 180 -40t120 -107q42 -68 59 -144q18 -79 0 -158q-17 -76 -59 -144q-41 -66 -119 -107q-79 -41 -178 -41q-153 0 -259 104q-104 103 -104 269t104 267
t259 101z" />
    <glyph glyph-name="aring" unicode="&#xe5;" horiz-adv-x="1304" 
d="M410 1356h-2q0 97 69 154t166 57q95 0 168 -56q72 -55 72 -155q0 -99 -70 -157q-68 -56 -170 -56t-167 56q-66 57 -66 157zM639 1464h2q-73 0 -103 -54t0 -107q31 -54 103 -54q78 0 109 54t-2 107q-33 54 -109 54zM989 0l-4 -4l-4 184q-56 -98 -160 -152
q-103 -53 -213 -53q-222 0 -370 145t-148 386q0 239 149 382q147 142 371 140q118 0 219 -52q104 -53 156 -149l2 185h164v-1012h-162zM618 870l-2 -2q-154 0 -258 -101t-104 -267q0 -168 104 -269q105 -102 258 -102q100 0 180 41q78 40 119 106q43 70 60 145q18 79 0 158
q-17 73 -60 144q-40 66 -118 106q-79 41 -179 41z" />
    <glyph glyph-name="ae" unicode="&#xe6;" horiz-adv-x="2074" 
d="M983 0l2 -6v184q-56 -99 -161 -152q-104 -53 -216 -53q-222 0 -370 145t-148 386q0 239 149 382q147 142 369 140q119 0 222 -52q105 -53 157 -149l2 185h131v-174q134 198 385 194q107 0 203 -39t168 -111q70 -70 104 -188q34 -116 13 -254h-858q15 -139 115 -220
q103 -83 249 -83q91 0 181 34q93 35 141 93l110 -102q-72 -87 -192 -134q-117 -46 -244 -46q-261 0 -379 192l-4 -172h-129zM1835 575l-2 -2q-6 145 -98 225q-91 79 -242 79q-137 0 -237 -80q-98 -78 -119 -222h698zM619 866l-1 -2q-154 0 -258 -101t-104 -267
q0 -168 104 -269q105 -102 258 -102q103 0 183 41q81 41 121 106q41 66 60 145t0 157q-19 79 -60 145q-40 65 -121 106q-80 41 -182 41z" />
    <glyph glyph-name="ccedilla" unicode="&#xe7;" horiz-adv-x="1060" 
d="M999 135v2q-151 -151 -368 -155l-25 -88q123 1 171 -65t30 -153q-18 -77 -84 -119q-67 -43 -150 -44q-75 -2 -140 28q-67 30 -101 90l80 72q51 -72 149 -72q95 0 113 66q18 59 -40 93q-57 33 -142 3l-35 27l49 172q-185 33 -299 167q-115 135 -115 347q0 246 150 385
q149 139 379 139q214 0 366 -151l-106 -111q-105 102 -256 102q-155 0 -259 -99t-104 -265q0 -169 104 -267t257 -98q159 0 264 107z" />
    <glyph glyph-name="egrave" unicode="&#xe8;" horiz-adv-x="1200" 
d="M385 1442v4h207l151 -260v-10h-153zM1061 162h-2q-72 -86 -193 -134q-117 -46 -243 -46q-238 0 -385 144q-148 145 -148 384q0 229 148 377q147 147 376 147q248 0 391 -152q144 -152 115 -442h-856q15 -138 115 -220q101 -83 248 -83q91 0 181 34q92 35 140 93zM961 582
v-2q-6 143 -99 224q-91 79 -244 79q-135 0 -235 -80q-98 -79 -119 -221h697z" />
    <glyph glyph-name="eacute" unicode="&#xe9;" horiz-adv-x="1198" 
d="M508 1188l151 260h207v-4l-204 -266h-154v10zM1118 440v-4q28 291 -116 444q-143 152 -390 152q-227 0 -374 -147q-148 -148 -148 -377q0 -239 148 -384q147 -144 385 -144q126 0 243 46q121 48 193 134l-113 102q-48 -58 -140 -93q-90 -34 -181 -34q-147 0 -248 83
q-100 82 -115 222h856zM264 578v2q21 142 119 221q100 80 235 80q153 0 244 -79q93 -81 99 -224h-697z" />
    <glyph glyph-name="ecircumflex" unicode="&#xea;" horiz-adv-x="1200" 
d="M281 1171l297 275h106l297 -275v-14h-174l-176 162l-176 -162h-174v14zM1061 162h-2q-72 -86 -193 -134q-117 -46 -243 -46q-238 0 -385 144q-148 145 -148 384q0 229 148 377q147 147 376 147q248 0 391 -152q144 -152 115 -442h-856q15 -138 115 -220q101 -83 248 -83
q91 0 181 34q92 35 140 93zM961 582v-2q-6 143 -99 224q-91 79 -244 79q-135 0 -235 -80q-98 -79 -119 -221h697z" />
    <glyph glyph-name="edieresis" unicode="&#xeb;" horiz-adv-x="1198" 
d="M303 1333q0 69 54 97t110 1q55 -27 55 -96q0 -68 -54 -95q-55 -28 -110 -1t-55 94zM739 1333q0 51 34 81q35 30 76 30t76 -30q33 -29 33 -81q0 -68 -55 -95t-109 0q-55 28 -55 95zM1118 436v-4q28 291 -116 444q-143 152 -390 152q-227 0 -374 -147q-148 -148 -148 -377
q0 -239 148 -384t385 -145q123 0 243 47q121 48 193 134l-113 104q-48 -58 -140 -93q-90 -34 -181 -34q-147 0 -248 83q-100 82 -115 220h856zM264 575q21 144 119 222q100 80 235 80q153 0 244 -79q93 -81 99 -223h-697z" />
    <glyph glyph-name="igrave" unicode="&#xec;" horiz-adv-x="479" 
d="M43 1427v7h184l103 -265v-10h-144zM154 997h172v-997h-172v997z" />
    <glyph glyph-name="iacute" unicode="&#xed;" horiz-adv-x="481" 
d="M152 1169l102 265h182v-7l-141 -268h-143v10zM328 0v997h-174v-997h174z" />
    <glyph glyph-name="icircumflex" unicode="&#xee;" horiz-adv-x="481" 
d="M-25 1169l232 269h88l225 -269v-14h-147l-123 152l-125 -152h-150v14zM154 997h174v-997h-174v997z" />
    <glyph glyph-name="idieresis" unicode="&#xef;" horiz-adv-x="481" 
d="M-20 1331q0 66 53 93t106 0q54 -28 54 -93t-54 -93q-53 -27 -106 0t-53 93zM305 1331q0 66 53 93q53 28 107 0q53 -27 53 -93t-53 -93q-54 -27 -107 0t-53 93zM328 2v997h-174v-997h174z" />
    <glyph glyph-name="eth" unicode="&#xf0;" horiz-adv-x="1230" 
d="M612 131q166 0 262 107q97 108 97 251q0 142 -97 250q-96 107 -262 107t-258 -106t-92 -251q0 -144 92 -251t258 -107zM559 989q236 17 383 -143q-62 184 -291 321l-76 -98l-90 59l70 97q-73 40 -193 69l37 138q142 -33 252 -89l92 123l93 -63l-86 -115
q378 -274 383 -772q1 -239 -140 -388q-141 -148 -381 -148q-248 0 -385 150q-137 151 -137 357q0 194 123 341q122 146 346 161z" />
    <glyph glyph-name="ntilde" unicode="&#xf1;" horiz-adv-x="1245" 
d="M336 1294l-2 2q22 88 91 128q69 41 155 12q10 -1 58 -26t58 -26q82 -27 113 54l111 -47q-22 -96 -94 -134q-69 -37 -148 -8q-3 1 -10 4.5t-21.5 11t-26.5 13.5q-52 26 -61 27q-85 29 -115 -60zM154 1014v2h153l8 -162q129 176 347 176q196 0 320 -126q124 -125 124 -343
v-559h-168v557q0 149 -82 232q-82 84 -225 84q-136 -1 -224 -97t-88 -233v-543h-165v1012z" />
    <glyph glyph-name="ograve" unicode="&#xf2;" horiz-adv-x="1218" 
d="M569 1180l-204 260v6h206l152 -256v-10h-154zM90 504q0 230 147 378t371 148q226 0 373 -148t147 -378t-145 -376t-375 -146q-227 0 -372 146q-146 148 -146 376zM961 504h2q0 159 -101 266t-252 107q-153 0 -253 -106q-99 -105 -99 -267q0 -161 97 -262
q98 -103 253 -103q154 0 254 103q99 102 99 262z" />
    <glyph glyph-name="oacute" unicode="&#xf3;" horiz-adv-x="1216" 
d="M514 1171v11l150 252h204v-7l-202 -256h-152zM1126 504h2q0 230 -147 378t-373 148q-224 0 -371 -148t-147 -378q0 -228 146 -376q145 -146 372 -146q228 0 373 146t145 376zM258 504h2q0 162 99 267q100 106 253 106q149 0 250 -107t101 -266q0 -160 -99 -262
q-100 -103 -254 -103t-254 103q-98 101 -98 262z" />
    <glyph glyph-name="ocircumflex" unicode="&#xf4;" horiz-adv-x="1216" 
d="M561 1448h107l297 -274v-15h-174l-177 162l-176 -162h-174v15zM1126 504h2q0 230 -147 378t-373 148q-224 0 -371 -148t-147 -378q0 -228 146 -376q145 -146 372 -146q228 0 373 146t145 376zM258 504h2q0 162 99 267q100 106 253 106q149 0 250 -107t101 -266
q0 -160 -99 -262q-100 -103 -254 -103t-254 103q-98 101 -98 262z" />
    <glyph glyph-name="otilde" unicode="&#xf5;" horiz-adv-x="1216" 
d="M326 1284l-2 2q22 90 91 130q68 40 154 11q15 -2 61 -25q49 -25 60 -26q82 -27 111 58l112 -48q-22 -99 -93 -137q-68 -36 -146 -6q-17 7 -59 28q-46 24 -56 25q-91 30 -125 -61zM90 506q0 230 147 378t371 148q226 0 373 -148t147 -378t-145 -376t-375 -146
q-227 0 -372 146q-146 148 -146 376zM961 506h2q0 159 -101 266t-252 107q-153 0 -253 -106q-99 -105 -99 -267q0 -161 97 -262q98 -103 253 -103q154 0 254 103q99 102 99 262z" />
    <glyph glyph-name="odieresis" unicode="&#xf6;" horiz-adv-x="1216" 
d="M289 1321q0 51 34 81t75 30q42 0 76 -30t34 -81q0 -68 -54 -95t-110 0q-55 27 -55 95zM719 1319q0 67 54 96q54 28 110 1q55 -27 55 -95t-55 -95q-57 -28 -110 -1q-54 27 -54 94zM1126 502h2q0 230 -147 378t-373 148q-224 0 -371 -148t-147 -378q0 -228 146 -376
q145 -146 372 -146q228 0 373 146t145 376zM258 502h2q0 162 99 267t253 105q150 0 250 -106q101 -107 101 -266q0 -160 -99 -262q-100 -103 -254 -103t-254 103q-98 101 -98 262z" />
    <glyph glyph-name="divide" unicode="&#xf7;" horiz-adv-x="1155" 
d="M471 1014q0 51 34 81q33 29 76 29q42 0 75 -29q34 -30 34 -81q0 -68 -54 -95t-110 0q-55 27 -55 95zM143 592h869v166h-869v-166zM471 326q0 51 34 81q33 29 76 29q42 0 75 -29q34 -30 34 -81q0 -69 -54 -96t-110 0q-55 27 -55 96z" />
    <glyph glyph-name="oslash" unicode="&#xf8;" horiz-adv-x="1216" 
d="M285 86q-195 146 -195 418q0 230 147 378t371 148q114 0 209 -43l76 129h164l-117 -198q188 -149 188 -414q0 -230 -145 -376t-375 -146q-114 0 -202 36l-82 -139h-162zM737 850l4 2q-63 27 -131 27q-153 0 -253 -106q-99 -105 -99 -267q0 -172 113 -273zM496 162
q50 -21 116 -21q154 0 254 103q99 102 99 262q0 159 -107 266z" />
    <glyph glyph-name="ugrave" unicode="&#xf9;" horiz-adv-x="1247" 
d="M377 1430v6h205l153 -262v-11h-153zM938 0h2l-8 162q-129 -174 -352 -178q-198 0 -319 126q-122 127 -122 343v559h168v-557q0 -149 82 -232q83 -84 225 -84q137 2 225 97q87 94 87 233v543h168v-1012h-156z" />
    <glyph glyph-name="uacute" unicode="&#xfa;" horiz-adv-x="1245" 
d="M524 1174l152 262h207v-6l-205 -267h-154v11zM1092 1012l2 4h-168v-543q0 -139 -87 -234q-89 -97 -225 -98q-143 -1 -225 82t-82 232v557h-168v-559q0 -216 122 -343q121 -126 317 -126q226 5 350 178l8 -162h156v1012z" />
    <glyph glyph-name="ucircumflex" unicode="&#xfb;" horiz-adv-x="1247" 
d="M285 1167l290 271h107l291 -271v-12h-172l-172 158l-172 -158h-172v12zM938 0h2l-8 162q-129 -174 -352 -178q-198 0 -319 126q-122 127 -122 343v559h168v-557q0 -149 82 -232q83 -84 225 -84q137 2 225 97q87 94 87 233v543h168v-1012h-156z" />
    <glyph glyph-name="udieresis" unicode="&#xfc;" horiz-adv-x="1245" 
d="M285 1337q0 69 54 97t110 1q55 -27 55 -96q0 -68 -54 -95q-55 -28 -110 -1t-55 94zM754 1337q0 52 33 81q35 30 76 30t76 -30q34 -30 34 -81q0 -68 -54 -95t-110 0q-55 27 -55 95zM1092 1010l2 2h-168v-543q0 -140 -87 -235q-88 -95 -225 -97q-143 -1 -225 83
q-82 85 -82 233v557h-168v-559q0 -216 122 -343q121 -126 317 -126q226 5 350 178l8 -164h156v1014z" />
    <glyph glyph-name="yacute" unicode="&#xfd;" horiz-adv-x="1128" 
d="M459 1184l147 252h203v-6l-201 -256h-149v10zM893 1012l-223 -529l-111 -286l-108 288l-199 527h-191l406 -998l-211 -491h182l639 1489h-184z" />
    <glyph glyph-name="thorn" unicode="&#xfe;" horiz-adv-x="1304" 
d="M156 -422l-2 -2v1854h165v-615q55 99 162 156t228 57q222 -5 362 -142q141 -138 141 -382q0 -251 -143 -388q-145 -139 -369 -139q-113 0 -217 55q-101 54 -161 158v-612h-166zM688 139q152 0 255 95q101 94 101 270q0 172 -101 266t-255 94q-151 0 -253 -103
q-101 -102 -101 -259q0 -153 102 -258t252 -105z" />
    <glyph glyph-name="ydieresis" unicode="&#xff;" horiz-adv-x="1128" 
d="M248 1337q0 68 53 95q53 28 107 0q53 -27 53 -95q0 -66 -53 -93q-54 -27 -107 0t-53 93zM709 1337q0 68 53 95q54 27 106 0q54 -28 54 -95q0 -65 -54 -93q-53 -27 -106 0t-53 93zM893 1012l-223 -529l-111 -286l-108 288l-199 527h-191l406 -998l-211 -491h182l639 1489
h-184z" />
    <glyph glyph-name="Amacron" unicode="&#x100;" horiz-adv-x="1556" 
d="M678 1434h201l643 -1434h-193l-141 315h-819l-140 -315h-194zM1118 479l-340 774l-340 -774h680zM426 1745h684v-146h-684v146z" />
    <glyph glyph-name="amacron" unicode="&#x101;" horiz-adv-x="1304" 
d="M989 0l-4 -4l-4 184q-56 -98 -160 -152q-103 -53 -213 -53q-222 0 -370 145t-148 386q0 239 149 382q147 142 371 140q118 0 219 -52q104 -53 156 -149l2 185h164v-1012h-162zM618 870l-2 -2q-154 0 -258 -101t-104 -267q0 -168 104 -269q105 -102 258 -102q100 0 180 41
q78 40 119 106q43 70 60 145q18 79 0 158q-17 73 -60 144q-40 66 -118 106q-79 41 -179 41zM313 1407h684v-145h-684v145z" />
    <glyph glyph-name="Abreve" unicode="&#x102;" horiz-adv-x="1556" 
d="M1057 1849h-6q6 -129 -74 -201q-81 -73 -205 -73q-126 0 -207 73q-79 72 -73 201h137q0 -63 36 -104t111 -41q72 0 108 42t36 103h137zM678 1434h201l643 -1434h-193l-141 315h-819l-140 -315h-194zM1118 479l-340 774l-340 -774h680z" />
    <glyph glyph-name="abreve" unicode="&#x103;" horiz-adv-x="1304" 
d="M936 1442h-4q6 -130 -74 -202q-81 -73 -207 -73t-207 73q-79 72 -73 202h137q0 -64 36 -105t111 -41q72 0 108 42t36 104h137zM989 0l-4 -4l-4 184q-56 -98 -160 -152q-103 -53 -213 -53q-222 0 -370 145t-148 386q0 239 149 382q147 142 371 140q118 0 219 -52
q104 -53 156 -149l2 185h164v-1012h-162zM618 870l-2 -2q-154 0 -258 -101t-104 -267q0 -168 104 -269q105 -102 258 -102q100 0 180 41q78 40 119 106q43 70 60 145q18 79 0 158q-17 73 -60 144q-40 66 -118 106q-79 41 -179 41z" />
    <glyph glyph-name="Aogonek" unicode="&#x104;" horiz-adv-x="1558" 
d="M1524 -2v-4q-108 10 -174 0q-84 -15 -117 -68q-33 -52 0 -99t113 -42q87 4 147 78l92 -64q-63 -117 -229 -135q-81 -8 -138 15q-62 25 -94 67q-34 44 -41 96q-8 54 12 104q20 51 71 90q52 40 130 52l-104 227h-825l-140 -315h-192l643 1434h201zM1120 477l-342 774
l-340 -774h682z" />
    <glyph glyph-name="aogonek" unicode="&#x105;" horiz-adv-x="1304" 
d="M1151 -78l-2 -4q-101 11 -170 -30t-53 -105q6 -29 37 -51q30 -21 77 -21q92 0 152 78l92 -63q-35 -65 -100 -100q-67 -37 -142 -38q-100 -2 -168 42q-66 42 -81 120q-12 73 34 144q45 70 162 104l-8 182q-56 -98 -160 -152q-103 -53 -213 -53q-222 0 -370 145t-148 386
q0 239 149 382q147 142 371 140q118 0 219 -52q104 -53 156 -149l2 185h164v-1090zM621 870l-3 -2q-154 0 -258 -101t-104 -267q0 -168 104 -269q105 -102 258 -102q100 0 180 41t120 106q41 68 59 145q18 79 0 158q-17 76 -59 144q-40 65 -119 106t-178 41z" />
    <glyph glyph-name="Cacute" unicode="&#x106;" horiz-adv-x="1449" 
d="M733 1610l150 254h202v-6l-200 -259h-152v11zM1257 313l3 -4q-169 -166 -410 -166q-274 0 -420 164q-144 162 -149 402q-2 240 146 407q149 168 423 168q238 0 401 -160l123 115q-218 215 -524 215q-243 0 -416 -109q-175 -110 -254 -276t-78 -362q1 -307 196 -520
q194 -212 552 -212q317 0 532 215z" />
    <glyph glyph-name="cacute" unicode="&#x107;" horiz-adv-x="1058" 
d="M496 1208l135 226h178v-4l-178 -232h-135v10zM885 248l-2 -8q-105 -105 -265 -105q-154 0 -257 97t-103 270q0 168 103 267t262 99q151 0 256 -102l106 111q-152 151 -367 151q-228 0 -377 -139q-151 -140 -151 -383t152 -384q150 -140 376 -140q223 0 379 153z" />
    <glyph glyph-name="Ccircumflex" unicode="&#x108;" horiz-adv-x="1454" 
d="M784 1880h107l291 -270v-13h-172l-174 158l-170 -158h-172v13zM1384 190q-214 -213 -532 -213q-358 0 -552 212q-195 213 -196 520q-1 196 78 362t254 276q173 109 416 109q304 0 524 -215l-123 -115q-163 160 -401 160q-274 0 -423 -168q-148 -167 -146 -407
q5 -239 149 -401q145 -163 420 -163q242 0 408 166z" />
    <glyph glyph-name="ccircumflex" unicode="&#x109;" horiz-adv-x="1056" 
d="M553 1458h102l281 -262v-12h-166l-166 153l-164 -153h-168v12zM997 135l-2 2q-155 -155 -377 -155q-226 0 -376 140q-152 141 -152 384q0 246 150 385q149 139 378 139q215 0 367 -151l-106 -111q-105 102 -256 102q-155 0 -259 -99t-104 -265q0 -169 104 -267t257 -98
q159 0 264 107z" />
    <glyph glyph-name="Cdotaccent" unicode="&#x10a;" horiz-adv-x="1449" 
d="M737 1712q0 68 55 95q55 28 107 1q53 -27 53 -94q0 -68 -53 -95q-54 -28 -107 -1q-55 28 -55 94zM1257 313l3 -4q-169 -166 -410 -166q-274 0 -420 164q-144 162 -149 402q-2 240 146 407q149 168 423 168q238 0 401 -160l123 115q-218 215 -524 215q-243 0 -416 -109
q-175 -110 -254 -276t-78 -362q1 -307 196 -520q194 -212 552 -212q317 0 532 215z" />
    <glyph glyph-name="cdotaccent" unicode="&#x10b;" horiz-adv-x="1058" 
d="M506 1329q0 50 33 77q34 28 71 28q38 0 72 -28q33 -27 33 -77t-33 -77t-72 -27q-38 0 -71 27t-33 77zM885 248l-2 -8q-105 -105 -265 -105q-154 0 -257 97t-103 270q0 168 103 267t262 99q150 0 256 -100l106 109q-152 151 -367 151q-228 0 -377 -139
q-151 -140 -151 -383t152 -384q150 -140 376 -140q223 0 379 153z" />
    <glyph glyph-name="Ccaron" unicode="&#x10c;" horiz-adv-x="1454" 
d="M496 1847v15h170l168 -156l174 156h163v-15l-286 -256h-105zM1384 190q-214 -213 -532 -213q-358 0 -552 212q-195 213 -196 520q-1 196 78 362t254 276q173 109 416 109q304 0 524 -215l-123 -115q-163 160 -401 160q-274 0 -423 -168q-148 -167 -146 -407
q5 -239 149 -401q145 -163 420 -163q242 0 408 166z" />
    <glyph glyph-name="ccaron" unicode="&#x10d;" horiz-adv-x="1056" 
d="M279 1421v15h159l162 -154l168 154h158v-15l-277 -252h-100zM997 135l-2 2q-155 -155 -377 -155q-226 0 -376 140q-152 141 -152 384q0 246 150 385q149 139 378 139q215 0 367 -151l-106 -111q-105 102 -256 102q-155 0 -259 -99t-104 -265q0 -169 104 -267t257 -98
q159 0 264 107z" />
    <glyph glyph-name="Dcaron" unicode="&#x10e;" horiz-adv-x="1536" 
d="M330 1843v15h168l168 -158l174 158h164v-15l-287 -262h-103zM190 1434v2h523q175 0 316 -60t225 -159q83 -98 131 -224t49 -260q5 -141 -39 -269q-44 -130 -129 -234q-85 -105 -230 -168q-142 -62 -323 -62h-523v1434zM713 178q181 0 309 84q127 84 181 207
q54 124 50 266q-5 218 -143 373q-140 156 -397 156h-344v-1086h344z" />
    <glyph glyph-name="dcaron" unicode="&#x10f;" horiz-adv-x="1302" 
d="M1327 1434h166l-125 -355h-129zM1147 1434l2 2v-1434h-158l-8 184q-60 -100 -161 -152t-218 -52q-224 0 -367 140q-145 142 -145 384q0 248 144 386t366 138q116 0 221 -52q108 -53 158 -151v607h166zM614 874h2q-154 0 -255 -97t-101 -269q0 -170 101 -268
q102 -99 255 -99t256 103t103 266q0 160 -104 262q-103 102 -257 102z" />
    <glyph glyph-name="Dcroat" unicode="&#x110;" horiz-adv-x="1548" 
d="M72 797v2h131v637h522q175 0 316 -60q142 -61 226 -159q83 -98 131 -224q46 -123 48 -260q5 -141 -39 -269q-44 -130 -129 -234q-86 -105 -229 -168q-142 -62 -324 -62h-522v643h-131v154zM725 178q181 0 309 84q127 84 181 207q55 126 51 266q-4 217 -144 373t-397 156
h-344v-465h264v-154h-264v-467h344z" />
    <glyph glyph-name="dcroat" unicode="&#x111;" horiz-adv-x="1302" 
d="M1147 1434l2 2v-140h141v-122h-141v-1172h-158l-8 184q-60 -100 -161 -152t-218 -52q-224 0 -367 140q-145 142 -145 384q0 248 144 386t366 138q116 0 221 -52q108 -53 158 -151v344h-217v123h217v140h166zM614 874h2q-154 0 -255 -97t-101 -269q0 -170 101 -268
q102 -99 255 -99t256 103t103 266q0 160 -104 262q-103 102 -257 102z" />
    <glyph glyph-name="Emacron" unicode="&#x112;" horiz-adv-x="1333" 
d="M190 0v1434h1008v-164h-831v-449h796v-166h-796v-485h864v-170h-1041zM367 1753h684v-145h-684v145z" />
    <glyph glyph-name="emacron" unicode="&#x113;" horiz-adv-x="1200" 
d="M295 1430h639v-138h-639v138zM1061 162h-2q-72 -86 -193 -134q-117 -46 -243 -46q-238 0 -385 144q-148 145 -148 384q0 229 148 377q147 147 376 147q248 0 391 -152q144 -152 115 -442h-856q15 -138 115 -220q101 -83 248 -83q91 0 181 34q92 35 140 93zM961 582v-2
q-6 143 -99 224q-91 79 -244 79q-135 0 -235 -80q-98 -79 -119 -221h697z" />
    <glyph glyph-name="Ebreve" unicode="&#x114;" horiz-adv-x="1333" 
d="M1010 1847h-2q6 -125 -75 -195q-82 -71 -208 -71q-129 0 -209 71t-74 195h140q0 -62 35 -101q36 -40 110 -40q72 0 108 40q35 39 35 101h140zM190 0v1434h1008v-164h-831v-449h796v-166h-796v-485h864v-170h-1041z" />
    <glyph glyph-name="ebreve" unicode="&#x115;" horiz-adv-x="1200" 
d="M899 1440q6 -125 -74 -196q-79 -70 -207 -70q-129 0 -208 70q-81 71 -76 196h137q0 -62 36 -102t109 -40q72 0 108 41t36 103zM1061 160h-2q-72 -86 -193 -134q-117 -46 -243 -46q-238 0 -385 144q-148 145 -148 386q0 229 148 377q147 147 376 147q248 0 391 -152
q144 -153 115 -444h-856q15 -138 115 -220q101 -83 248 -83q91 0 181 34q92 35 140 93zM961 580q-6 143 -99 224q-91 79 -244 79q-135 0 -235 -80q-98 -79 -119 -223h697z" />
    <glyph glyph-name="Edotaccent" unicode="&#x116;" horiz-adv-x="1333" 
d="M610 1698q0 67 57 94q56 27 112 0q57 -27 57 -94t-57 -94q-56 -27 -112 0q-57 27 -57 94zM190 0v1434h1008v-164h-831v-449h796v-166h-796v-485h864v-170h-1041z" />
    <glyph glyph-name="edotaccent" unicode="&#x117;" horiz-adv-x="1198" 
d="M508 1350q0 49 35 76q36 28 77 28q40 0 76 -28q35 -27 35 -76q0 -50 -35 -77q-36 -28 -76 -28q-41 0 -77 28q-35 27 -35 77zM1118 440v-4q28 291 -116 444q-143 152 -390 152q-227 0 -374 -147q-148 -148 -148 -377q0 -239 148 -384q147 -144 385 -144q126 0 243 46
q121 48 193 134l-113 102q-48 -58 -140 -93q-90 -34 -181 -34q-147 0 -248 83q-100 82 -115 222h856zM264 578v2q21 142 119 221q100 80 235 80q153 0 244 -79q93 -81 99 -224h-697z" />
    <glyph glyph-name="Eogonek" unicode="&#x118;" horiz-adv-x="1335" 
d="M1231 0l6 2q-143 2 -214 -49q-73 -51 -56 -107q18 -63 104 -63q101 0 162 78l96 -64q-38 -69 -108 -108q-72 -40 -152 -45q-96 -5 -163 38q-66 42 -81 111q-12 55 14 114q25 58 95 93h-744v1434h1010v-168h-833v-445h798v-164h-798v-489h864v-168z" />
    <glyph glyph-name="eogonek" unicode="&#x119;" horiz-adv-x="1200" 
d="M1128 -168l-6 4q-35 -63 -104 -101q-69 -37 -146 -42q-82 -4 -146 26q-62 29 -85 88q-46 97 16 183q-21 -4 -45 -4q-236 6 -381 148t-145 376q0 230 147 377t377 147q247 0 390 -152q144 -153 116 -442h-856q15 -138 115 -220q101 -83 248 -83q91 0 181 34q92 35 140 93
l113 -102q-83 -97 -219 -146q-48 -22 -67 -58q-19 -37 -1 -79q28 -59 111 -59q94 0 155 76zM954 586v-2q-6 144 -98 224q-91 79 -244 79q-135 0 -235 -80q-98 -79 -119 -221h696z" />
    <glyph glyph-name="Ecaron" unicode="&#x11a;" horiz-adv-x="1333" 
d="M356 1833v14h172l172 -157l177 157h170v-14l-295 -260h-105zM190 0v1434h1008v-164h-831v-449h796v-166h-796v-485h864v-170h-1041z" />
    <glyph glyph-name="ecaron" unicode="&#x11b;" horiz-adv-x="1200" 
d="M272 1421v15h174l172 -156l179 156h170v-15l-295 -260h-107zM1061 162h-2q-72 -86 -193 -134q-117 -46 -243 -46q-238 0 -385 144q-148 145 -148 384q0 229 148 377q147 147 376 147q248 0 391 -152q144 -152 115 -442h-856q15 -138 115 -220q101 -83 248 -83
q91 0 181 34q92 35 140 93zM961 582v-2q-6 143 -99 224q-91 79 -244 79q-135 0 -235 -80q-98 -79 -119 -221h697z" />
    <glyph glyph-name="Gcircumflex" unicode="&#x11c;" horiz-adv-x="1519" 
d="M766 1878h104l289 -270v-13h-172l-170 158l-170 -158h-172v13zM1401 219l8 -2q-229 -244 -555 -244q-184 0 -331 60q-146 60 -235 162t-135 232q-47 132 -47 278q-1 329 201 543t545 214q308 0 526 -215l-110 -117q-82 79 -194 123q-110 43 -224 43q-266 0 -419 -171
q-152 -170 -152 -418q0 -237 146 -399q147 -163 423 -163q218 0 385 144v336h-440v161h608v-567z" />
    <glyph glyph-name="gcircumflex" unicode="&#x11d;" horiz-adv-x="1251" 
d="M575 1460h107l289 -262v-12h-172l-172 153l-168 -153h-174v12zM1026 862v-2q131 -148 131 -328q0 -140 -75 -253t-216 -158q143 -40 214 -128t71 -202q0 -186 -156 -291q-155 -104 -372 -104q-233 0 -378 116q-145 117 -141 316h166q-2 -128 102 -198q104 -71 253 -72
q148 0 251 59q105 60 105 174q0 118 -101 180q-104 64 -253 64q-242 0 -388 133q-147 134 -147 367q0 234 161 368q160 133 374 133q180 0 286 -75l109 131l119 -95zM989 535l4 -3q0 164 -106 255q-107 92 -260 92q-149 0 -259 -89t-110 -255t103 -256q105 -91 264 -91
t262 100q102 99 102 247z" />
    <glyph glyph-name="Gbreve" unicode="&#x11e;" horiz-adv-x="1525" 
d="M1130 1860l-6 4q6 -125 -74 -193q-81 -69 -210 -69q-130 0 -210 68q-81 69 -75 192h139q0 -60 36 -99q36 -40 112 -41q72 0 110 39q37 38 37 99h141zM1268 1135l8 -2q-80 77 -194 122q-110 43 -224 43q-266 0 -419 -171q-152 -170 -152 -418q0 -237 146 -399
q147 -163 423 -163q218 0 385 144v336h-440v161h608v-567q-229 -244 -555 -244q-184 0 -331 60q-146 60 -235 162t-135 232q-47 132 -47 278q-1 329 201 543t545 214q308 0 526 -215z" />
    <glyph glyph-name="gbreve" unicode="&#x11f;" horiz-adv-x="1251" 
d="M913 1454h-2q6 -128 -73 -200q-80 -72 -205 -72q-129 0 -207 71q-80 73 -76 201h137q0 -62 36 -102q36 -41 110 -41q71 0 107 41q36 40 36 102h137zM1026 862v-2q131 -148 131 -328q0 -140 -75 -253t-216 -158q143 -40 214 -128t71 -202q0 -186 -156 -291
q-155 -104 -372 -104q-233 0 -378 116q-145 117 -141 316h166q-2 -128 102 -198q104 -71 253 -72q148 0 251 59q105 60 105 174q0 118 -101 180q-104 64 -253 64q-242 0 -388 133q-147 134 -147 367q0 234 161 368q160 133 374 133q180 0 286 -75l109 131l119 -95zM258 535
l4 -3q0 -166 104 -256t263 -90t262 100q102 99 102 246q0 164 -106 255q-107 92 -260 92q-149 0 -259 -89t-110 -255z" />
    <glyph glyph-name="Gdotaccent" unicode="&#x120;" horiz-adv-x="1523" 
d="M733 1706q0 50 35 77q34 27 77 27t77 -27t34 -77t-34 -77t-77 -27t-77 27q-35 27 -35 77zM1376 1245h-2q-220 215 -526 215q-343 0 -545 -214q-203 -215 -203 -544q0 -148 46 -277q46 -128 136 -232q89 -102 235 -162q147 -60 331 -60q326 0 555 244v567h-608v-161h440
v-334q-167 -144 -385 -144q-276 0 -423 163q-146 162 -146 401q-2 249 150 418q153 171 419 171q112 0 224 -44t192 -124z" />
    <glyph glyph-name="gdotaccent" unicode="&#x121;" horiz-adv-x="1253" 
d="M535 1348q0 66 57 93q58 27 115 0t57 -93q0 -68 -57 -95t-115 0q-57 27 -57 95zM920 963l-5 4q-106 75 -286 75q-216 0 -376 -133q-161 -134 -161 -368q0 -233 147 -367q146 -133 388 -133q149 0 253 -64q101 -62 101 -180q0 -115 -107 -178q-106 -63 -249 -63
q-147 0 -252 74q-107 75 -105 200h-162q-2 -198 143 -314t380 -116q217 0 372 104q156 105 156 291q0 114 -71 202t-214 128q141 45 213 159t72 255q0 183 -125 325l115 133l-119 95zM627 887q152 0 258 -91t106 -255q0 -146 -102 -245t-262 -99q-163 0 -266 90t-103 254
q0 166 110 256t259 90z" />
    <glyph glyph-name="Gcommaaccent" unicode="&#x122;" horiz-adv-x="1525" 
d="M1268 1130l8 -2q-82 79 -194 123q-110 43 -224 43q-266 0 -419 -171q-152 -170 -152 -418q0 -237 146 -399q147 -163 423 -163q218 0 385 144v336h-440v161h608v-567q-229 -244 -555 -244q-184 0 -331 60q-146 60 -235 162t-135 232q-47 132 -47 278q-1 329 201 543
t545 214q308 0 526 -215zM840 -356l2 2q-78 15 -78 90q0 67 55 94t110 -1q54 -27 54 -95q0 -19 -34 -106q-39 -100 -56 -134h-113z" />
    <glyph glyph-name="gcommaaccent" unicode="&#x123;" horiz-adv-x="1251" 
d="M684 1380l-2 -2q78 -15 78 -90q0 -67 -54 -94t-110 2q-55 28 -55 96q0 21 33 106q35 91 57 134h112zM1141 995v-2l-115 -135q131 -148 131 -328q0 -142 -75 -254t-216 -157q143 -40 214 -128t71 -202q0 -186 -156 -291q-155 -104 -372 -104q-233 0 -378 116
q-145 117 -141 316h166q-2 -128 102 -198q104 -71 253 -72q148 0 251 59q105 60 105 174q0 118 -101 180q-104 64 -253 64q-242 0 -388 133q-147 134 -147 366q0 235 161 369q160 133 374 133q179 0 286 -76l109 132zM258 532l4 -2q0 -166 104 -256t263 -90t262 100
q102 99 102 246q0 164 -106 255q-107 92 -260 92q-148 0 -259 -90q-110 -89 -110 -255z" />
    <glyph glyph-name="Hcircumflex" unicode="&#x124;" horiz-adv-x="1564" 
d="M733 1866h107l290 -273v-14h-172l-172 160l-172 -160h-172v14zM190 1434h183v-648h819v648h182v-1434h-182v618h-819v-618h-183v1434z" />
    <glyph glyph-name="hcircumflex" unicode="&#x125;" horiz-adv-x="1220" 
d="M565 1847h103l286 -266v-12h-170l-170 155l-168 -155h-167v12zM154 1434v-2h165v-588q114 175 343 180q206 0 313 -125q106 -124 106 -342v-559h-166v557q0 149 -72 230t-210 81q-137 0 -224 -95t-87 -234v-537h-168v1434z" />
    <glyph glyph-name="Hbar" unicode="&#x126;" horiz-adv-x="1589" 
d="M1204 0v618h-819v-618h-182v1077h-144v123h144v234h182v-234h819v234h182v-234h146v-123h-146v-1077h-182zM1204 786v291h-819v-291h819z" />
    <glyph glyph-name="hbar" unicode="&#x127;" horiz-adv-x="1220" 
d="M25 1286v-2h129v148h165v-148h244v-123h-244v-317q114 175 343 180q206 0 313 -125q106 -124 106 -342v-559h-166v557q0 149 -72 230t-210 81q-137 0 -224 -95t-87 -234v-537h-168v1163h-129v123z" />
    <glyph glyph-name="Itilde" unicode="&#x128;" horiz-adv-x="561" 
d="M0 1647l-4 4q23 91 88 131t147 10q10 -1 56 -26q44 -23 55 -25q79 -30 107 53l106 -47q-22 -100 -88 -137q-64 -37 -141 -8q-16 6 -56 28q-48 26 -51 27q-83 30 -117 -60zM190 4v1434h181v-1434h-181z" />
    <glyph glyph-name="itilde" unicode="&#x129;" horiz-adv-x="481" 
d="M2 1313l2 -2q18 84 76 122t127 11q3 -2 49 -26q40 -22 47 -23q72 -28 94 53l92 -45q-21 -96 -78 -129q-58 -34 -124 -6q-17 7 -49 27q-40 25 -45 26q-74 27 -101 -55zM156 995h174v-997h-174v997z" />
    <glyph glyph-name="Imacron" unicode="&#x12a;" horiz-adv-x="561" 
d="M12 1737h537v-142h-537v142zM190 0v1434h181v-1434h-181z" />
    <glyph glyph-name="imacron" unicode="&#x12b;" horiz-adv-x="481" 
d="M2 1425h477v-141h-477v141zM154 997h174v-997h-174v997z" />
    <glyph glyph-name="Ibreve" unicode="&#x12c;" horiz-adv-x="561" 
d="M561 1837h-2q8 -124 -67 -187q-77 -65 -199 -65q-124 0 -200 67q-74 65 -66 187h133q0 -129 135 -129t135 127h131zM199 0v1434h180v-1434h-180z" />
    <glyph glyph-name="ibreve" unicode="&#x12d;" horiz-adv-x="481" 
d="M492 1434h2q4 -120 -67 -190q-69 -68 -183 -68q-115 0 -184 68q-70 69 -66 190h121q0 -61 31 -99q32 -39 98 -39q64 0 95 39q32 40 32 99h121zM158 997h174v-997h-174v997z" />
    <glyph glyph-name="Iogonek" unicode="&#x12e;" horiz-adv-x="565" 
d="M573 -203v2q-69 -130 -241 -137q-99 -1 -166 42t-84 118q-15 64 16 131q30 65 111 96v1385h180v-1434q-99 1 -146 -40q-48 -42 -30 -99q10 -30 41 -51q29 -21 74 -19q96 0 151 72z" />
    <glyph glyph-name="iogonek" unicode="&#x12f;" horiz-adv-x="483" 
d="M141 1321q0 70 56 97q55 27 110 -1t55 -98t-55 -97t-110 1q-56 29 -56 98zM166 1016v4v-967q-69 -24 -103 -79q-32 -52 -27 -111t42 -99q56 -106 204 -102t214 119l-93 61q-52 -53 -117 -56q-68 -3 -102 40q-41 57 4 117q44 59 146 57v1016h-168z" />
    <glyph glyph-name="Idotaccent" unicode="&#x130;" horiz-adv-x="561" 
d="M172 1698q0 70 55 97q56 27 111 -1t55 -98q0 -71 -55 -98q-56 -27 -111 1t-55 99zM371 0v1434h-181v-1434h181z" />
    <glyph glyph-name="dotlessi" unicode="&#x131;" horiz-adv-x="481" 
d="M328 997v-997h-174v997h174z" />
    <glyph glyph-name="IJ" unicode="&#x132;" horiz-adv-x="1968" 
d="M1794 573q4 -270 -159 -435t-433 -165q-261 0 -428 161q-166 160 -166 431h176q0 -195 114 -309q115 -115 304 -115q191 0 303 118q113 119 113 314v697h-502v164h678v-861zM190 0v1434h179v-1434h-179z" />
    <glyph glyph-name="ij" unicode="&#x133;" horiz-adv-x="950" 
d="M604 1327q0 70 55 97q56 27 111 -1t55 -98t-55 -97q-56 -27 -111 1t-55 98zM631 1014h-2v-1147q0 -107 -27 -159t-113 -54q-67 0 -137 35l-55 -135q98 -58 201 -58q162 0 231 94q69 95 68 277v1147h-166zM129 1321q0 70 55 97q56 27 111 -1t55 -98t-55 -97
q-56 -27 -111 1t-55 98zM154 1016v-1016h168v1016h-168z" />
    <glyph glyph-name="Jcircumflex" unicode="&#x134;" horiz-adv-x="1411" 
d="M479 1599l291 273h107l290 -273v-12h-172l-172 158l-172 -158h-172v12zM1235 573l6 -2q0 -270 -165 -434q-166 -164 -433 -164q-261 0 -428 161q-166 160 -166 431h176q0 -194 113 -307t303 -113q192 0 303 116q111 115 111 312v695h-498v166h678v-861z" />
    <glyph glyph-name="jcircumflex" unicode="&#x135;" horiz-adv-x="473" 
d="M-51 1174l246 274h90l245 -274v-13h-147l-143 158l-142 -158h-149v13zM319 -133l3 2q1 -183 -68 -278t-231 -95q-103 0 -201 58l55 135q70 -39 137 -35q86 2 113 54t27 159v1147h165v-1147z" />
    <glyph glyph-name="Kcommaaccent" unicode="&#x136;" horiz-adv-x="1282" 
d="M186 1434h183v-633l628 633h224v-11l-682 -680l743 -731v-12h-227l-686 674v-672h-183v1432zM657 -328l5 -2q-78 15 -78 92q0 68 54 95q53 27 110 -1q55 -27 55 -96q0 -20 -34 -107q-37 -94 -58 -130h-113z" />
    <glyph glyph-name="kcommaaccent" unicode="&#x137;" horiz-adv-x="1015" 
d="M319 1434v-848l416 426h209v-11l-467 -466l524 -523v-12h-204l-478 477v-477h-165v1434h165zM520 -322h2q-73 15 -73 89q0 64 52 89t104 -1q52 -27 52 -91q0 -17 -31 -101q-28 -75 -55 -128h-106z" />
    <glyph glyph-name="kgreenlandic" unicode="&#x138;" horiz-adv-x="1015" 
d="M319 1012v-426l416 426h209v-11l-467 -466l524 -523v-12h-204l-478 477v-477h-165v1012h165z" />
    <glyph glyph-name="Lacute" unicode="&#x139;" horiz-adv-x="1185" 
d="M229 1604l150 251h201v-6l-199 -256h-152v11zM190 1434v-1434h959v170h-776v1264h-183z" />
    <glyph glyph-name="lacute" unicode="&#x13a;" horiz-adv-x="499" 
d="M166 1587l141 240h193v-6l-189 -244h-145v10zM166 1434v-1434h168v1434h-168z" />
    <glyph glyph-name="Lcommaaccent" unicode="&#x13b;" horiz-adv-x="1185" 
d="M373 1434v-1264h776v-170h-959v1434h183zM662 -344l4 2q-78 15 -78 90q0 67 54 94q53 27 110 -1q55 -27 55 -95q0 -17 -34 -106q-36 -95 -58 -134h-113z" />
    <glyph glyph-name="lcommaaccent" unicode="&#x13c;" horiz-adv-x="499" 
d="M334 1434v-1434h-168v1434h168zM217 -334v-2q-74 15 -74 90q0 38 23 66q22 27 53 33q32 6 63 -1t54 -35q22 -26 22 -67q0 -19 -32 -102q-31 -79 -58 -129h-108z" />
    <glyph glyph-name="Lcaron" unicode="&#x13d;" horiz-adv-x="1191" 
d="M373 1434v-1264h776v-170h-959v1434h183zM848 1425h174l-131 -362h-131z" />
    <glyph glyph-name="lcaron" unicode="&#x13e;" horiz-adv-x="487" 
d="M512 1436h166l-127 -363h-127zM334 1434v-1434h-168v1434h168z" />
    <glyph glyph-name="Ldot" unicode="&#x13f;" horiz-adv-x="1189" 
d="M373 1434v-1264h776v-170h-959v1434h183zM651 627q0 70 58 101q57 30 114 0q58 -31 58 -101q0 -71 -58 -102q-57 -30 -114 0q-58 31 -58 102z" />
    <glyph glyph-name="ldot" unicode="&#x140;" horiz-adv-x="712" 
d="M334 1434v-1434h-168v1434h168zM489 618q0 71 58 102q57 30 115 0q57 -30 57 -102q0 -71 -57 -101q-58 -30 -115 0q-58 31 -58 101z" />
    <glyph glyph-name="Lslash" unicode="&#x141;" horiz-adv-x="1204" 
d="M205 565l-152 -65v145l152 68v721h182v-637l229 104v-149l-229 -103v-479h776v-170h-958v565z" />
    <glyph glyph-name="lslash" unicode="&#x142;" horiz-adv-x="561" 
d="M360 1434v-646l156 70v-141l-156 -68v-649h-167v573l-140 -59v137l140 62v721h167z" />
    <glyph glyph-name="Nacute" unicode="&#x143;" horiz-adv-x="1560" 
d="M668 1593l149 256h205v-4l-203 -262h-151v10zM375 0v1079l872 -1079h123v1434h-180v-1086l-875 1086h-125v-1434h185z" />
    <glyph glyph-name="nacute" unicode="&#x144;" horiz-adv-x="1232" 
d="M516 1188l143 246h195v-7l-195 -247h-143v8zM319 0h-2v543q0 139 87 234q88 95 225 97q144 2 225 -82q82 -85 82 -233v-557h168v559q0 218 -124 343q-124 126 -318 126q-220 -5 -347 -180l-8 162h-153v-1012h165z" />
    <glyph glyph-name="Ncommaaccent" unicode="&#x145;" horiz-adv-x="1560" 
d="M190 1434h125l875 -1086v1086h180v-1434h-123l-872 1079v-1079h-185v1434zM772 -338l4 2q-78 15 -78 90q0 66 55 94q53 26 109 -1t56 -95q0 -17 -34 -106q-33 -85 -59 -133h-112z" />
    <glyph glyph-name="ncommaaccent" unicode="&#x146;" horiz-adv-x="1241" 
d="M934 0v2v557q0 149 -82 232t-225 83q-138 -2 -225 -96t-87 -233v-543h-165v1012h153l8 -162q129 176 346 176q197 0 321 -126q124 -125 124 -343v-559h-168zM600 -317h2q-72 15 -72 84q0 63 52 89q51 26 103 -1t52 -88q0 -18 -31 -101q-30 -80 -55 -125h-106z" />
    <glyph glyph-name="Ncaron" unicode="&#x147;" horiz-adv-x="1560" 
d="M444 1843v15h172l170 -158l177 158h165v-15l-290 -266h-105zM190 1434h125l875 -1086v1086h180v-1434h-123l-872 1079v-1079h-185v1434z" />
    <glyph glyph-name="ncaron" unicode="&#x148;" horiz-adv-x="1245" 
d="M295 1436v12h166l168 -156l172 156h166v-12l-287 -265h-105zM154 1012v2h153l8 -162q129 176 347 176q196 0 320 -126q124 -125 124 -343v-559h-168v557q0 148 -82 231q-82 84 -225 84q-137 -2 -224 -96q-88 -96 -88 -233v-543h-165v1012z" />
    <glyph glyph-name="napostrophe" unicode="&#x149;" horiz-adv-x="1245" 
d="M307 1012v2l8 -162q129 176 347 176q196 0 320 -126q124 -125 124 -343v-559h-168v557q0 148 -82 231q-82 84 -225 84q-137 -2 -224 -96q-88 -96 -88 -233v-543h-165v1012h153z" />
    <glyph glyph-name="Eng" unicode="&#x14a;" horiz-adv-x="1560" 
d="M1370 -51v2q2 -184 -67 -278q-69 -95 -232 -95q-96 0 -197 57l58 136q67 -37 133 -35q87 2 114 54t27 159v102l-831 1028v-1079h-185v1434h125l875 -1090v1090h180v-1485z" />
    <glyph glyph-name="eng" unicode="&#x14b;" horiz-adv-x="1241" 
d="M1102 -49l2 4q1 -183 -68 -278t-231 -95q-93 0 -191 58l56 135q67 -37 127 -35q83 1 110 53q27 51 27 160v606q0 149 -82 232t-225 83q-138 -2 -225 -96t-87 -233v-543h-165v1012h153l8 -162q129 176 346 176q197 0 321 -126q124 -125 124 -343v-608z" />
    <glyph glyph-name="Omacron" unicode="&#x14c;" horiz-adv-x="1656" 
d="M485 1776h684v-146h-684v146zM831 1458q344 -2 536 -221q191 -217 189 -524q0 -146 -46 -275q-47 -132 -133 -236q-87 -105 -228 -168t-320 -63q-177 0 -320 63q-142 63 -229 168q-88 106 -134 235t-46 276q0 318 200 532q200 213 531 213zM1378 711l2 2q2 153 -55 279
q-57 128 -185 214q-129 87 -306 88q-263 0 -410 -168q-147 -169 -143 -413q5 -237 145 -404q141 -168 405 -168q265 0 406 168t141 402z" />
    <glyph glyph-name="omacron" unicode="&#x14d;" horiz-adv-x="1218" 
d="M293 1411h629v-141h-629v141zM90 504q0 230 147 378t371 148q226 0 373 -148t147 -378t-145 -376t-375 -146q-227 0 -372 146q-146 148 -146 376zM961 504h2q0 159 -101 266t-252 107q-153 0 -253 -106q-99 -105 -99 -267q0 -161 97 -262q98 -103 253 -103q154 0 254 103
q99 102 99 262z" />
    <glyph glyph-name="Obreve" unicode="&#x14e;" horiz-adv-x="1656" 
d="M1110 1860v2q6 -124 -75 -193q-82 -70 -210 -70q-129 0 -210 69q-80 68 -74 192h139q0 -60 36 -98t109 -38q71 0 109 39q37 38 37 97h139zM831 1460q344 -2 536 -221q191 -217 189 -524q0 -146 -46 -275q-47 -132 -133 -236q-87 -105 -228 -168t-320 -63q-177 0 -320 63
q-142 63 -229 168q-88 106 -134 235t-46 276q0 318 200 532q200 213 531 213zM1378 713l2 2q2 153 -55 279q-57 128 -185 214q-129 87 -306 88q-263 0 -410 -168q-147 -169 -143 -413q5 -237 145 -404q141 -168 405 -168q265 0 406 168t141 402z" />
    <glyph glyph-name="obreve" unicode="&#x14f;" horiz-adv-x="1218" 
d="M889 1438v-2q6 -127 -74 -198q-79 -70 -207 -69q-126 0 -206 71q-78 69 -72 198h135q0 -62 36 -102t109 -40t107 40q35 41 35 102h137zM90 502q0 230 147 378t371 148q226 0 373 -148t147 -378t-145 -376t-375 -146q-227 0 -372 146q-146 148 -146 376zM961 502h2
q0 159 -101 266q-100 106 -252 106q-154 0 -253 -105t-99 -267q0 -161 97 -262q98 -103 253 -103q154 0 254 103q99 102 99 262z" />
    <glyph glyph-name="Ohungarumlaut" unicode="&#x150;" horiz-adv-x="1656" 
d="M571 1604l158 245h186l-198 -245h-146zM1034 1849h189l-203 -247h-143zM100 713q0 318 200 532q200 213 531 213q344 -2 536 -221q191 -217 189 -524q0 -146 -46 -275q-47 -132 -133 -236q-87 -105 -228 -168t-320 -63q-177 0 -320 63q-142 63 -229 168q-88 106 -134 235
t-46 276zM1378 711l2 2q2 153 -55 279q-57 128 -185 214q-129 87 -306 88q-263 0 -410 -168q-147 -169 -143 -413q5 -237 145 -404q141 -168 405 -168q265 0 406 168t141 402z" />
    <glyph glyph-name="ohungarumlaut" unicode="&#x151;" horiz-adv-x="1216" 
d="M508 1423h180v-4l-192 -217h-142zM805 1421h180v-2l-197 -217h-137zM1126 504h2q0 230 -147 378t-373 148q-224 0 -371 -148t-147 -378q0 -228 146 -376q145 -146 372 -146q228 0 373 146t145 376zM258 504h2q0 162 99 267q100 106 253 106q149 0 250 -107t101 -266
q0 -160 -99 -262q-100 -103 -254 -103t-254 103q-98 101 -98 262z" />
    <glyph glyph-name="OE" unicode="&#x152;" horiz-adv-x="2021" 
d="M1014 0v-2q-96 -21 -185 -21q-348 0 -537 212q-190 213 -190 530q0 208 79 370t246 263q166 100 402 100q76 0 187 -18h878v-174h-716v-455h680v-170h-680v-459h733v-176h-897zM1014 1274v2q-80 27 -185 27q-261 0 -404 -167q-142 -166 -142 -419q1 -239 146 -412
q144 -172 405 -172q97 0 180 25v1116z" />
    <glyph glyph-name="oe" unicode="&#x153;" horiz-adv-x="2039" 
d="M1901 162h-3q-73 -87 -190 -134q-116 -46 -242 -46q-149 0 -263 68q-116 69 -171 190q-127 -256 -424 -256q-227 0 -372 146q-146 148 -146 376q0 229 147 379q146 149 371 149q147 0 258 -68q113 -69 170 -192q51 117 165 189q112 71 257 71q246 0 387 -151
q141 -152 113 -441q-622 0 -844 -2q15 -139 112 -221t244 -82q93 0 180 34q90 35 138 93zM1800 582v-2q-6 144 -96 224q-89 79 -242 79q-134 0 -232 -80q-97 -79 -118 -221h688zM258 502h2q0 -161 97 -262q98 -103 253 -103t253 103t98 262q0 158 -100 266q-99 106 -251 106
q-154 0 -253 -105t-99 -267z" />
    <glyph glyph-name="Racute" unicode="&#x154;" horiz-adv-x="1462" 
d="M590 1608l149 254h203v-7l-201 -258h-151v11zM918 530l2 2q208 18 314 144q105 124 103 301q-1 188 -132 322q-132 135 -359 135h-656v-1434h183v514h340l458 -514h220zM375 1266h2h473q144 0 224 -87q79 -86 77 -204q-1 -128 -80 -210q-78 -81 -231 -81h-465v582z" />
    <glyph glyph-name="racute" unicode="&#x155;" horiz-adv-x="874" 
d="M399 1196l140 238h190v-7l-188 -239h-142v8zM154 1012v2v-1012h168v563q0 134 86 217q85 82 210 82q98 0 177 -55l75 143q-101 78 -237 76q-221 0 -311 -168l-13 152h-155z" />
    <glyph glyph-name="Rcommaaccent" unicode="&#x156;" horiz-adv-x="1460" 
d="M190 1434l-2 -2h656q229 0 361 -135q130 -133 130 -322q2 -177 -103 -301q-106 -126 -314 -144l473 -530h-220l-458 514h-340v-514h-183v1434zM836 680q153 0 231 81t78 210q2 118 -77 204q-79 87 -224 87h-473v-582h465zM729 -340l4 2q-78 15 -78 90q0 67 56 94
q54 26 109 -1q54 -27 54 -95q0 -20 -33 -106q-33 -85 -59 -133h-112z" />
    <glyph glyph-name="rcommaaccent" unicode="&#x157;" horiz-adv-x="876" 
d="M309 1012l2 2l13 -152q90 168 311 168q132 4 235 -76l-75 -143q-79 55 -177 55q-123 -1 -210 -85q-86 -83 -86 -218v-563h-168v1012h155zM211 -326q-72 15 -72 86q0 64 51 89q52 26 104 -1t52 -90q0 -15 -32 -100q-32 -86 -54 -125h-104z" />
    <glyph glyph-name="Rcaron" unicode="&#x158;" horiz-adv-x="1460" 
d="M350 1847v13h174l172 -158l176 158h168v-13l-292 -266h-107zM190 1434l-2 -2h656q229 0 361 -135q130 -133 130 -322q2 -177 -103 -301q-106 -126 -314 -144l473 -530h-220l-458 514h-340v-514h-183v1434zM836 680q153 0 231 81t78 210q2 118 -77 204q-79 87 -224 87
h-473v-582h465z" />
    <glyph glyph-name="rcaron" unicode="&#x159;" horiz-adv-x="876" 
d="M557 1165h-100l-271 260v13h162l160 -154l166 154h157v-13zM154 1012l2 2h155l13 -152q90 168 311 168q132 4 235 -76l-75 -143q-79 55 -177 55q-123 -1 -210 -85q-86 -83 -86 -218v-563h-168v1012z" />
    <glyph glyph-name="Sacute" unicode="&#x15a;" horiz-adv-x="1361" 
d="M588 1612l151 260h207v-6l-205 -264h-153v10zM1227 1204l-6 4q-88 149 -225 206q-134 56 -318 56q-101 0 -192 -22q-92 -22 -176 -68t-133 -127q-49 -82 -48 -188q0 -83 32 -149q30 -61 79 -104q47 -41 125 -71t144 -45q41 -9 165 -30q101 -16 157 -32q66 -19 126 -46
q63 -28 95 -76q31 -46 31 -111q0 -97 -66 -159q-65 -60 -150 -82q-83 -21 -181 -21q-140 0 -270 64q-127 63 -183 182l-155 -80q79 -171 238 -250q162 -80 368 -80q108 0 209 23q94 21 185 70q88 47 139 133q51 85 51 200q0 96 -34 165q-35 72 -82 113q-48 42 -132 75
q-77 30 -151 47q-45 10 -171 30q-93 16 -151 30q-59 14 -118 39q-61 26 -88 66q-28 42 -28 95q0 120 111 183t262 63q284 -4 393 -181z" />
    <glyph glyph-name="sacute" unicode="&#x15b;" horiz-adv-x="1021" 
d="M412 1196l139 240h190v-4l-188 -244h-141v8zM901 899l-2 -4q-150 135 -385 135q-107 2 -193 -26q-89 -29 -153 -99t-64 -172q0 -77 35 -132q35 -54 99 -85q66 -31 124 -47q61 -16 148 -27q134 -16 204 -51q69 -34 68 -110q-1 -81 -80 -119q-76 -37 -176 -35
q-232 0 -360 158l-96 -117q154 -193 452 -193q179 0 301 80q121 79 123 226q2 63 -15 107q-19 50 -52 79q-38 33 -72 52q-39 22 -93 36q-48 13 -96 20q-95 15 -98 15q-117 15 -182 47q-69 33 -70 102q-2 72 69 111q70 39 181 37q176 0 287 -99z" />
    <glyph glyph-name="Scircumflex" unicode="&#x15c;" horiz-adv-x="1359" 
d="M354 1616l297 276h107l297 -276v-12h-174l-176 161l-177 -161h-174v12zM1077 1126l2 -4q-109 177 -393 181q-151 0 -262 -63t-111 -183q0 -53 28 -95q27 -40 88 -66q59 -25 118 -39q58 -14 151 -30q126 -20 171 -30q74 -17 151 -47q84 -33 132 -75q47 -41 82 -113
q34 -69 34 -165q0 -114 -53 -200q-55 -89 -139 -134q-88 -47 -185 -69q-101 -23 -207 -23q-205 0 -367 81q-160 80 -239 251l155 80q55 -118 183 -181t270 -63q66 0 137 13q65 12 127 39q61 27 99 82q36 52 36 130q0 65 -30 111q-31 48 -93 76q-64 29 -127 45
q-57 15 -157 31q-112 17 -165 29q-66 15 -144 45q-80 31 -125 70q-49 43 -79 104q-32 66 -32 149q-1 106 48 188q49 81 133 127t176 68q91 22 192 22q182 0 318 -57t225 -207z" />
    <glyph glyph-name="scircumflex" unicode="&#x15d;" horiz-adv-x="1021" 
d="M473 1440h102l281 -262v-13h-166l-166 152l-164 -152h-170v13zM805 788l-2 -2q-108 99 -285 99q-111 2 -181 -37q-71 -39 -69 -111q1 -120 252 -149q36 -4 118 -17q42 -7 112 -29q61 -19 103 -53q38 -31 67 -85q28 -52 26 -125q-2 -147 -123 -226q-122 -80 -301 -80
q-298 0 -452 193l96 117q128 -156 360 -156q102 0 177 37q78 38 79 121q1 76 -68 110q-70 35 -204 51q-87 11 -148 27q-58 16 -124 47q-63 30 -98 85q-34 53 -34 132q0 102 64 172t153 99q86 28 193 26q235 0 385 -135z" />
    <glyph glyph-name="Scedilla" unicode="&#x15e;" horiz-adv-x="1357" 
d="M733 -119l2 -2q123 1 172 -64q49 -66 31 -153q-21 -80 -90 -122q-68 -42 -158 -40q-164 5 -233 119l82 72q51 -72 153 -72q97 0 115 66q18 59 -41 93q-58 33 -145 3l-35 26l47 164q-186 7 -335 88q-145 79 -220 240l155 80q55 -118 183 -181t270 -63q71 0 137 12
q61 11 127 40q61 27 99 82q36 52 36 130q0 64 -30 111q-31 48 -93 76q-64 29 -127 45q-46 12 -157 30q-99 15 -165 30t-144 45q-80 31 -125 70q-49 43 -79 104q-32 66 -32 149q-1 106 48 188q49 81 133 127t176 68q91 22 192 22q182 0 318 -57t225 -207l-148 -78
q-109 177 -393 181q-151 0 -262 -63t-111 -183q0 -53 28 -95q27 -40 88 -66q59 -25 118 -39q58 -14 151 -30q126 -20 171 -30q74 -17 151 -47q84 -33 132 -75q47 -41 82 -113q34 -69 34 -165q-1 -202 -148 -305q-146 -103 -360 -119z" />
    <glyph glyph-name="scedilla" unicode="&#x15f;" horiz-adv-x="1024" 
d="M563 -104l2 -2q122 4 169 -56q46 -59 28 -137q-18 -74 -85 -112q-64 -37 -149 -35q-158 5 -223 108l78 64q50 -68 143 -64q91 0 109 59q18 54 -37 82t-137 0l-33 25l47 147q-266 15 -405 193l96 117q128 -158 360 -158q102 0 177 37q78 38 79 121q1 76 -68 110
q-70 35 -204 51q-87 11 -148 27q-58 16 -124 47q-63 30 -98 85q-34 53 -34 132q0 102 64 172t153 99q86 28 193 26q235 0 385 -135l-96 -111q-108 99 -285 99q-111 2 -181 -37q-71 -39 -69 -111q1 -120 252 -149q36 -4 118 -17q42 -7 112 -29q63 -20 103 -52q38 -31 67 -85
q28 -52 26 -126q-1 -133 -103 -211t-259 -93z" />
    <glyph glyph-name="Scaron" unicode="&#x160;" horiz-adv-x="1359" 
d="M352 1874v12h174l176 -164l183 164h170v-12l-299 -277h-109zM1077 1126l2 -4q-109 177 -393 181q-151 0 -262 -63t-111 -183q0 -53 28 -95q27 -40 88 -66q59 -25 118 -39q58 -14 151 -30q126 -20 171 -30q74 -17 151 -47q84 -33 132 -75q47 -41 82 -113q34 -69 34 -165
q0 -114 -53 -200q-55 -89 -139 -134q-88 -47 -185 -69q-101 -23 -207 -23q-205 0 -367 81q-160 80 -239 251l155 80q55 -118 183 -181t270 -63q66 0 137 13q65 12 127 39q61 27 99 82q36 52 36 130q0 65 -30 111q-31 48 -93 76q-64 29 -127 45q-57 15 -157 31
q-112 17 -165 29q-66 15 -144 45q-80 31 -125 70q-49 43 -79 104q-32 66 -32 149q-1 106 48 188q49 81 133 127t176 68q91 22 192 22q182 0 318 -57t225 -207z" />
    <glyph glyph-name="scaron" unicode="&#x161;" horiz-adv-x="1021" 
d="M571 1167h-100l-274 258v13h163l164 -154l166 154h162v-13zM72 168l-2 -4q154 -193 452 -193q179 0 301 80q121 79 123 225q2 64 -15 108q-19 50 -52 79q-38 33 -72 52q-39 22 -93 36q-48 13 -96 20q-95 15 -98 15q-117 15 -182 47q-69 33 -70 102q-2 72 69 111
q70 39 181 37q176 0 287 -99l96 111q-150 135 -385 135q-107 2 -193 -26q-89 -29 -153 -99t-64 -172q0 -77 35 -132q35 -54 99 -85q65 -31 125 -47q61 -17 147 -27q134 -16 204 -51q69 -34 68 -110q-1 -82 -79 -119q-76 -37 -177 -35q-232 0 -360 158z" />
    <glyph glyph-name="Tcommaaccent" unicode="&#x162;" horiz-adv-x="1234" 
d="M528 2v1268h-491v162h1161v-162h-491v-1270h-56l-22 -88q125 2 173 -63q48 -64 27 -152q-17 -69 -70 -109q-54 -40 -124 -51q-82 -12 -161 18q-80 30 -120 99l80 72q35 -52 98 -64q64 -12 97 16q59 0 71 43q18 60 -41 94q-58 33 -143 3l-35 26z" />
    <glyph glyph-name="tcommaaccent" unicode="&#x163;" horiz-adv-x="815" 
d="M270 1288l168 19v-297h314v-144h-316v-485q0 -121 32 -182q32 -60 130 -60q63 0 141 35l49 -139q-104 -48 -196 -49q-19 0 -33 2l-24 -90q123 4 174 -56t30 -143q-18 -71 -82 -111t-145 -41q-75 -4 -145 26q-71 31 -105 85l80 68q51 -64 145 -68q105 0 121 63
q18 54 -40 82t-146 0l-29 27l51 180q-96 34 -135 126t-39 245v485h-202v144h202v278z" />
    <glyph glyph-name="Tcaron" unicode="&#x164;" horiz-adv-x="1234" 
d="M272 1843v15h174l177 -164l182 164h170v-15l-299 -274h-109zM526 1268h-489v164h1161v-164h-489v-1268h-183v1268z" />
    <glyph glyph-name="tcaron" unicode="&#x165;" horiz-adv-x="888" 
d="M414 1307h-2v-297h225v-144h-225v-534q0 -95 37 -144t124 -49q69 0 142 37l51 -141q-104 -48 -199 -49q-160 -3 -239.5 83.5t-79.5 262.5v534h-180v144h180v278zM813 1303h160l-121 -340h-125z" />
    <glyph glyph-name="Tbar" unicode="&#x166;" horiz-adv-x="1251" 
d="M291 754h244v514h-490v164h1161v-164h-489v-514h250v-138h-250v-616h-182v616h-244v138z" />
    <glyph glyph-name="tbar" unicode="&#x167;" horiz-adv-x="813" 
d="M115 627h155v239h-202v144h202v278l168 19v-297h314v-144h-316v-239h236v-123h-236v-172q0 -193 160 -193q68 0 141 37l49 -141q-104 -48 -196 -49q-160 -3 -240 83.5t-80 262.5v172h-155v123z" />
    <glyph glyph-name="Utilde" unicode="&#x168;" horiz-adv-x="1517" 
d="M487 1649l-4 4q22 89 92 130q68 40 156 11q14 -5 59 -27q47 -23 56 -24q82 -30 110 53l113 -45q-22 -99 -93 -137q-69 -37 -147 -8q-21 8 -58 27q-48 25 -56 26q-86 30 -119 -60zM1341 1438l2 -2v-861q0 -285 -166 -441q-168 -157 -415 -157q-246 0 -417 156t-171 442
v861h180v-861q0 -205 117 -317q118 -113 291 -113q171 0 286 115q113 113 113 318v860h180z" />
    <glyph glyph-name="utilde" unicode="&#x169;" horiz-adv-x="1245" 
d="M342 1303l-2 2q22 87 92 128q68 40 154 9q10 -4 58 -27q47 -23 56 -24q82 -27 111 53l113 -47q-22 -95 -94 -132q-71 -36 -146 -8q-5 2 -57 29q-50 26 -58 27q-85 27 -118 -60zM938 2h2l-8 162q-129 -174 -352 -178q-198 0 -319 126q-122 127 -122 343v559h168v-557
q0 -149 82 -232q83 -84 225 -84q137 2 225 97q87 94 87 233v543h168v-1012h-156z" />
    <glyph glyph-name="Umacron" unicode="&#x16a;" horiz-adv-x="1517" 
d="M434 1743h664v-144h-664v144zM1341 1434l2 -2v-861q0 -285 -166 -441q-168 -157 -415 -157q-246 0 -417 156t-171 442v861h180v-861q0 -205 117 -317q118 -113 291 -113q171 0 286 115q113 113 113 317v861h180z" />
    <glyph glyph-name="umacron" unicode="&#x16b;" horiz-adv-x="1247" 
d="M309 1434h625v-136h-625v136zM938 0h2l-8 162q-129 -174 -352 -178q-198 0 -319 126q-122 127 -122 343v559h168v-557q0 -149 82 -232q83 -84 225 -84q137 2 225 97q87 94 87 233v543h168v-1012h-156z" />
    <glyph glyph-name="Ubreve" unicode="&#x16c;" horiz-adv-x="1517" 
d="M1053 1847h-2q6 -129 -74 -201q-81 -73 -207 -73t-207 73q-80 73 -76 201h138q0 -62 35 -103q36 -42 110 -42q72 0 108 42q35 41 35 103h140zM1341 1434l2 -2v-861q0 -285 -166 -441q-168 -157 -415 -157q-246 0 -417 156t-171 442v861h180v-861q0 -205 117 -317
q118 -113 291 -113q171 0 286 115q113 113 113 317v861h180z" />
    <glyph glyph-name="ubreve" unicode="&#x16d;" horiz-adv-x="1247" 
d="M909 1427l-2 -2q6 -123 -73 -192q-81 -70 -203 -70q-124 0 -204 71q-79 70 -73 193h135q0 -59 36 -99t108 -40t106 40q35 41 35 99h135zM938 -2h2l-8 162q-129 -174 -352 -178q-198 0 -319 126q-122 127 -122 343v559h168v-557q0 -149 82 -232q83 -84 225 -84
q138 2 225 96q87 95 87 234v543h168v-1012h-156z" />
    <glyph glyph-name="Uring" unicode="&#x16e;" horiz-adv-x="1517" 
d="M518 1702v-2q0 92 70 145t166 53q98 0 166 -52q69 -53 69 -146q0 -94 -68 -146q-70 -53 -167 -53q-100 0 -168 53t-68 148zM752 1802h2q-75 0 -105 -51t0 -101q31 -51 103 -51q75 0 106 51q30 50 -1 101t-105 51zM1341 1432l2 -2v-861q0 -285 -166 -441
q-168 -157 -415 -157q-246 0 -417 156t-171 442v861h180v-861q0 -205 117 -317q118 -113 291 -113q171 0 286 115q113 113 113 317v861h180z" />
    <glyph glyph-name="uring" unicode="&#x16f;" horiz-adv-x="1247" 
d="M397 1311h-2q0 92 68 145t160 53q90 0 160 -53q69 -52 69 -145q0 -92 -67 -145q-65 -52 -162 -52t-161 52q-65 53 -65 145zM618 1413h3q-70 0 -100 -49q-30 -50 0 -99q31 -51 100 -51q72 0 103 51q30 49 -2 99q-31 49 -104 49zM938 0h2l-8 162q-129 -174 -352 -178
q-198 0 -319 126q-122 127 -122 343v559h168v-557q0 -149 82 -232q83 -84 225 -84q137 2 225 97q87 94 87 233v543h168v-1012h-156z" />
    <glyph glyph-name="Uhungarumlaut" unicode="&#x170;" horiz-adv-x="1519" 
d="M666 1831h182l-199 -248h-141zM967 1829h184l-201 -246h-139zM1165 1434l-4 -2v-861q0 -203 -113 -316q-114 -114 -286 -114q-173 0 -291 113q-117 113 -117 319v861h-180v-861q0 -192 85 -331q86 -140 216 -203q133 -64 289 -64q247 0 415 157q167 156 167 441v861h-181
z" />
    <glyph glyph-name="uhungarumlaut" unicode="&#x171;" horiz-adv-x="1245" 
d="M512 1436h176v-4l-188 -230h-135zM801 1436h176v-4l-191 -232h-135zM1092 1012l2 4h-168v-543q0 -139 -87 -234q-89 -97 -225 -98q-143 -1 -225 82t-82 232v557h-168v-559q0 -216 122 -343q121 -126 317 -126q226 5 350 178l8 -162h156v1012z" />
    <glyph glyph-name="Uogonek" unicode="&#x172;" horiz-adv-x="1519" 
d="M1341 1434h2v-861q0 -215 -97 -358t-259 -203q-57 -23 -77 -71q-21 -49 3 -93q33 -62 119 -57q102 5 164 86l100 -70q-34 -65 -105 -104q-69 -38 -153 -43q-166 -10 -235 94q-77 113 -17 221q-257 -7 -435 149q-177 156 -177 447v861h180v-861q0 -205 117 -317
q118 -113 291 -113q171 0 286 115q113 113 113 317v861h180z" />
    <glyph glyph-name="uogonek" unicode="&#x173;" horiz-adv-x="1247" 
d="M1094 -100l2 -2q-107 8 -172 -34q-66 -42 -43 -106q11 -29 43 -48q31 -19 77 -17q91 5 150 80l92 -66q-69 -127 -237 -135q-94 -2 -161 38q-69 40 -91 107q-24 77 22 157t166 101l-8 187q-129 -173 -354 -178q-198 0 -319 126q-122 127 -122 343v559h168v-557
q0 -149 82 -232q83 -84 225 -84q137 2 225 97q87 94 87 233v543h168v-1112z" />
    <glyph glyph-name="Wcircumflex" unicode="&#x174;" horiz-adv-x="2211" 
d="M748 1608l305 272h110l305 -272v-15h-182l-180 160l-176 -160h-182v15zM55 1434h201l395 -1186l398 1186h114l402 -1186l391 1186h203l-510 -1436h-170l-205 571l-168 516l-166 -516l-205 -571h-168z" />
    <glyph glyph-name="wcircumflex" unicode="&#x175;" horiz-adv-x="1718" 
d="M514 1186l293 262h106l291 -262v-12h-172l-172 155l-172 -155h-174v12zM63 1012h187l272 -834l269 834h137l268 -834l272 834h185l-355 -1014h-192l-137 377l-109 368l-110 -368l-138 -377h-190z" />
    <glyph glyph-name="Ycircumflex" unicode="&#x176;" horiz-adv-x="1392" 
d="M346 1606l295 264h107l294 -264v-13h-176l-172 156l-172 -156h-176v13zM602 582l-555 845v7h217l430 -680l441 680h217v-7l-566 -845v-582h-184v582z" />
    <glyph glyph-name="ycircumflex" unicode="&#x177;" horiz-adv-x="1128" 
d="M223 1184l289 264h104l289 -264v-13h-174l-168 154l-168 -154h-172v13zM467 14l-406 998h191l199 -527l108 -288l111 286l223 529h184l-639 -1489h-182z" />
    <glyph glyph-name="Ydieresis" unicode="&#x178;" horiz-adv-x="1392" 
d="M580 1686q0 -63 -52 -91q-51 -27 -103 0t-52 91q0 49 33 76q34 28 70 28q37 0 71 -28q33 -27 33 -76zM1026 1686q0 -64 -51 -91t-104 0q-52 27 -52 91q0 49 33 76q34 28 71 28q36 0 70 -28q33 -27 33 -76zM786 582l566 845v7h-217l-441 -680l-430 680h-217v-7l555 -845
v-582h184v582z" />
    <glyph glyph-name="Zacute" unicode="&#x179;" horiz-adv-x="1243" 
d="M510 1606l152 260h206v-6l-204 -265h-154v11zM104 1266h785l-828 -1170v-96h1102v176h-841l841 1180v78h-1059v-168z" />
    <glyph glyph-name="zacute" unicode="&#x17a;" horiz-adv-x="964" 
d="M381 1186v10l145 238h199v-7l-197 -241h-147zM98 858h539l-574 -792v-66h820v162h-561l561 774v76h-785v-154z" />
    <glyph glyph-name="Zdotaccent" unicode="&#x17b;" horiz-adv-x="1243" 
d="M530 1710q0 70 56 97q55 27 110 0q56 -27 56 -97t-56 -97q-55 -27 -110 0q-56 27 -56 97zM104 1266h785l-828 -1170v-96h1102v176h-841l841 1180v78h-1059v-168z" />
    <glyph glyph-name="zdotaccent" unicode="&#x17c;" horiz-adv-x="964" 
d="M618 1325q0 -70 -55 -97t-110 0q-56 27 -56 97t56 97q55 27 110 0t55 -97zM883 1012v-76l-561 -774h561v-162h-820v66l574 792h-539v154h785z" />
    <glyph glyph-name="Zcaron" unicode="&#x17d;" horiz-adv-x="1243" 
d="M283 1862v14h178l178 -164l184 164h172v-14l-303 -275h-108zM104 1434h1059v-78l-850 -1184h850v-172h-1102v96l834 1172h-791v166z" />
    <glyph glyph-name="zcaron" unicode="&#x17e;" horiz-adv-x="964" 
d="M561 1157h-102l-281 262v13h168l164 -154l172 154h164v-13zM98 1012h785v-76l-570 -774h570v-162h-820v66l574 792h-539v154z" />
    <glyph glyph-name="longs" unicode="&#x17f;" horiz-adv-x="626" 
d="M264 0l2 -2v854h-198v147h198v80q0 175 90 271t250 96q121 0 230 -74l-70 -125q-86 51 -156 51q-178 0 -178 -219v-1079h-168z" />
    <glyph glyph-name="florin" unicode="&#x192;" horiz-adv-x="917" 
d="M311 854l2 -2h-198v147h198v80q0 175 90 271t250 96q121 0 230 -74l-70 -125q-86 51 -156 51q-178 0 -178 -219v-80h318v-147h-318v-856q0 -175 -83 -272t-240 -97q-104 0 -211 72l67 123q65 -49 135 -49q164 0 164 225v856z" />
    <glyph glyph-name="Aringacute" unicode="&#x1fa;" horiz-adv-x="1556" 
d="M682 1759l160 174h219v-6l-217 -176h-162v8zM899 1384l-2 -4q98 45 98 150q0 83 -65 130q-66 48 -156 48q-86 0 -153 -47q-66 -47 -66 -129q0 -107 100 -150l-620 -1382h198l140 315h809l141 -315h199zM772 1610q69 0 99 -43q29 -43 1 -86t-100 -43q-70 0 -97 43t0 86
t97 43zM776 1235l330 -754h-662z" />
    <glyph glyph-name="aringacute" unicode="&#x1fb;" horiz-adv-x="1302" 
d="M569 1509l148 191h198v-4l-196 -193h-150v6zM432 1272v-2q0 -83 61 -132q60 -48 152 -48q91 0 152 48t61 134q0 84 -63 132t-150 48t-150 -48t-63 -132zM643 1360h-2q67 0 96 -45q28 -44 1 -91q-27 -46 -95 -46q-67 0 -94 46t0 91t94 45zM1149 -2v4v1012h-164l-2 -185
q-53 96 -155 149q-101 52 -218 52q-223 0 -371 -142q-149 -143 -149 -382q0 -241 148 -386q148 -144 370 -143q112 0 215 53q104 54 160 152l4 -184h162zM621 877l-3 2q100 0 180 -41q79 -40 120 -107q42 -68 59 -144q18 -79 0 -158q-17 -76 -59 -144q-41 -66 -119 -107
q-79 -41 -178 -41q-153 0 -259 103q-104 101 -104 268q0 166 104 267q105 102 259 102z" />
    <glyph glyph-name="AEacute" unicode="&#x1fc;" horiz-adv-x="1886" 
d="M948 1606l154 262h205v-6l-205 -267h-154v11zM174 0l248 410h485v-410h869v174h-699v461h647v168h-647v461h680v170h-903l-889 -1434h209zM909 1237l-2 -143v-523h-385z" />
    <glyph glyph-name="aeacute" unicode="&#x1fd;" horiz-adv-x="2076" 
d="M954 1198l142 244h194v-4l-192 -250h-144v10zM989 827l-2 4q-52 97 -154 149q-103 52 -223 52q-223 0 -371 -142q-149 -143 -149 -382q0 -241 148 -386q146 -144 370 -142q113 0 216 52q105 53 161 152v-184h131l4 172q118 -190 379 -190q124 0 244 47q116 46 190 133
l-110 102q-48 -58 -141 -93q-90 -34 -181 -34q-146 0 -249 83q-100 81 -115 222h858q21 138 -13 254q-34 118 -104 188q-72 72 -168 111t-203 39q-255 0 -385 -196v174h-131zM1137 586v2q21 142 119 221q100 80 237 80q153 0 244 -79q92 -80 98 -224h-698zM621 881v2
q102 0 182 -41q81 -41 121 -107q41 -67 60 -144q19 -79 0 -158q-19 -77 -60 -144q-40 -66 -121 -107q-80 -41 -182 -41q-153 0 -259 103q-104 101 -104 268q0 166 104 267q105 102 259 102z" />
    <glyph glyph-name="Oslashacute" unicode="&#x1fe;" horiz-adv-x="1658" 
d="M750 1616l153 262h205v-6l-205 -264h-153v8zM395 100v2q-143 99 -218 264q-75 164 -75 349q0 146 46 277q47 134 135 238q89 105 229 168q139 62 319 62q176 0 318 -65l96 168h180l-145 -244q135 -102 207 -263q72 -160 72 -343q0 -143 -47 -275t-133 -236
q-87 -105 -228 -168t-320 -63q-165 0 -303 56l-106 -183h-176zM1061 1249q-102 45 -227 45q-268 0 -412 -171q-143 -170 -139 -410q0 -136 52 -256q53 -123 150 -199zM616 178q100 -35 218 -35q264 0 405 168t141 402q0 291 -188 454z" />
    <glyph glyph-name="oslashacute" unicode="&#x1ff;" horiz-adv-x="1216" 
d="M530 1198l138 236h186v-4l-184 -240h-140v8zM324 -121l2 -2l82 139q93 -34 202 -34q228 0 373 146t145 376q0 263 -186 416l117 198h-164l-76 -129q-100 41 -211 41q-224 0 -371 -148t-147 -378q0 -272 195 -418l-123 -207h162zM373 231v-2q-115 100 -115 273
q0 162 99 267t253 105q68 0 129 -26zM856 766h2q107 -107 107 -266q0 -160 -99 -262q-100 -103 -254 -103q-68 0 -118 21z" />
    <glyph glyph-name="Scommaaccent" unicode="&#x218;" horiz-adv-x="1359" 
d="M1077 1126l2 -4q-109 177 -393 181q-151 0 -262 -63t-111 -183q0 -53 28 -95q27 -40 88 -66q59 -25 118 -39q58 -14 151 -30q126 -20 171 -30q74 -17 151 -47q84 -33 132 -75q47 -41 82 -113q34 -69 34 -165q0 -114 -53 -200q-55 -89 -139 -134q-88 -47 -185 -69
q-101 -23 -207 -23q-205 0 -367 81q-160 80 -239 251l155 80q55 -118 183 -181t270 -63q66 0 137 13q65 12 127 39q61 27 99 82q36 52 36 130q0 65 -30 111q-31 48 -93 76q-64 29 -127 45q-57 15 -157 31q-112 17 -165 29q-66 15 -144 45q-80 31 -125 70q-49 43 -79 104
q-32 66 -32 149q-1 106 48 188q49 81 133 127t176 68q91 22 192 22q182 0 318 -57t225 -207zM692 -375l-2 2q-69 17 -69 88q0 69 54 94q52 25 108 -3q55 -28 55 -93q0 -4 -13 -45l-35 -107q-5 -14 -19.5 -57t-20.5 -61h-111z" />
    <glyph glyph-name="scommaaccent" unicode="&#x219;" horiz-adv-x="1021" 
d="M805 788l-2 -2q-108 99 -285 99q-111 2 -181 -37q-71 -39 -69 -111q1 -120 252 -149q36 -4 118 -17q42 -7 112 -29q61 -19 103 -53q38 -31 67 -85q28 -52 26 -125q-2 -147 -123 -226q-122 -80 -301 -80q-298 0 -452 193l96 117q128 -156 360 -156q102 0 177 37
q78 38 79 121q1 76 -68 110q-70 35 -204 51q-87 11 -148 27q-58 16 -124 47q-63 30 -98 85q-34 53 -34 132q0 102 64 172t153 99q86 28 193 26q235 0 385 -135zM504 -360v-2q-66 16 -66 86q0 64 51 89q52 26 103 -1t51 -91q0 -7 -12 -45q-3 -8 -35 -101q-7 -21 -37 -110
h-104z" />
    <glyph glyph-name="uni021A" unicode="&#x21a;" horiz-adv-x="1234" 
d="M526 1268h-489v164h1161v-164h-489v-1268h-183v1268zM582 -371l-2 2q-70 17 -70 90q0 69 54 94t109 -2q54 -27 54 -96q0 -7 -12 -45l-36 -107q-5 -14 -19.5 -57t-20.5 -61h-111z" />
    <glyph glyph-name="uni021B" unicode="&#x21b;" horiz-adv-x="815" 
d="M438 1307v-297h314v-144h-316v-534q0 -193 160 -193q68 0 141 37l49 -141q-104 -48 -196 -49q-160 -3 -240 83.5t-80 262.5v534h-202v144h202v278zM481 -358v-4q-65 16 -65 86q0 64 51 89q51 26 102 -1q52 -28 52 -88q0 -5 -13 -46q-3 -8 -35 -101q-9 -25 -22 -65
t-14 -44h-107z" />
    <glyph glyph-name="dotlessj" unicode="&#x237;" horiz-adv-x="475" 
d="M319 1014l3 2v-1147q1 -183 -68 -278t-231 -95q-103 0 -201 58l55 135q70 -39 137 -35q86 2 113 54t27 159v1147h165z" />
    <glyph glyph-name="circumflex" unicode="&#x2c6;" horiz-adv-x="866" 
d="M356 1448h109l295 -274v-15h-174l-176 162l-174 -162h-175v15z" />
    <glyph glyph-name="caron" unicode="&#x2c7;" horiz-adv-x="827" 
d="M55 1421v15h174l177 -166l182 166h170v-15l-299 -276h-107z" />
    <glyph glyph-name="breve" unicode="&#x2d8;" horiz-adv-x="714" 
d="M629 1434l-2 -7q6 -129 -74 -201t-207 -71q-127 0 -207 74q-79 73 -73 203h135q0 -62 36 -104t109 -42q72 0 108 42q35 41 35 106h140z" />
    <glyph glyph-name="dotaccent" unicode="&#x2d9;" horiz-adv-x="413" 
d="M74 1341q0 71 55 98q56 27 111 -1t55 -99q0 -70 -55 -97q-56 -27 -111 1t-55 98z" />
    <glyph glyph-name="ring" unicode="&#x2da;" horiz-adv-x="737" 
d="M96 1247h2q0 102 71 162q69 59 169 59q98 0 169 -58q73 -59 73 -161q0 -104 -71 -164q-69 -59 -173 -59q-103 0 -171 58q-69 58 -69 163zM338 1360q-78 0 -107 -56q-30 -56 0 -113q29 -56 107 -56t109 56q31 57 -1 113t-108 56z" />
    <glyph glyph-name="ogonek" unicode="&#x2db;" horiz-adv-x="804" 
d="M496 -119l-2 2q-109 21 -185 -25q-75 -46 -51 -118q27 -73 119 -68q89 4 149 78l95 -63q-70 -130 -238 -138q-94 -2 -160 38q-67 41 -90 108q-7 35 -9 75q-1 39 22 79t60 70q36 30 104 43t155 1z" />
    <glyph glyph-name="tilde" unicode="&#x2dc;" horiz-adv-x="733" 
d="M61 1350l-4 6q23 92 91 134q68 41 155 11q17 -7 59 -28q50 -26 58 -27q82 -30 110 55l113 -47q-23 -100 -93 -138q-70 -37 -147 -7q-21 8 -58 27q-48 25 -56 26q-86 30 -119 -62z" />
    <glyph glyph-name="hungarumlaut" unicode="&#x2dd;" horiz-adv-x="796" 
d="M45 1180l164 256h192v-4l-206 -252h-150zM360 1178l164 258h193v-4l-209 -254h-148z" />
    <glyph glyph-name="commaaccentcomb" unicode="&#x326;" horiz-adv-x="0" 
d="M457 -367h2q-72 18 -72 93q0 67 54 94t110 -2q55 -28 55 -97q0 -7 -12 -45q-4 -12 -16.5 -48t-20.5 -60q-9 -26 -22.5 -66t-18.5 -55h-113z" />
    <glyph glyph-name="_375" unicode="&#x394;" 
d="M1391 0h-1407l643 1434h121zM686 1233l-473 -1086h948z" />
    <glyph glyph-name="Omega" unicode="&#x3a9;" horiz-adv-x="1673" 
d="M172 156h250q-157 92 -236 241q-80 151 -80 330q0 202 85 366t253 266q166 101 392 101q334 0 532 -212q199 -213 199 -521q0 -179 -80 -330q-78 -147 -236 -243h252v-156h-512v160q189 51 295 211q105 159 105 354q0 234 -145 402q-144 167 -408 167q-265 0 -409 -167
t-144 -402q0 -197 104 -354q106 -160 295 -209v-160h-512v156z" />
    <glyph glyph-name="mu" unicode="&#x3bc;" horiz-adv-x="1243" 
d="M170 -453v2v1444h174v-575q0 -144 92 -228t215 -84q121 0 210 87q87 85 87 249v549h176v-991h-157l-15 125q-43 -82 -128 -125t-177 -43q-234 0 -303 170v-580h-174z" />
    <glyph glyph-name="pi" unicode="&#x3c0;" horiz-adv-x="1394" 
d="M293 0l-2 -2v866h-234v146h1270v-146h-237v-561q0 -105 43 -149q43 -45 153 -27l10 -133q-186 -34 -279 48t-91 261v563h-467v-866h-166z" />
    <glyph glyph-name="Wgrave" unicode="&#x1e80;" horiz-adv-x="2211" 
d="M844 1853v5h200l150 -254v-11h-152zM55 1434h201l395 -1186l398 1186h114l402 -1186l391 1186h203l-510 -1436h-170l-205 571l-168 516l-166 -516l-205 -571h-168z" />
    <glyph glyph-name="wgrave" unicode="&#x1e81;" horiz-adv-x="1718" 
d="M621 1427v7h190l139 -238v-10h-141zM63 1012h187l272 -834l269 834h137l268 -834l272 834h185l-355 -1014h-192l-137 377l-109 368l-110 -368l-138 -377h-190z" />
    <glyph glyph-name="Wacute" unicode="&#x1e82;" horiz-adv-x="2211" 
d="M1018 1606l145 241h195v-6l-193 -244h-147v9zM735 -2l205 571l166 516l168 -516l205 -571h170l510 1436h-203l-391 -1186l-402 1186h-114l-398 -1186l-395 1186h-201l512 -1436h168z" />
    <glyph glyph-name="wacute" unicode="&#x1e83;" horiz-adv-x="1718" 
d="M768 1198l137 236h189v-7l-185 -237h-141v8zM612 -2l138 377l110 368l109 -368l137 -377h192l355 1014h-185l-272 -834l-268 834h-137l-269 -834l-272 834h-187l359 -1014h190z" />
    <glyph glyph-name="Wdieresis" unicode="&#x1e84;" horiz-adv-x="2211" 
d="M760 1724q0 40 22 66q22 27 55 33q31 6 64 0q31 -6 55 -34q23 -28 23 -67q0 -65 -55 -92t-110 1q-54 27 -54 93zM1231 1724q0 50 34 77q36 28 75 28q40 0 76 -28q34 -27 34 -77q0 -49 -34 -76q-36 -28 -76 -28q-39 0 -75 28q-34 27 -34 76zM735 0l205 571l166 516
l168 -516l205 -571h170l510 1436h-203l-391 -1186l-402 1186h-114l-398 -1186l-395 1186h-201l512 -1436h168z" />
    <glyph glyph-name="wdieresis" unicode="&#x1e85;" horiz-adv-x="1718" 
d="M541 1343q0 50 31 77q33 28 71 28t71 -28q31 -27 31 -77q0 -63 -51 -89t-102 0t-51 89zM981 1341q0 40 20 66q21 27 51 33q29 6 60 1q30 -4 51 -32q21 -27 21 -66q0 -63 -51 -89q-52 -26 -102 0t-50 87zM612 -4l138 377l110 368l109 -368l137 -377h192l355 1014h-185
l-272 -834l-268 834h-137l-269 -834l-272 834h-187l359 -1014h190z" />
    <glyph glyph-name="Ygrave" unicode="&#x1ef2;" horiz-adv-x="1392" 
d="M449 1841v4h196l143 -243v-11h-145zM602 582l-555 845v7h217l430 -680l441 680h217v-7l-566 -845v-582h-184v582z" />
    <glyph glyph-name="ygrave" unicode="&#x1ef3;" horiz-adv-x="1128" 
d="M332 1430v4h196l142 -230v-10h-146zM1077 1012l-639 -1489h-182l211 491l-406 998h191l199 -527l108 -288l111 286l223 529h184z" />
    <glyph glyph-name="endash" unicode="&#x2013;" horiz-adv-x="1232" 
d="M147 662h938v-158h-938v158z" />
    <glyph glyph-name="emdash" unicode="&#x2014;" horiz-adv-x="1441" 
d="M147 662h1147v-158h-1147v158z" />
    <glyph glyph-name="quoteleft" unicode="&#x2018;" horiz-adv-x="481" 
d="M385 1436l-94 -392h-180l137 392h137z" />
    <glyph glyph-name="quoteright" unicode="&#x2019;" horiz-adv-x="471" 
d="M115 1036l96 400h180l-137 -400h-139z" />
    <glyph glyph-name="quotesinglbase" unicode="&#x201a;" horiz-adv-x="495" 
d="M78 -236l94 398h180l-137 -398h-137z" />
    <glyph glyph-name="quotedblleft" unicode="&#x201c;" horiz-adv-x="778" 
d="M383 1430l-96 -396h-181l140 396h137zM682 1430l-98 -396h-181l140 396h139z" />
    <glyph glyph-name="quotedblright" unicode="&#x201d;" horiz-adv-x="772" 
d="M119 1047l96 389h180l-137 -389h-139zM418 1047l94 389h180l-137 -389h-137z" />
    <glyph glyph-name="quotedblbase" unicode="&#x201e;" horiz-adv-x="792" 
d="M76 -236l96 398h180l-137 -398h-139zM375 -236l94 398h180l-137 -398h-137z" />
    <glyph glyph-name="dagger" unicode="&#x2020;" horiz-adv-x="1163" 
d="M1094 885h-422v-1141h-178v1141h-424v153h424v396h178v-396h422v-153z" />
    <glyph glyph-name="daggerdbl" unicode="&#x2021;" horiz-adv-x="1255" 
d="M1141 887h-424v-518h424v-154h-424v-479h-178v479h-424v154h424v518h-424v153h424v394h178v-394h424v-153z" />
    <glyph glyph-name="bullet" unicode="&#x2022;" horiz-adv-x="808" 
d="M406 350v2q-100 0 -165 62t-65 161q0 100 65 163t165 63q94 0 160 -64q65 -63 65 -164q0 -99 -65 -161t-160 -62z" />
    <glyph glyph-name="ellipsis" unicode="&#x2026;" horiz-adv-x="1296" 
d="M133 92q0 70 55 97q56 27 111 -1t55 -98t-55 -97q-56 -27 -111 1t-55 98zM539 92q0 70 55 97q56 27 111 -1t55 -98t-55 -97q-56 -27 -111 1t-55 98zM942 92q0 70 55 97q56 27 111 -1t55 -98t-55 -97q-56 -27 -111 1t-55 98z" />
    <glyph glyph-name="perthousand" unicode="&#x2030;" horiz-adv-x="2273" 
d="M418 1452q124 0 207 -64t103 -156q19 -91 0 -182q-20 -92 -103 -156q-85 -65 -207 -65q-88 0 -158 35q-69 35 -104 89q-35 55 -53 121t0 133q18 66 53 121q35 54 104 89q70 35 158 35zM1149 1438h192l-925 -1438h-195zM418 1319h-2q-113 0 -159 -88t1 -177t162 -89
q69 0 114 36q45 37 56 90q10 52 0 103q-10 49 -58 88q-46 37 -114 37zM1151 608h-2q124 0 207 -64t103 -156q19 -91 0 -182q-20 -92 -103 -156t-207 -64t-206 64q-83 64 -102 156q-19 91 0 182q20 92 103 156t207 64zM1901 608h-3q124 0 207 -64q85 -65 104 -156t0 -182
t-104 -156q-83 -64 -207 -64q-123 0 -205 64q-84 65 -103 156t0 182t104 156q83 64 207 64zM1147 477q-112 0 -159 -89t0 -179q46 -90 159 -90q69 0 115 37q47 38 57 89q11 54 -1 105q-12 54 -57 90q-46 37 -114 37zM1898 477h3q-112 0 -159 -89t0 -179q46 -90 159 -90
q111 0 158 90q46 89 -1 179q-47 89 -160 89z" />
    <glyph glyph-name="guilsinglleft" unicode="&#x2039;" horiz-adv-x="647" 
d="M90 610l283 451h180l-281 -451l281 -452h-180z" />
    <glyph glyph-name="guilsinglright" unicode="&#x203a;" horiz-adv-x="651" 
d="M379 608l-281 451h181l282 -451l-282 -452h-181z" />
    <glyph glyph-name="fraction" unicode="&#x2044;" horiz-adv-x="313" 
d="M-311 -6l776 1450h158l-777 -1450h-157z" />
    <glyph glyph-name="zerosuperior" unicode="&#x2070;" horiz-adv-x="796" 
d="M84 1356v2q0 89 35 161q34 70 90 106q54 35 122 52q67 17 134 -1q70 -19 123 -53q56 -36 90 -106q35 -72 35 -161v-109q0 -105 -46 -181q-47 -78 -117 -112q-69 -34 -152 -34q-82 0 -151 34q-70 34 -117 112q-46 76 -46 181v109zM215 1247q0 -95 56 -147q57 -52 123 -54
q65 -1 123 53q56 53 56 148v111q0 81 -36 131q-37 53 -90 66t-105 0t-90 -66q-37 -53 -37 -131v-111z" />
    <glyph glyph-name="foursuperior" unicode="&#x2074;" horiz-adv-x="749" 
d="M584 1673v-469h88v-121h-88v-147h-133v147h-394l-6 111l352 479h181zM451 1204v340l-252 -340h252z" />
    <glyph glyph-name="fivesuperior" unicode="&#x2075;" horiz-adv-x="741" 
d="M371 1405l2 -4q141 0 221 -63q79 -63 78 -179q0 -115 -81 -178t-216 -63q-126 0 -209 52q-85 53 -86 171h131q0 -103 160 -103q164 0 164 123q0 125 -164 125h-275v385h531v-119h-402v-147h146z" />
    <glyph glyph-name="sixsuperior" unicode="&#x2076;" horiz-adv-x="768" 
d="M229 1329l-2 -2q59 59 168 59q127 0 213 -54t86 -181q0 -118 -89 -177t-210 -59q-122 0 -211 62q-88 61 -88 178v285q0 119 85 179t206 60q125 0 208 -51t87 -151h-133q-11 84 -160 84q-160 0 -160 -121v-111zM395 1030v-2q68 0 116 30t48 91q0 62 -48 92q-50 31 -116 31
t-117 -31t-51 -90q0 -61 49 -91t119 -30z" />
    <glyph glyph-name="sevensuperior" unicode="&#x2077;" horiz-adv-x="649" 
d="M59 1671h547l8 -57l-350 -680h-153l325 616h-377v121z" />
    <glyph glyph-name="eightsuperior" unicode="&#x2078;" horiz-adv-x="786" 
d="M78 1130l4 3q0 61 39 109q40 50 100 67q-127 45 -127 159q0 108 88 160q89 53 209 53q122 0 210 -52q89 -53 89 -161q0 -114 -123 -161q61 -18 101 -69q39 -49 39 -110q0 -119 -94 -172q-93 -52 -222 -51q-129 0 -221 53q-92 54 -92 172zM555 1468v-2q0 54 -49 79
q-50 26 -111 26t-111 -26t-48 -77q0 -52 45 -78q46 -26 114 -26q69 0 115 26q45 26 45 78zM569 1133v-5q0 56 -52 87q-53 32 -122 32q-71 0 -122 -29q-52 -30 -52 -88q0 -50 53 -80q52 -30 121 -30t121 30q53 30 53 83z" />
    <glyph glyph-name="ninesuperior" unicode="&#x2079;" horiz-adv-x="772" 
d="M672 1157l4 -2q0 -119 -86 -179q-87 -61 -207 -61q-124 0 -208 52q-83 51 -87 151h133q11 -84 160 -84q160 0 160 121v113q-60 -60 -168 -60q-126 0 -213 55q-86 54 -86 183q0 118 89 177q88 58 210 58q123 0 211 -60t88 -177v-287zM375 1563q-67 0 -116 -29
q-48 -28 -48 -90t48 -92q50 -31 116 -31q67 0 118 31q50 30 50 90q0 61 -49 91t-119 30z" />
    <glyph glyph-name="zeroinferior" unicode="&#x2080;" horiz-adv-x="796" 
d="M84 250q0 105 46 181q46 77 117 111q67 33 151 33q83 0 152 -34q70 -35 117 -111q46 -76 46 -180v-109q0 -105 -46 -181q-47 -76 -117 -111q-67 -33 -152 -33q-84 0 -151 33q-71 35 -117 111t-46 181v109zM215 139q0 -95 56 -147q57 -52 123 -54q65 -1 123 53
q56 53 56 148v109q0 81 -36 131q-37 53 -90 66t-105 0t-90 -66q-37 -52 -37 -131v-109z" />
    <glyph glyph-name="oneinferior" unicode="&#x2081;" horiz-adv-x="524" 
d="M76 -57h129v469l-111 -27v119l246 59v-620h131v-119h-395v119z" />
    <glyph glyph-name="twoinferior" unicode="&#x2082;" horiz-adv-x="743" 
d="M84 352h4q0 117 83 171q84 55 200 55q125 0 209 -55q82 -54 82 -175q0 -68 -26 -115t-73 -68q-51 -23 -84 -31q-34 -8 -90 -13q-172 -15 -172 -117v-43h434v-133h-571v178q0 109 76 161q77 53 190 60q178 15 178 121q0 111 -155 111q-150 0 -152 -107h-133z" />
    <glyph glyph-name="threeinferior" unicode="&#x2083;" horiz-adv-x="749" 
d="M213 39l-2 6q10 -104 158 -104q63 0 112 24t49 84q0 42 -38 74q-39 33 -119 33h-113v108h105q152 0 153 98q0 37 -38 69t-113 32q-149 0 -160 -107h-121q0 111 83 165t198 54q117 0 200 -55q84 -56 84 -160q0 -56 -29 -97t-79 -56q58 -16 93 -63q34 -46 34 -97
q0 -122 -89 -178q-88 -55 -216 -55q-122 0 -205 55q-84 56 -86 170h139z" />
    <glyph glyph-name="fourinferior" unicode="&#x2084;" horiz-adv-x="747" 
d="M584 563v-471h86v-121h-86v-147h-133v147h-394l-6 113l352 479h181zM451 92v342l-252 -342h252z" />
    <glyph glyph-name="fiveinferior" unicode="&#x2085;" horiz-adv-x="741" 
d="M371 297l2 -2q141 0 221 -63q79 -63 78 -181q0 -113 -81 -177q-80 -64 -216 -64q-124 0 -209 53q-84 53 -86 172h131q0 -103 160 -103q164 0 164 121q0 125 -164 125h-275v387h531v-119h-402v-149h146z" />
    <glyph glyph-name="sixinferior" unicode="&#x2086;" horiz-adv-x="768" 
d="M229 225l-2 -2q60 60 168 60q126 0 213 -55q86 -54 86 -181q0 -118 -89 -177q-88 -58 -210 -58q-123 0 -211 61t-88 178v285q0 119 85 179t206 60q125 0 208 -51t87 -151h-133q-11 84 -160 84q-160 0 -160 -121v-111zM395 -74v-2q68 0 116 30t48 91q0 62 -48 92
q-50 31 -116 31t-117 -31t-51 -90q0 -61 49 -91q50 -30 119 -30z" />
    <glyph glyph-name="seveninferior" unicode="&#x2087;" horiz-adv-x="645" 
d="M57 563h547l8 -57l-350 -682h-153l325 618h-377v121z" />
    <glyph glyph-name="eightinferior" unicode="&#x2088;" horiz-adv-x="788" 
d="M80 37h2q0 61 39 109q40 49 102 67q-127 45 -127 162q0 108 88 160q89 53 209 53q122 0 210 -52q89 -53 89 -161q0 -115 -123 -160q61 -18 101 -69q39 -50 39 -109q0 -119 -93 -172q-92 -53 -223 -53q-129 0 -221 53t-92 172zM555 371q0 54 -49 79t-111 25
q-63 0 -112 -25t-47 -79q0 -53 45 -79q46 -26 114 -26q69 0 115 26q45 26 45 79zM569 37q0 56 -52 87q-53 32 -122 32t-122 -30q-52 -30 -52 -89q0 -51 53 -81q52 -30 121 -30t121 30q53 30 53 81z" />
    <glyph glyph-name="nineinferior" unicode="&#x2089;" horiz-adv-x="765" 
d="M672 51l2 2q0 -119 -85 -179q-86 -60 -206 -60q-125 0 -208 51t-87 151h133q11 -84 160 -84q160 0 160 121v111q-60 -60 -168 -60q-126 0 -213 55q-86 54 -86 181q0 118 89 177q88 58 210 58q123 0 211 -61t88 -178v-285zM373 461v2q-68 0 -116 -30t-48 -91q0 -62 48 -92
q50 -31 116 -31t117 31t51 90q0 61 -49 91t-119 30z" />
    <glyph glyph-name="Euro" unicode="&#x20ac;" horiz-adv-x="1255" 
d="M1180 16v-6q-125 -41 -252 -41q-305 0 -478 143q-175 144 -227 396h-135v141h115q-2 10 -2 56q0 35 2 63h-117v143h137q50 244 228 394q177 149 475 149q102 0 213 -33l-52 -157q-73 20 -157 20q-415 0 -516 -373h518l-35 -143h-518q-2 -24 -2 -59q0 -34 2 -54h487
l-30 -141h-424q90 -367 518 -367q102 0 200 37z" />
    <glyph glyph-name="afii61289" unicode="&#x2113;" horiz-adv-x="821" 
d="M416 301q0 -90 76 -126t190 -9v-141q-207 -68 -340 4t-133 305l-100 -49l-29 94q76 31 127 61v682q0 186 69 264t250 78q277 0 226 -395q-34 -299 -336 -573v-195zM410 1122q0 -112 -1 -230t-1 -255q218 251 245 450q2 20 4.5 59t3.5 58q5 61 -28 107q-33 47 -103 47
q-57 0 -89 -71q-31 -69 -31 -165z" />
    <glyph glyph-name="uni2117" unicode="&#x2117;" horiz-adv-x="1695" 
d="M848 1462q344 0 542 -214q197 -213 197 -533t-197 -533q-198 -215 -542 -215q-343 0 -541 215q-198 214 -198 533t198 533t541 214zM264 715v4q0 -263 157 -437q156 -173 427 -173q270 0 428 173t158 435q0 263 -157 437q-156 173 -429 173q-272 0 -428 -173
q-156 -172 -156 -439zM944 563l-2 -2q74 0 135 29q58 27 89 76q29 45 43 102q14 56 -1 112t-45 103t-88 76q-56 28 -129 28h-354v-770h143v246h209zM733 954v-2h211q84 0 117 -66t-2 -134t-119 -68h-207v270z" />
    <glyph glyph-name="trademark" unicode="&#x2122;" horiz-adv-x="1646" 
d="M793 1436h143l201 -256l204 256h140v-586h-144l6 385l-194 -246h-29l-190 252l6 -391h-143v586zM346 1315h-215v119h571v-119h-217v-465h-139v465z" />
    <glyph glyph-name="estimated" unicode="&#x212e;" horiz-adv-x="1314" 
d="M1139 213q-89 -125 -201 -176t-264 -51q-237 0 -393 159t-156 447q0 289 155 449q154 159 392 159q118 0 218 -35q98 -34 178 -108q79 -73 117 -206t23 -312h-823v-349q119 -108 289 -108q256 0 389 190zM965 1016q-112 88 -293 88q-180 0 -287 -94v-375h580v381z" />
    <glyph glyph-name="uni2153" unicode="&#x2153;" horiz-adv-x="1556" 
d="M100 827h129v469l-110 -26v119l246 59v-621h131v-116h-396v116zM406 -6h-152l774 1450h156zM1024 217h2q10 -102 158 -102q162 0 162 108q0 41 -39 74t-119 33h-115v110h107q151 0 151 99q0 37 -39 68q-40 32 -114 32q-149 0 -160 -107h-119q0 111 83 165q84 55 198 55
q115 0 200 -56q84 -56 84 -159q0 -56 -28 -99q-27 -41 -80 -57q58 -16 93 -63q34 -46 34 -95q0 -122 -89 -178q-88 -55 -216 -55q-122 0 -205 55q-85 56 -86 172h137z" />
    <glyph glyph-name="uni2154" unicode="&#x2154;" horiz-adv-x="1718" 
d="M100 1227h6q0 117 83 171t200 54q127 0 209 -54t82 -175q0 -55 -20 -98q-19 -40 -45 -65q-24 -23 -68 -38q-46 -16 -72 -20q-29 -4 -72 -9q-167 -15 -167 -116v-46h426v-131h-562v179q0 106 73 159q75 55 183 62q91 8 138 35t47 88q0 110 -156 110q-151 0 -152 -106h-133
zM1192 1444h156l-779 -1450h-153zM1235 330h-2v110h104q153 0 154 99q0 36 -38 68t-114 32q-148 0 -159 -107h-121q0 111 83 165q84 55 197 55q116 0 201 -56q84 -56 84 -159q0 -55 -29 -99q-27 -42 -79 -57q58 -16 93 -63q33 -44 33 -95q0 -122 -89 -178q-88 -55 -216 -55
q-121 0 -204 55q-85 56 -86 172h139q10 -102 157 -102q162 0 162 108q0 41 -39 74t-118 33h-113z" />
    <glyph glyph-name="oneeighth" unicode="&#x215b;" horiz-adv-x="1607" 
d="M100 827h129v469l-110 -26v119l246 59v-621h131v-116h-396v116zM254 -6l774 1450h156l-778 -1450h-152zM901 209h2q0 61 39 109q40 49 102 67q-126 44 -126 162q0 108 88 160q89 53 208 53q122 0 210 -52q89 -53 89 -161q0 -115 -122 -160q59 -17 100 -69q39 -50 39 -109
q0 -119 -92 -172t-224 -53q-129 0 -221 53t-92 172zM1376 543q0 54 -49 79t-110 25q-64 0 -113 -25t-47 -79q0 -53 45 -79q46 -26 115 -26q68 0 114 26q45 26 45 79zM1391 209q0 55 -53 87t-121 32q-69 0 -122 -30t-53 -89q0 -50 54 -81q52 -30 121 -30q67 0 120 30
q54 31 54 81z" />
    <glyph glyph-name="threeeighths" unicode="&#x215c;" horiz-adv-x="1730" 
d="M272 1024h-4v111h107q151 0 151 98q0 37 -38 69q-37 31 -113 31q-151 0 -158 -106h-121q0 111 83 165t198 54q118 0 201 -55q85 -56 86 -160q0 -54 -29 -98q-28 -43 -80 -58q59 -16 93 -62t34 -95q0 -123 -89 -179q-88 -55 -216 -55q-122 0 -205 55q-85 56 -86 172h139
q10 -102 158 -102q162 0 162 109q0 40 -39 73t-119 33h-115zM1161 1444h156l-778 -1450h-152zM1024 209h2q0 61 39 109q40 49 102 67q-127 45 -127 162q0 108 88 160q89 53 209 53q122 0 210 -52q89 -53 89 -161q0 -115 -123 -160q61 -18 101 -69q39 -50 39 -109
q0 -119 -92 -172t-224 -53q-129 0 -221 53t-92 172zM1499 543q0 54 -49 79t-111 25q-63 0 -112 -25t-47 -79q0 -53 45 -79q46 -26 114 -26q69 0 115 26q45 26 45 79zM1513 209q0 56 -52 87q-53 32 -122 32t-121 -30q-53 -30 -53 -89q0 -50 54 -81q53 -30 120 -30
q69 0 121 30q53 30 53 81z" />
    <glyph glyph-name="fiveeighths" unicode="&#x215d;" horiz-adv-x="1734" 
d="M391 -6l774 1450h156l-778 -1450h-152zM106 1051v385h529v-119h-399v-150h143q143 0 221 -62q80 -63 80 -181q0 -113 -80 -178q-79 -64 -215 -64q-124 0 -209 53q-84 53 -86 172h131q0 -102 160 -102q164 0 164 121q0 125 -166 125h-273zM1028 209h2q0 61 39 109
q40 49 102 67q-127 45 -127 162q0 107 89 160t208 53q122 0 210 -52q89 -53 89 -161q0 -115 -122 -160q59 -17 100 -69q39 -50 39 -109q0 -119 -92 -172t-224 -53q-129 0 -221 53t-92 172zM1503 543q0 54 -49 79t-111 25q-63 0 -112 -25t-47 -79q0 -53 45 -79
q46 -26 114 -26q69 0 115 26q45 26 45 79zM1518 209q0 55 -53 87t-122 32t-121 -30q-53 -30 -53 -89q0 -50 54 -81q53 -30 120 -30q69 0 121 30q54 31 54 81z" />
    <glyph glyph-name="seveneighths" unicode="&#x215e;" horiz-adv-x="1564" 
d="M987 1444h156l-778 -1450h-152zM457 1315h-377v121h547l8 -60l-350 -680h-154zM860 209h4q0 61 39 109q40 49 103 67q-127 45 -127 162q0 107 87 160q88 53 208 53q121 0 209 -52q90 -53 90 -161q0 -116 -125 -160q59 -17 100 -69q39 -50 39 -109q0 -119 -92 -172
t-224 -53q-84 0 -148 19q-67 20 -115 72t-48 134zM1337 543q0 53 -50 79q-49 25 -111 25q-63 0 -112 -25q-50 -26 -50 -79t45 -79q46 -26 117 -26q68 0 114 26q45 26 47 79zM1350 209q0 55 -53 87t-121 32q-70 0 -122 -30q-53 -30 -53 -89q0 -50 54 -81q53 -30 121 -30
t120 30q54 31 54 81z" />
    <glyph glyph-name="arrowleft" unicode="&#x2190;" horiz-adv-x="1286" 
d="M72 719l454 452l92 -88l-286 -288h833v-156h-833l282 -293l-88 -82z" />
    <glyph glyph-name="arrowup" unicode="&#x2191;" horiz-adv-x="1044" 
d="M524 1274l453 -457l-86 -90l-291 285v-832h-156v832l-292 -283l-82 90z" />
    <glyph glyph-name="arrowright" unicode="&#x2192;" horiz-adv-x="1286" 
d="M1214 719l-454 -455l-92 88l284 291h-831v156h831l-280 291l88 84z" />
    <glyph glyph-name="arrowdown" unicode="&#x2193;" horiz-adv-x="1040" 
d="M520 154l-454 454l88 92l290 -284v831h156v-831l291 280l84 -88z" />
    <glyph glyph-name="uni2196" unicode="&#x2196;" horiz-adv-x="1036" 
d="M133 1104h645l2 -131h-407l590 -590l-111 -111l-588 590l-8 -405l-123 4v643z" />
    <glyph glyph-name="uni2197" unicode="&#x2197;" horiz-adv-x="1038" 
d="M903 459l-131 -2v405l-588 -590l-110 111l590 590l-406 6l2 123h643v-643z" />
    <glyph glyph-name="uni2198" unicode="&#x2198;" horiz-adv-x="1124" 
d="M920 326h-644l-4 123l408 8l-590 587l111 111l590 -588v406l129 -2v-645z" />
    <glyph glyph-name="uni2199" unicode="&#x2199;" horiz-adv-x="1124" 
d="M205 971l131 2v-406l588 588l110 -111l-590 -587l408 -8l-4 -123h-643v645z" />
    <glyph glyph-name="partialdiff" unicode="&#x2202;" horiz-adv-x="1230" 
d="M612 131q164 0 256 107q93 108 93 251q0 144 -93 251q-92 106 -256 106q-166 0 -258 -106t-92 -251q0 -144 92 -251t258 -107zM559 989q96 6 201 -24q104 -30 172 -107q-51 149 -225 274q-170 122 -345 162l37 138q356 -88 544 -321q189 -234 190 -595q1 -239 -140 -388
q-141 -148 -381 -148q-248 0 -385 150q-137 151 -137 357q0 194 123 341q122 146 346 161z" />
    <glyph glyph-name="increment" unicode="&#x2206;" horiz-adv-x="1597" 
d="M1542 0h-1487l643 1434h201zM326 164h944l-471 1077z" />
    <glyph glyph-name="product" unicode="&#x220f;" horiz-adv-x="1404" 
d="M1036 -387v1653h-667v-1653h-183v1821h1033v-1821h-183z" />
    <glyph glyph-name="summation" unicode="&#x2211;" horiz-adv-x="1198" 
d="M334 176h756v-176h-1012v96l454 656l-423 604v78h968v-168h-696l354 -518z" />
    <glyph glyph-name="minus" unicode="&#x2212;" horiz-adv-x="1083" 
d="M150 731h784v-162h-784v162z" />
    <glyph glyph-name="uni2215" unicode="&#x2215;" horiz-adv-x="913" 
d="M-12 -6l776 1450h158l-777 -1450h-157z" />
    <glyph glyph-name="uni2219" unicode="&#x2219;" horiz-adv-x="512" 
d="M141 639q0 43 24 73t57 37q34 7 68 0q33 -7 57 -36t24 -72q0 -70 -58 -101q-57 -30 -114 0q-58 31 -58 99z" />
    <glyph glyph-name="radical" unicode="&#x221a;" horiz-adv-x="1261" 
d="M752 0h-144l-340 705l-180 -78l-49 116l340 152l309 -696l430 1263l117 -32z" />
    <glyph glyph-name="infinity" unicode="&#x221e;" horiz-adv-x="1605" 
d="M453 340q-160 2 -249 97t-87 227q0 132 92 229q91 96 254 96q162 0 342 -221q189 221 340 221q165 0 256 -96q92 -97 92 -229q2 -132 -87 -227t-249 -97q-167 0 -352 219q-85 -101 -169 -161q-82 -58 -183 -58zM457 479q46 0 95 26q51 27 73 49q40 40 71 73q21 25 33 37
l-27 32q-51 58 -71 78q-28 28 -77 54t-97 26q-103 0 -157 -61q-54 -62 -48 -142q4 -71 57 -121q52 -49 148 -51zM1153 479q101 2 154 58t53 131q-1 75 -56 131q-54 55 -151 55q-48 0 -98 -29q-51 -29 -72 -52q-33 -36 -74 -81l-26 -28l30 -31h-2l21 -21l22 -22q1 -1 8 -8.5
t13 -13.5q17 -17 22 -21q2 -1 9.5 -7t13.5 -11q15 -12 24 -16q4 -2 12.5 -6.5t12.5 -6.5q21 -10 27 -12q12 -3 27 -6t30 -3z" />
    <glyph glyph-name="integral" unicode="&#x222b;" horiz-adv-x="956" 
d="M377 1081l2 -2q0 175 90 271t250 96q120 0 229 -74l-69 -125q-85 51 -156 51q-178 0 -178 -219v-1083q0 -175 -83 -272t-241 -97q-104 0 -211 72l68 123q65 -49 135 -49q164 0 164 225v1083z" />
    <glyph glyph-name="approxequal" unicode="&#x2248;" horiz-adv-x="1167" 
d="M264 690l-110 64q44 92 126 135t175 20l290 -96q69 -19 100 -1q32 18 64 77l109 -51q-94 -223 -299 -154l-279 86q-52 21 -102 -3t-74 -77zM264 324l-110 63q44 92 125 135q83 44 174 21l290 -97q69 -18 101 -1q32 18 65 77l109 -51q-96 -223 -301 -154l-279 86
q-52 21 -102 -3t-72 -76z" />
    <glyph glyph-name="notequal" unicode="&#x2260;" horiz-adv-x="1134" 
d="M141 506h295l166 274h-461v158h555l90 149l80 -45l-63 -104h186v-158h-278l-166 -274h444v-158h-536l-93 -153l-81 47l63 106h-201v158z" />
    <glyph glyph-name="lessequal" unicode="&#x2264;" horiz-adv-x="923" 
d="M651 1253l90 -108l-399 -285l403 -297l-96 -106l-493 377v55zM143 328h635v-142h-635v142z" />
    <glyph glyph-name="greaterequal" unicode="&#x2265;" horiz-adv-x="923" 
d="M768 889v-55l-494 -377l-96 106l404 297l-400 285l92 108zM782 186h-637v142h637v-142z" />
    <glyph glyph-name="lozenge" unicode="&#x25ca;" horiz-adv-x="1169" 
d="M651 14h-137l-440 707l440 704h137l447 -704zM262 719l320 -545l333 545l-333 545z" />
    <glyph glyph-name="fi" unicode="&#xfb01;" horiz-adv-x="1208" 
d="M788 1401l-2 2q-89 47 -182 47q-160 0 -250 -97t-90 -272v-80h-198v-145h198v-854h168v854h307v145h-307v80q0 219 178 219q65 0 123 -32zM864 1323q0 70 56 97q55 27 110 -1t55 -98t-55 -97t-110 1q-56 29 -56 98zM891 1018v-1016h168v1016h-168z" />
    <glyph glyph-name="fl" unicode="&#xfb02;" horiz-adv-x="1204" 
d="M733 1272h-2q-57 31 -121 31q-178 0 -178 -222v-80h295v-147h-295v-852h-168v852h-198v147h198v80q0 175 90 271t250 96q92 0 174 -43zM1038 1434v-1434h-168v1434h168z" />
    <glyph glyph-name="a.alt" horiz-adv-x="1140" 
d="M848 160l-2 2q-61 -88 -162 -133q-100 -45 -211 -45q-169 0 -285 85t-116 250q0 161 118 243q119 83 287 81q207 0 357 -84v80q0 126 -94 184q-95 58 -234 58q-172 0 -330 -76l-31 141q193 86 363 86q222 0 356 -93q133 -93 133 -302v-637h-141zM838 416q-63 37 -161 62
q-94 24 -175 24q-112 0 -188 -45t-76 -142q0 -94 79 -140t181 -46q131 0 234 80q101 79 106 207z" />
    <glyph glyph-name="aacute.alt" horiz-adv-x="1140" 
d="M446 1188v10l140 244h202v-6l-190 -248h-152zM848 160l-2 2q-61 -88 -162 -133q-100 -45 -211 -45q-169 0 -285 85t-116 250q0 161 118 243q119 83 287 81q207 0 357 -84v80q0 126 -94 184q-95 58 -234 58q-172 0 -330 -76l-31 141q193 86 363 86q222 0 356 -93
q133 -93 133 -302v-637h-141zM838 416q-63 37 -161 62q-94 24 -175 24q-112 0 -188 -45t-76 -142q0 -94 79 -140t181 -46q131 0 234 80q101 79 106 207z" />
    <glyph glyph-name="abreve.alt" horiz-adv-x="1140" 
d="M844 1444h-2q6 -130 -74 -202q-81 -73 -207 -73t-207 73q-79 72 -73 202h135q0 -62 36 -104t109 -42q72 0 108 42t36 104h139zM848 160l-2 2q-61 -88 -162 -133q-100 -45 -211 -45q-169 0 -285 85t-116 250q0 161 118 243q119 83 287 81q207 0 357 -84v80q0 126 -94 184
q-95 58 -234 58q-172 0 -330 -76l-31 141q193 86 363 86q222 0 356 -93q133 -93 133 -302v-637h-141zM838 416q-63 37 -161 62q-94 24 -175 24q-112 0 -188 -45t-76 -142q0 -94 79 -140t181 -46q131 0 234 80q101 79 106 207z" />
    <glyph glyph-name="acircumflex.alt" horiz-adv-x="1140" 
d="M215 1180l291 270h104l291 -270v-15h-170l-172 160l-172 -160h-172v15zM848 160l-2 2q-61 -88 -162 -133q-100 -45 -211 -45q-169 0 -285 85t-116 250q0 161 118 243q119 83 287 81q207 0 357 -84v80q0 126 -94 184q-95 58 -234 58q-172 0 -330 -76l-31 141
q193 86 363 86q222 0 356 -93q133 -93 133 -302v-637h-141zM838 416q-63 37 -161 62q-94 24 -175 24q-112 0 -188 -45t-76 -142q0 -94 79 -140t181 -46q131 0 234 80q101 79 106 207z" />
    <glyph glyph-name="adieresis.alt" horiz-adv-x="1140" 
d="M252 1341q0 69 54 97t110 1q55 -27 55 -96q0 -68 -54 -95q-55 -28 -110 -1t-55 94zM680 1341q0 51 34 81t76 30q40 0 75 -30q34 -30 34 -81q0 -68 -54 -95t-110 0q-55 27 -55 95zM848 160l-2 2q-61 -88 -162 -133q-100 -45 -211 -45q-169 0 -285 85t-116 250
q0 161 118 243q119 83 287 81q207 0 357 -84v80q0 126 -94 184q-95 58 -234 58q-172 0 -330 -76l-31 141q193 86 363 86q222 0 356 -93q133 -93 133 -302v-637h-141zM838 416q-63 37 -161 62q-94 24 -175 24q-112 0 -188 -45t-76 -142q0 -94 79 -140t181 -46q131 0 234 80
q101 79 106 207z" />
    <glyph glyph-name="agrave.alt" horiz-adv-x="1140" 
d="M334 1436v6h201l139 -244v-10h-150zM848 160l-2 2q-61 -88 -162 -133q-100 -45 -211 -45q-169 0 -285 85t-116 250q0 161 118 243q119 83 287 81q207 0 357 -84v80q0 126 -94 184q-95 58 -234 58q-172 0 -330 -76l-31 141q193 86 363 86q222 0 356 -93q133 -93 133 -302
v-637h-141zM838 416q-63 37 -161 62q-94 24 -175 24q-112 0 -188 -45t-76 -142q0 -94 79 -140t181 -46q131 0 234 80q101 79 106 207z" />
    <glyph glyph-name="amacron.alt" horiz-adv-x="1140" 
d="M229 1407h650v-141h-650v141zM848 160l-2 2q-61 -88 -162 -133q-100 -45 -211 -45q-169 0 -285 85t-116 250q0 161 118 243q119 83 287 81q207 0 357 -84v80q0 126 -94 184q-95 58 -234 58q-172 0 -330 -76l-31 141q193 86 363 86q222 0 356 -93q133 -93 133 -302v-637
h-141zM838 416q-63 37 -161 62q-94 24 -175 24q-112 0 -188 -45t-76 -142q0 -94 79 -140t181 -46q131 0 234 80q101 79 106 207z" />
    <glyph glyph-name="aogonek.alt" horiz-adv-x="1140" 
d="M150 942h-3q193 86 361 86q489 0 489 -393v-721q-99 12 -167 -28t-52 -99q6 -29 36 -48q31 -20 75 -20q95 0 158 78l92 -63q-35 -64 -102 -99q-66 -35 -144 -36q-96 -2 -161 40q-67 42 -83 111q-16 71 37 150q52 78 172 96l-6 164q-61 -86 -162 -131q-102 -45 -215 -45
q-169 0 -285 82t-116 247q0 159 119 245q117 85 286 83q205 0 355 -84v80q0 126 -93 184t-233 58q-172 0 -330 -76zM834 414q-141 84 -332 84q-111 0 -189 -45q-77 -44 -77 -140q1 -93 81 -140q79 -46 181 -46q132 0 232 80t104 207z" />
    <glyph glyph-name="aring.alt" horiz-adv-x="1140" 
d="M336 1341h2q0 92 68 145q67 52 161 52q93 0 160 -52q68 -53 68 -145q0 -91 -67 -144q-65 -52 -165 -52q-99 0 -163 52t-64 144zM563 1444h4q-71 0 -101 -50t0 -100q30 -49 99 -49q45 0 75 21t36 49q6 29 -1 58q-7 28 -38 50q-30 21 -74 21zM848 160l-2 2
q-61 -88 -162 -133q-100 -45 -211 -45q-169 0 -285 85t-116 250q0 161 118 243q119 83 287 81q207 0 357 -84v80q0 126 -94 184q-95 58 -234 58q-172 0 -330 -76l-31 141q193 86 363 86q222 0 356 -93q133 -93 133 -302v-637h-141zM838 416q-63 37 -161 62q-94 24 -175 24
q-112 0 -188 -45t-76 -142q0 -94 79 -140t181 -46q131 0 234 80q101 79 106 207z" />
    <glyph glyph-name="aringacute.alt" horiz-adv-x="1140" 
d="M479 1528l148 190h198v-4l-196 -192h-150v6zM342 1290v-4q0 -84 60 -132t153 -48q91 0 152 48t61 134q0 84 -63 132t-150 48t-151 -47q-62 -46 -62 -131zM553 1376h-2q67 0 96 -45q28 -44 1 -91q-27 -46 -95 -46q-67 0 -94 46t0 91t94 45zM848 160l-2 2
q-61 -88 -162 -133q-100 -45 -211 -45q-169 0 -285 85t-116 250q0 161 118 243q119 83 287 81q207 0 357 -84v80q0 126 -94 184q-95 58 -234 58q-172 0 -330 -76l-31 141q193 86 363 86q222 0 356 -93q133 -93 133 -302v-637h-141zM838 416q-63 37 -161 62q-94 24 -175 24
q-112 0 -188 -45t-76 -142q0 -94 79 -140t181 -46q131 0 234 80q101 79 106 207z" />
    <glyph glyph-name="atilde.alt" horiz-adv-x="1140" 
d="M252 1288l4 2q23 93 96 133q74 41 160 11q14 -5 58 -28q48 -25 57 -26q82 -27 112 60l111 -47q-22 -100 -92 -138q-68 -37 -148 -8q-8 1 -60 27q-49 24 -61 26q-92 35 -129 -61zM848 160l-2 2q-61 -88 -162 -133q-100 -45 -211 -45q-169 0 -285 85t-116 250
q0 161 118 243q119 83 287 81q207 0 357 -84v80q0 126 -94 184q-95 58 -234 58q-172 0 -330 -76l-31 141q193 86 363 86q222 0 356 -93q133 -93 133 -302v-637h-141zM838 416q-63 37 -161 62q-94 24 -175 24q-112 0 -188 -45t-76 -142q0 -94 79 -140t181 -46q131 0 234 80
q101 79 106 207z" />
    <glyph glyph-name="g.alt" horiz-adv-x="1304" 
d="M1151 -20v-5q0 -249 -145 -375t-361 -126q-227 0 -360 100t-138 281h164q7 -110 100 -168t236 -58t241 87q97 87 97 259v205q-56 -99 -161 -152q-104 -53 -216 -53q-222 0 -370 145t-148 386q0 239 149 382q147 142 371 140q117 0 220 -52q105 -53 157 -149l4 185h160
v-1032zM623 870l-2 -2q-155 0 -259 -101t-104 -267q0 -168 104 -269q105 -102 259 -102q99 0 179 41t120 106q41 68 59 145q18 79 0 158q-17 76 -59 144q-40 65 -119 106t-178 41z" />
    <glyph glyph-name="gbreve.alt" horiz-adv-x="1304" 
d="M922 1450l-2 -2q6 -128 -74 -200t-207 -72t-207 72t-74 200h136q0 -66 35 -105q36 -40 112 -40q72 0 108 42q35 41 35 105h138zM1151 -23v-4q0 -249 -145 -375t-361 -126q-227 0 -360 100t-138 281h164q7 -110 100 -168t236 -58t241 87q97 87 97 259v205
q-56 -99 -161 -152q-104 -53 -216 -53q-222 0 -370 145t-148 386q0 239 149 382q147 142 371 140q117 0 220 -52q105 -53 157 -149l4 185h160v-1033zM623 868l-2 -2q-155 0 -259 -101t-104 -267q0 -168 104 -269q105 -102 259 -102q99 0 179 41t120 106q41 68 59 145
q18 79 0 158q-17 76 -59 144q-40 65 -119 106t-178 41z" />
    <glyph glyph-name="gcircumflex.alt" horiz-adv-x="1306" 
d="M608 1468h109l295 -276v-12h-172l-178 163l-177 -163h-172v12zM993 1012l-6 4l-4 -185q-51 96 -154 149q-101 52 -219 52q-223 0 -371 -142q-149 -143 -149 -382q0 -241 148 -386q146 -144 368 -142q113 0 216 52q105 53 161 152v-204q0 -173 -97 -260t-241 -87
q-141 0 -233 58t-99 168h-163q5 -181 137 -281q133 -100 360 -100q216 0 361 126t145 376v1032h-160zM256 510l-2 2q0 166 104 267q105 102 258 102q100 0 180 -41q78 -40 119 -107q43 -71 60 -144q18 -79 0 -158q-17 -73 -60 -144q-41 -67 -118 -107q-79 -41 -179 -41
q-152 0 -258 103q-104 101 -104 268z" />
    <glyph glyph-name="gcommaaccent.alt" horiz-adv-x="1300" 
d="M684 1374h-2q72 -18 72 -90q0 -67 -56 -94q-54 -26 -109 1q-54 27 -54 95q0 10 11 38q15 37 33 89q13 36 39 113h113zM150 -141l-7 4q5 -181 138 -281t360 -100q215 0 360 126q146 126 146 376v1032h-160l-4 -185q-51 96 -154 149q-101 52 -219 52q-223 0 -371 -142
q-149 -143 -149 -382q0 -241 148 -386q146 -144 368 -142q113 0 216 52q105 53 161 152v-204q0 -173 -97 -260t-241 -87q-141 0 -233 58t-99 168h-163zM616 879l-2 2q100 0 180 -41q78 -40 119 -107q43 -71 60 -144q18 -79 0 -158q-17 -73 -60 -144q-41 -67 -118 -107
q-79 -41 -179 -41q-152 0 -258 103q-104 101 -104 268q0 166 104 267q105 102 258 102z" />
    <glyph glyph-name="gdotaccent.alt" horiz-adv-x="1300" 
d="M537 1354q0 70 55 97t110 -1q56 -29 56 -98q0 -71 -56 -98q-55 -27 -110 1t-55 99zM983 -20l-6 4q0 -172 -97 -259q-98 -87 -241 -87t-233 57q-92 58 -99 168h-164q5 -181 138 -281t360 -100q215 0 360 126q146 126 146 376v1032h-160l-4 -185q-51 96 -154 149
q-101 52 -219 52q-223 0 -371 -142q-149 -143 -149 -382q0 -241 148 -386q146 -144 368 -142q113 0 216 52q105 53 161 152v-204zM612 879l-2 2q100 0 180 -41q78 -40 119 -107q43 -71 60 -144q18 -79 0 -158q-17 -73 -60 -144q-41 -67 -118 -107q-79 -41 -179 -41
q-152 0 -258 103q-104 101 -104 268q0 166 104 267q105 102 258 102z" />
    <glyph glyph-name="y.alt" horiz-adv-x="1247" 
d="M1094 -31v-2q0 -241 -132 -366q-133 -125 -339 -125q-208 0 -328 98t-135 279h162q33 -220 299 -220q136 0 224 85q89 86 89 253v191q-117 -173 -354 -178q-198 0 -319 126q-122 127 -122 343v559h168v-557q0 -149 82 -232q83 -84 225 -84q137 2 225 97q87 94 87 233v543
h168v-1043z" />
    <glyph glyph-name="yacute.alt" horiz-adv-x="1247" 
d="M512 1184l147 252h203v-6l-198 -256h-152v10zM154 -147l6 6q15 -181 135 -279t328 -98q206 0 339 125q132 125 132 366v1043h-168v-543q0 -139 -87 -234q-89 -97 -225 -98q-143 -1 -225 82t-82 232v557h-168v-559q0 -216 122 -343q121 -126 317 -126q238 5 352 178v-191
q0 -167 -89 -253q-88 -85 -225 -85q-266 0 -301 220h-161z" />
    <glyph glyph-name="ycircumflex.alt" horiz-adv-x="1247" 
d="M274 1184l289 264h107l286 -264v-13h-172l-170 154l-168 -154h-172v13zM1094 -31v-2q0 -241 -132 -366q-133 -125 -339 -125q-208 0 -328 98t-135 279h162q33 -220 299 -220q136 0 224 85q89 86 89 253v191q-117 -173 -354 -178q-198 0 -319 126q-122 127 -122 343v559
h168v-557q0 -149 82 -232q83 -84 225 -84q137 2 225 97q87 94 87 233v543h168v-1043z" />
    <glyph glyph-name="ydieresis.alt" horiz-adv-x="1247" 
d="M297 1337q0 68 53 95q54 28 107 0q53 -27 53 -95q0 -66 -53 -93q-54 -27 -107 0t-53 93zM756 1337q0 68 53 95q54 27 106 0q54 -28 54 -95q0 -65 -54 -93q-53 -27 -106 0t-53 93zM154 -147l6 6q15 -181 135 -279t328 -98q206 0 339 125q132 125 132 366v1043h-168v-543
q0 -139 -87 -234q-89 -97 -225 -98q-143 -1 -225 82t-82 232v557h-168v-559q0 -216 122 -343q121 -126 317 -126q238 5 352 178v-191q0 -167 -89 -253q-88 -85 -225 -85q-266 0 -301 220h-161z" />
    <glyph glyph-name="ygrave.alt" horiz-adv-x="1247" 
d="M387 1430v6h203l147 -252v-10h-151zM1094 -31v-2q0 -241 -132 -366q-133 -125 -339 -125q-208 0 -328 98t-135 279h162q33 -220 299 -220q136 0 224 85q89 86 89 253v191q-117 -173 -354 -178q-198 0 -319 126q-122 127 -122 343v559h168v-557q0 -149 82 -232
q83 -84 225 -84q137 2 225 97q87 94 87 233v543h168v-1043z" />
    <glyph glyph-name="zero.denom" horiz-adv-x="796" 
d="M84 420q0 105 46 181q46 77 117 111q67 33 151 33q83 0 152 -34q70 -35 117 -111q46 -76 46 -180v-109q0 -105 -46 -181q-47 -78 -117 -112q-69 -34 -152 -34q-82 0 -151 34q-70 34 -117 112q-46 76 -46 181v109zM217 309q0 -95 56 -147q57 -52 123 -54q65 -1 123 53
q56 53 56 148v109q0 81 -36 131q-36 52 -89 66t-106 0q-52 -13 -90 -66q-37 -52 -37 -131v-109z" />
    <glyph glyph-name="one.denom" horiz-adv-x="522" 
d="M74 117h129v471l-111 -29v119l246 59v-620h131v-117h-395v117z" />
    <glyph glyph-name="two.denom" horiz-adv-x="743" 
d="M82 0l2 2v178q0 203 291 230q153 10 153 114q0 111 -155 111q-150 0 -152 -107h-133q0 117 83 171q84 55 200 55q125 0 209 -55q82 -54 82 -175q0 -65 -25 -113q-24 -46 -70 -69t-83 -32q-34 -8 -89 -13q-54 -7 -81 -13q-31 -7 -63 -35q-32 -27 -32 -71v-45h432v-133
h-569z" />
    <glyph glyph-name="three.denom" horiz-adv-x="749" 
d="M213 215h-4q11 -102 158 -102q161 0 161 108q0 41 -39 74t-118 33h-115v110h106q152 0 152 99q0 36 -38 68t-114 32q-149 0 -157 -107h-121q0 111 83 165q84 55 198 55q115 0 200 -56t86 -159q0 -56 -28 -99q-27 -41 -80 -57q58 -16 93 -63q34 -46 34 -95
q0 -122 -89 -178q-88 -55 -216 -55q-122 0 -205 55q-85 56 -86 172h139z" />
    <glyph glyph-name="four.denom" horiz-adv-x="747" 
d="M584 739v-469h86v-120h-86v-148h-133v148h-394l-6 110l352 479h181zM451 270v340l-252 -340h252z" />
    <glyph glyph-name="five.denom" horiz-adv-x="741" 
d="M371 471l2 -2q143 0 221 -62q80 -63 78 -182q0 -115 -81 -178t-216 -63q-124 0 -209 53q-84 53 -86 172h131q0 -103 160 -103q164 0 164 121q0 125 -164 125h-275v387h531v-118h-402v-150h146z" />
    <glyph glyph-name="six.denom" horiz-adv-x="770" 
d="M229 399h-2q60 60 168 60q126 0 213 -55q86 -54 86 -181q0 -118 -89 -177q-88 -58 -210 -58q-123 0 -211 61t-88 178v285q0 119 85 179q87 61 206 61q124 0 208 -52q83 -51 87 -151h-133q-11 84 -160 84q-160 0 -160 -121v-113zM395 104v-2q68 0 116 30t48 91
q0 62 -48 92q-50 31 -116 31t-117 -31t-51 -90q0 -61 49 -91t119 -30z" />
    <glyph glyph-name="seven.denom" horiz-adv-x="649" 
d="M59 739h547l8 -59l-350 -680h-153l325 618h-377v121z" />
    <glyph glyph-name="eight.denom" horiz-adv-x="786" 
d="M82 207h2q0 61 39 109q40 49 102 67q-127 45 -127 160q0 107 88 159q91 54 209 54q121 0 210 -53t89 -160q0 -116 -125 -160q61 -18 101 -69q39 -50 39 -109q0 -119 -94 -172q-93 -53 -222 -51q-84 0 -148 19q-67 20 -115 72q-48 53 -48 134zM557 543v-2q0 53 -50 79
q-49 25 -112 25q-62 0 -111 -25q-51 -26 -51 -77q0 -53 46 -79t116 -26q69 0 115 26q45 26 47 79zM569 207v-4q0 56 -52 87q-53 32 -122 32t-122 -30q-52 -30 -52 -87q0 -51 53 -81q52 -30 121 -30t121 30q53 30 53 83z" />
    <glyph glyph-name="nine.denom" horiz-adv-x="768" 
d="M672 225l2 -2q0 -119 -85 -179t-206 -60q-125 0 -208 51t-87 153h133q11 -84 160 -84q160 0 160 121v113q-59 -59 -168 -59q-127 0 -213 54t-86 181q0 118 89 177t210 59t211 -61q88 -60 88 -177v-287zM373 631v4q-68 0 -116 -30t-48 -91q0 -62 48 -92q50 -31 116 -31
t117 31t51 88q0 61 -49 91t-119 30z" />
    <glyph glyph-name="zero.num" horiz-adv-x="796" 
d="M84 1128v2q0 89 35 161q35 71 90 107q54 35 122 52q67 17 134 -1q70 -19 123 -53q55 -36 90 -107q35 -72 35 -161v-108q0 -105 -46 -181q-47 -78 -117 -112q-72 -35 -152 -35q-79 0 -151 35q-70 34 -117 112q-46 76 -46 181v108zM215 1020q0 -96 56 -148q57 -52 123 -54
q65 -1 123 53q56 53 56 149v111q0 81 -36 131q-37 52 -90 66t-105 0t-90 -66q-37 -53 -37 -132v-110z" />
    <glyph glyph-name="one.num" horiz-adv-x="528" 
d="M78 836h129v469l-111 -27v119l246 59v-620h131v-119h-395v119z" />
    <glyph glyph-name="two.num" horiz-adv-x="747" 
d="M88 1229l4 -2q0 117 83 171q82 54 200 54q127 0 209 -54t82 -175q0 -55 -20 -98q-19 -40 -45 -65q-24 -22 -69 -38q-47 -16 -71 -20q-29 -4 -72 -9q-166 -15 -166 -116v-43h434v-134h-571v179q0 201 270 225q172 15 172 121q0 110 -155 110q-151 0 -152 -106h-133z" />
    <glyph glyph-name="three.num" horiz-adv-x="751" 
d="M215 918l-4 2q11 -103 158 -103q161 0 161 107q0 41 -38 73q-39 33 -119 33h-115v111h107q151 0 151 98q0 37 -38 69q-37 31 -113 31q-151 0 -158 -106h-121q0 111 83 165q82 54 198 54q117 0 200 -55q85 -56 86 -160q0 -56 -29 -97q-30 -42 -79 -57q59 -16 93 -62
t34 -97q0 -123 -89 -179q-88 -55 -216 -55q-122 0 -205 55q-84 56 -86 173h139z" />
    <glyph glyph-name="four.num" horiz-adv-x="747" 
d="M584 1438v-469h86v-121h-86v-148h-133v148h-394l-6 110l352 480h181zM451 969v340l-252 -340h252z" />
    <glyph glyph-name="five.num" horiz-adv-x="739" 
d="M369 1167v-2q143 0 221 -62q80 -63 80 -181q0 -113 -80 -178q-79 -64 -215 -64q-124 0 -209 53q-84 53 -86 172h131q0 -102 160 -102q164 0 164 121q0 125 -166 125h-273v387h531v-119h-402v-150h144z" />
    <glyph glyph-name="six.num" horiz-adv-x="770" 
d="M229 1102l-2 2q59 59 168 59q127 0 213 -54t86 -183q0 -118 -89 -177t-210 -59t-211 61q-88 60 -88 177v286q0 120 85 180t206 60q125 0 208 -51q82 -51 87 -152h-133q-11 84 -160 84q-160 0 -160 -121v-112zM393 809q67 0 116 29q48 28 48 90t-48 92q-50 31 -116 31
q-67 0 -118 -31q-50 -30 -50 -90q0 -61 49 -91t119 -30z" />
    <glyph glyph-name="seven.num" horiz-adv-x="649" 
d="M59 1436h547l8 -60l-350 -680h-153l325 617h-377v123z" />
    <glyph glyph-name="eight.num" horiz-adv-x="788" 
d="M80 907l4 -6q0 62 39 110t100 66q-127 45 -127 162q0 108 88 160q89 53 209 53q122 0 210 -52q89 -53 89 -159q0 -115 -123 -160q63 -18 101 -67q39 -49 39 -109q0 -119 -94 -172q-93 -53 -222 -51q-129 0 -221 53t-92 172zM557 1235q0 54 -49 79t-111 25q-63 0 -112 -25
t-47 -79q0 -53 45 -79q46 -26 114 -26q69 0 115 26q45 26 45 79zM571 901q0 56 -52 87q-53 32 -122 32t-122 -30q-52 -30 -52 -89q0 -51 53 -81q51 -29 121 -29t121 29q53 30 53 81z" />
    <glyph glyph-name="nine.num" horiz-adv-x="770" 
d="M539 1044h4q-59 -59 -168 -59q-127 0 -213 54t-86 182q0 118 89 177q88 58 210 58q123 0 211 -61t88 -178v-285q0 -119 -86 -179q-87 -61 -207 -61q-125 0 -208 51q-82 51 -87 152h133q11 -84 160 -84q160 0 160 121v112zM543 1219v2q0 61 -49 91q-48 29 -119 29
q-70 0 -116 -29q-48 -30 -48 -91q0 -63 48 -93t116 -30q69 0 118 30q50 30 50 91z" />
    <glyph glyph-name="zero.tf" 
d="M131 858q0 189 86 331q84 139 214 203q125 62 279 62q153 0 278 -62q130 -64 214 -203q86 -142 86 -331v-280q0 -189 -86 -331q-84 -139 -214 -203q-125 -62 -278 -62q-154 0 -279 62q-130 64 -214 203q-86 142 -86 331v280zM311 578v-3q0 -89 28 -168q27 -77 74 -127
q50 -54 105 -85q60 -35 126 -42q62 -7 132 1q63 7 125 43q57 33 106 85q45 48 73 127t28 169v280q0 138 -59 235q-60 99 -148 144q-89 45 -191 45t-192 -44q-86 -42 -147 -144q-60 -100 -60 -236v-280z" />
    <glyph glyph-name="one.tf" 
d="M262 154h375v1056l-344 -84v164l524 144v-1280h397v-154h-952v154z" />
    <glyph glyph-name="two.tf" 
d="M154 1036l-2 -2q5 117 55 202q51 85 135 130q85 46 176 65q89 19 199 19q107 0 204 -23q98 -23 178 -70q83 -48 131 -135t48 -202q0 -118 -48 -203q-49 -87 -130 -133q-88 -49 -176 -69q-94 -21 -205 -21q-389 -5 -389 -248v-176h944v-172h-1127v348q0 116 50 201
t134 128q85 43 179 64q95 21 205 21q63 0 126 12q62 12 124 39q61 27 99 80t38 127q0 142 -113 208q-113 67 -268 68q-100 0 -181 -21q-80 -21 -143 -82q-61 -60 -63 -155h-180z" />
    <glyph glyph-name="three.tf" 
d="M158 1061l-4 2q0 108 50 188q49 79 134 123q84 44 175 63q89 19 194 19q237 0 390 -108q152 -108 154 -295q0 -107 -72 -196t-184 -116q120 -29 202 -123q83 -95 83 -206q0 -206 -162 -317t-413 -111q-89 0 -159 11q-82 13 -154 41q-76 30 -133 75t-91 116
q-35 73 -35 164h180q0 -74 39 -125q40 -52 104 -76t125 -33q67 -10 128 -10q171 0 280 71t109 188q0 103 -94 179q-95 77 -287 77h-232v149h220q163 0 266 68q102 68 104 170q2 99 -91 171t-275 72q-68 0 -124 -10q-59 -11 -119 -33q-62 -23 -95 -71q-35 -50 -35 -117h-178z
" />
    <glyph glyph-name="four.tf" 
d="M1118 1434v-961h174v-172h-174v-301h-180v301h-827l-25 197l748 936h284zM938 1282l-649 -809h649v809z" />
    <glyph glyph-name="five.tf" 
d="M745 899l3 2q261 0 401 -121t139 -329q0 -209 -152 -336t-407 -127q-113 0 -210 21q-96 21 -180 68q-83 47 -131 132t-48 203h182q0 -98 66 -158q65 -59 144 -77q75 -17 175 -17q171 0 275 77t104 212q0 128 -92 205t-269 77h-555v703h1016v-170h-839v-365h378z" />
    <glyph glyph-name="six.tf" 
d="M332 717l2 -6q123 180 403 180q86 0 167 -15q76 -14 156 -51q73 -34 130 -86q55 -51 88 -130t33 -175q0 -116 -50 -207q-49 -89 -135 -143q-85 -53 -183 -80q-99 -27 -208 -27q-148 0 -277 47q-128 47 -216 154t-88 262v586q0 208 167 319t398 111q238 0 397 -99
q161 -100 168 -290h-184q-5 109 -114 170t-267 61q-157 0 -272 -73t-115 -201v-307zM733 141v2q102 0 188 27q85 27 146 94t61 170q0 142 -116 219q-117 78 -277 78t-281 -77q-120 -77 -120 -220q0 -148 118 -220q120 -73 281 -73z" />
    <glyph glyph-name="seven.tf" 
d="M1028 1262h-833v172h1056l15 -115l-717 -1319h-211z" />
    <glyph glyph-name="eight.tf" 
d="M104 401l5 4q0 119 77 209q79 93 199 127q-246 96 -246 308q0 139 87 236q86 96 212 137q123 40 273 40q149 0 272 -40q127 -41 214 -136q89 -97 89 -237q0 -105 -69 -186t-187 -120q119 -35 199 -131q81 -97 82 -211q0 -113 -53 -201t-141 -137q-86 -48 -192 -71
t-218 -23q-113 0 -215 24q-104 24 -193 72t-142 135q-53 88 -53 201zM1100 1057q1 124 -118 190q-120 66 -271 66q-99 0 -185 -27t-144 -87q-58 -59 -58 -142q2 -122 121 -183t266 -61q148 0 267 61q121 62 122 183zM711 672v4q-95 0 -184 -24t-160 -88q-72 -64 -72 -156
q0 -126 128 -195q129 -70 288 -70q161 0 288 69t127 194q0 90 -69 153q-70 64 -160 88q-94 25 -186 25z" />
    <glyph glyph-name="nine.tf" 
d="M1087 721l-2 6q-123 -180 -401 -180q-86 0 -167 15q-79 15 -156 50q-73 34 -130 86q-55 51 -88 130q-32 77 -32 176q0 115 50 206q50 92 134 144q85 53 183 80q95 26 208 26q152 0 278 -46q128 -47 216 -154t88 -263v-585q0 -208 -167 -319t-399 -111q-240 0 -399 99
q-161 100 -168 290h182q5 -109 115 -170q112 -62 268 -62t272 74q115 73 115 201v307zM686 1296l-2 -2q-105 0 -187 -26q-86 -27 -147 -94t-61 -170q0 -148 115 -223q114 -74 278 -74q163 0 282 76t119 221q0 149 -117 220q-118 72 -280 72z" />
    <glyph glyph-name="bullet.case" horiz-adv-x="804" 
d="M406 463l-3 -2q-100 0 -164 61q-65 62 -65 164q0 100 66 163q65 62 166 62q97 0 160 -62q65 -63 65 -163t-65 -162q-64 -61 -160 -61z" />
    <glyph glyph-name="periodcentered.case" horiz-adv-x="528" 
d="M150 686q0 71 57 101t115 0q57 -30 57 -99q0 -43 -24 -73q-23 -29 -57 -36t-68 0t-57 35q-23 27 -23 72z" />
    <glyph glyph-name="braceleft.case" horiz-adv-x="698" 
d="M608 -160l-2 4q-203 -33 -287 42q-83 74 -83 264v294q0 209 -154 209v127q154 0 154 209v281q0 188 87 266t283 41v-127q-117 22 -160 -18t-43 -168v-275q0 -49 -2 -89q-1 -28 -14 -74q-12 -42 -44 -70q-29 -25 -83 -41q56 -16 85 -41q32 -27 44 -71q13 -46 14 -74
q3 -60 3 -89v-288q0 -126 39 -162q40 -37 163 -19v-131z" />
    <glyph glyph-name="braceright.case" horiz-adv-x="696" 
d="M90 -29v2q123 -18 164 18t41 161v290q0 49 2 89q1 28 14 74q12 44 44 71q29 25 83 41q-41 11 -71 35q-27 21 -43 44q-14 20 -22 61q-6 32 -8 63q-1 15 -1 69v277q0 128 -43 168t-160 18v125q196 37 284 -41q87 -78 87 -264v-283q0 -209 153 -209v-129q-153 0 -153 -209
v-295q0 -188 -84 -263t-287 -42v129z" />
    <glyph glyph-name="bracketleft.case" horiz-adv-x="702" 
d="M186 1618h426v-154h-254v-1503h254v-156h-426v1813z" />
    <glyph glyph-name="bracketright.case" horiz-adv-x="702" 
d="M516 -195h-426v156h254v1503h-254v154h426v-1813z" />
    <glyph glyph-name="parenleft.case" horiz-adv-x="716" 
d="M651 1522q-181 -134 -276 -341q-98 -212 -99 -444q-1 -239 94 -448q94 -206 281 -346l-90 -127q-224 146 -342 391q-119 247 -119 522q0 272 120 517q120 244 345 394z" />
    <glyph glyph-name="parenright.case" horiz-adv-x="714" 
d="M150 1645v-3q225 -147 345 -392q119 -242 119 -515q0 -277 -118 -522t-342 -391l-88 129q185 139 280 345q94 203 92 447q-1 234 -98 444q-95 206 -277 341z" />
    <glyph glyph-name="emdash.case" horiz-adv-x="1449" 
d="M152 768h1146v-158h-1146v158z" />
    <glyph glyph-name="endash.case" horiz-adv-x="1241" 
d="M152 764h938v-158h-938v158z" />
    <glyph glyph-name="hyphen.case" horiz-adv-x="1032" 
d="M150 774h733v-162h-733v162z" />
    <glyph glyph-name="guillemotleft.case" horiz-adv-x="1005" 
d="M403 1141h181l-281 -451l281 -452h-181l-282 452zM401 690l285 451h178l-278 -451l278 -452h-178z" />
    <glyph glyph-name="guillemotright.case" horiz-adv-x="1003" 
d="M317 250h-178l279 452l-279 451h178l283 -451zM883 702l-283 -452h-178l278 452l-278 451h178z" />
    <glyph glyph-name="guilsinglleft.case" horiz-adv-x="724" 
d="M119 705l282 450h181l-281 -450l281 -453h-181z" />
    <glyph glyph-name="guilsinglright.case" horiz-adv-x="724" 
d="M324 246h-181l281 452l-281 451h181l282 -451z" />
    <glyph glyph-name="florin.tf" 
d="M602 854l-2 -2h-295v147h295v80q0 175 90 271t252 96q120 0 227 -74l-67 -125q-86 51 -156 51q-178 0 -178 -219v-80h348v-147h-348v-856q0 -175 -83 -272t-243 -97q-107 0 -209 72l68 123q65 -49 137 -49q164 0 164 225v856z" />
    <glyph glyph-name="cent.tf" 
d="M702 -33h3q-196 28 -321 167q-124 137 -124 349q0 203 123 344q124 142 322 172v134h157v-134q175 -27 297 -149l-104 -107q-114 109 -269 109q-154 0 -258 -100t-104 -269q0 -170 103 -269t259 -99q147 0 267 116l106 -120q-128 -124 -299 -146v-145h-158v147z" />
    <glyph glyph-name="dollar.tf" 
d="M805 1645v-3v-192q334 -34 452 -262l-151 -76q-47 84 -160 131q-114 47 -231 47q-153 0 -269 -58t-114 -181q0 -48 22 -82t54 -58q28 -21 88 -40q50 -16 103 -26q78 -15 122 -22q56 -8 123 -20q35 -6 115 -26q73 -18 113 -36q39 -17 91 -51t77 -72q26 -40 45 -95
q20 -58 20 -126q-1 -189 -152 -294q-150 -105 -350 -117v-201h-166v197q-180 12 -324 88q-146 77 -213 221l162 74q50 -104 180 -161q129 -57 271 -57q96 0 185 23q88 23 155 82q67 60 67 149q0 64 -31 110t-99 75q-69 30 -129 44q-71 17 -159 32q-95 13 -137 22
q-55 11 -124 30q-74 20 -116 46q-47 29 -87 65q-42 38 -64 97q-20 54 -20 129q-2 185 141 283q146 100 344 118v193h166z" />
    <glyph glyph-name="Euro.tf" 
d="M1260 16l4 -6q-125 -41 -252 -41q-302 0 -477 143t-230 396h-133v141h115q-2 10 -2 56q0 35 2 63h-115v143h137q50 244 228 394q177 149 473 149q103 0 211 -33l-52 -157q-73 20 -159 20q-415 0 -516 -373h518l-35 -143h-518q-2 -24 -2 -59q0 -34 2 -54h487l-31 -141
h-423q90 -367 518 -367q105 0 198 37z" />
    <glyph glyph-name="sterling.tf" 
d="M162 743l2 -2h153q-47 186 -47 271q0 211 140 325q141 115 364 115q210 0 341 -95q130 -94 136 -302h-164q-7 239 -313 239q-158 0 -242 -74q-86 -75 -86 -204q0 -72 46 -271h481v-151h-451q39 -275 -145 -422h885v-170h-1100v166q125 95 164 196q38 101 22 228h-186v151
z" />
    <glyph glyph-name="yen.tf" 
d="M297 430h317v117h-317v137h250l-488 743v7h213l435 -680l440 680h215v-7l-498 -743h254v-137h-321v-117h321v-135h-321v-295h-183v295h-317v135z" />
    <glyph glyph-name="bar.case" horiz-adv-x="544" 
d="M356 1548v-1704h-168v1704h168z" />
    <glyph glyph-name="commaaccentcomb.alt" horiz-adv-x="1028" 
d="M512 1430v-3q72 -18 72 -92q0 -67 -56 -94q-54 -27 -110 2t-56 96q0 4 13 45q4 13 16.5 49.5t20.5 59.5q9 26 22.5 66t18.5 55h112z" />
    <glyph glyph-name="_0004" horiz-adv-x="0" 
 />
    <glyph glyph-name="asterisk.alt" horiz-adv-x="647" 
d="M104 1040l101 123l-158 37q-31 11 -32 45q-1 33 21 62q21 27 50 16l156 -53l-9 141q0 51 64 51q63 0 68 -51l-9 -141l156 53q29 11 50 -16q22 -29 21 -62q-1 -34 -32 -45l-158 -37l101 -123q26 -32 6 -66q-21 -34 -56 -36q-34 -1 -57 29l-88 129l-88 -129
q-18 -35 -57 -29t-56 37q-17 30 6 65z" />
    </font>
</defs>
</svg>
